<?xml version="1.0" encoding="UTF-8" standalone="no"?>
<!DOCTYPE svg PUBLIC "-//W3C//DTD SVG 1.1//EN" "http://www.w3.org/Graphics/SVG/1.1/DTD/svg11.dtd">
<svg xmlns="http://www.w3.org/2000/svg">
<metadata/>
<defs>
<font id="orange_sans65_medium" horiz-adv-x="1249">
<font-face units-per-em="2048" ascent="1608" descent="-440"/>
<missing-glyph horiz-adv-x="477"/>
<glyph unicode="IJ" horiz-adv-x="1697" d="M174 0v1434h262v-1434h-262zM616 418v80h262v-60q0 -92 21.5 -144t54.5 -79t68.5 -34t64.5 -7q39 0 76 8t64.5 39t44 90.5t16.5 163.5v959h262v-926q0 -90 -11.5 -187.5t-57.5 -178.5t-139 -133t-257 -52q-143 0 -234.5 42t-143.5 108.5t-71.5 148.5t-19.5 162z"/>
<glyph unicode="ij" horiz-adv-x="1040" d="M147 0v1040h246v-1040h-246zM147 1217v217h246v-217h-246zM461 -211q100 2 143 37t43 133v1081h246v-1095q0 -68 -9 -128.5t-39 -105.5t-88 -71.5t-157 -26.5q-27 0 -67.5 2t-71.5 6v168zM647 1217v217h246v-217h-246z"/>
<glyph unicode="ﬁ" horiz-adv-x="1089" d="M29 872v168h192v131q0 88 25.5 142.5t65.5 83t89.5 38t98.5 9.5q41 0 74.5 -3t64.5 -7v-168q-8 0 -27.5 2t-33.5 2q-41 0 -63.5 -14.5t-33 -35t-12.5 -43t-2 -38.5v-99h475v-1040h-246v872h-229v-872h-246v872h-192zM696 1217v217h246v-217h-246z"/>
<glyph unicode="ﬂ" horiz-adv-x="1089" d="M29 872v168h192v131q0 88 25.5 142.5t65.5 83t89.5 38t98.5 9.5q41 0 74.5 -3t64.5 -7v-168q-8 0 -27.5 2t-33.5 2q-41 0 -63.5 -14.5t-33 -35t-12.5 -43t-2 -38.5v-99h229v394h246v-1434h-246v872h-229v-872h-246v872h-192z"/>
<glyph horiz-adv-x="2048"/>
<glyph horiz-adv-x="2048"/>
<glyph unicode="" horiz-adv-x="477"/>
<glyph unicode=" " horiz-adv-x="477"/>
<glyph unicode="	" horiz-adv-x="477"/>
<glyph unicode=" " horiz-adv-x="477"/>
<glyph unicode="!" horiz-adv-x="704" d="M217 0v276h270v-276h-270zM217 940v494h270v-494l-69 -491h-131z"/>
<glyph unicode="&quot;" horiz-adv-x="1024" d="M102 1434h349l-105 -394h-139zM573 1434h349l-105 -394h-139z"/>
<glyph unicode="#" horiz-adv-x="1495" d="M102 334l31 205h275l57 366h-275l31 205h275l49 311h188l-49 -311h246l49 311h188l-49 -311h275l-31 -205h-275l-57 -366h275l-31 -205h-275l-49 -314h-188l49 314h-246l-49 -314h-188l49 314h-275zM596 539h246l57 366h-246z"/>
<glyph unicode="$" horiz-adv-x="1228" d="M74 420h225q2 -47 16.5 -98.5t44.5 -92.5q23 -31 66 -60.5t109 -33.5v512q-39 6 -84 17.5t-90.5 30t-85 41t-68.5 48.5q-39 35 -72 101.5t-33 173.5q0 113 41 191.5t111 131.5q55 41 129 64.5t152 26.5v118h167v-118q86 -2 171 -32t145 -85q51 -47 86 -126t35 -175h-226 q4 53 -14 97t-47 75q-8 8 -46 35.5t-104 33.5v-446q104 -16 177 -41t127 -64q86 -61 117.5 -141t31.5 -188q0 -35 -4 -78t-19.5 -90t-45 -94.5t-80.5 -87.5q-59 -47 -140.5 -75t-163.5 -32v-149h-167v149q-78 -2 -159 19.5t-140 64.5q-53 39 -86 91t-49.5 104.5t-21.5 100.5 t-5 81zM365 1079q0 -55 19 -92t46 -58.5t55.5 -31.5t49.5 -12v411q-70 -6 -113 -49q-25 -25 -41 -66.5t-16 -101.5zM702 135q74 4 123 49q37 35 52.5 91.5t15.5 109.5q0 41 -12.5 85t-53.5 83q-12 12 -42.5 32.5t-82.5 26.5v-477z"/>
<glyph unicode="%" horiz-adv-x="1945" d="M111 1040q0 88 22.5 163t67.5 130.5t109.5 86t148.5 30.5t148.5 -30.5t109.5 -86t67.5 -130.5t22.5 -163t-22.5 -162.5t-67.5 -130t-109.5 -86t-148.5 -30.5t-148.5 30.5t-109.5 86t-67.5 130t-22.5 162.5zM274 1040q0 -100 22.5 -155.5t53.5 -82t61.5 -31.5t47.5 -5 q16 0 47 5t61.5 31.5t53 82t22.5 155.5t-22.5 155.5t-53 82.5t-61.5 32t-47 5t-47 -5t-62 -32t-53.5 -82t-22.5 -156zM446 0l863 1434h190l-862 -1434h-191zM1139 393q0 88 22.5 163t67.5 130t109.5 86t148.5 31t148.5 -31t109.5 -86t67.5 -130t22.5 -163t-22.5 -162.5 t-67.5 -130t-109.5 -86t-148.5 -30.5t-148.5 30.5t-109.5 86t-67.5 130t-22.5 162.5zM1303 393q0 -100 22.5 -155.5t53 -82t61 -31.5t47.5 -5q16 0 47 5t61.5 31.5t53 82t22.5 155.5t-22.5 155.5t-53 82t-61.5 32t-47 5.5t-47 -5.5t-61.5 -32t-53 -81.5t-22.5 -156z"/>
<glyph unicode="&amp;" horiz-adv-x="1445" d="M147 391q0 86 26 152.5t72 120t108.5 94.5t133.5 73q-59 63 -93 142.5t-34 146.5q0 70 26 128.5t74 99.5t114.5 63.5t148.5 22.5q100 0 165.5 -31t103.5 -77t53.5 -98t15.5 -98q0 -119 -67.5 -204.5t-190.5 -151.5l256 -303q14 23 31.5 65t27.5 107h213q-16 -94 -53 -186 t-80 -158l248 -299h-283l-112 137q-88 -94 -200 -137t-247 -43q-117 0 -203 37t-142 98.5t-84 139t-28 159.5zM410 399q0 -106 63.5 -177.5t173.5 -71.5q49 0 92 14t79 35.5t62.5 46t45.5 47.5l-314 383q-104 -43 -153 -109.5t-49 -167.5zM578 1135q0 -53 26.5 -103.5 t81.5 -113.5q53 25 85 52t48.5 55t20.5 53.5t4 43.5q0 20 -4 46t-16.5 47.5t-37 36t-65.5 14.5q-25 0 -50.5 -6.5t-46 -20.5t-33.5 -39.5t-13 -64.5z"/>
<glyph unicode="'" horiz-adv-x="552" d="M102 1434h349l-105 -394h-139z"/>
<glyph unicode="(" horiz-adv-x="806" d="M143 528q0 111 17.5 215.5t54.5 212t94.5 225t136.5 253.5h189q-139 -270 -194.5 -497.5t-55.5 -408.5q0 -102 17.5 -215.5t50 -231.5t79 -234.5t103.5 -223.5h-189q-80 135 -137 253t-94 225.5t-54.5 212t-17.5 214.5z"/>
<glyph unicode=")" horiz-adv-x="806" d="M172 -377q139 270 194.5 496.5t55.5 408.5q0 102 -17.5 216t-50 232t-79 233.5t-103.5 224.5h188q80 -135 137.5 -253t94.5 -225.5t54.5 -212t17.5 -215.5t-17.5 -215t-54.5 -211.5t-94.5 -225.5t-137.5 -253h-188z"/>
<glyph unicode="*" horiz-adv-x="958" d="M135 1210l39 119l240 -78v254h131v-254l239 78l39 -119l-235 -77l149 -209l-104 -76l-154 207l-153 -207l-105 76l150 209z"/>
<glyph unicode="+" horiz-adv-x="1228" d="M102 639v176h424v424h176v-424h424v-176h-424v-424h-176v424h-424z"/>
<glyph unicode="," horiz-adv-x="704" d="M217 0v276h270v-284q0 -88 -24.5 -146.5t-63.5 -94.5t-87 -53t-95 -22v142q59 4 98 47t39 112v23h-137z"/>
<glyph unicode="-" horiz-adv-x="827" d="M127 457v188h573v-188h-573z"/>
<glyph unicode="." horiz-adv-x="704" d="M217 0v276h270v-276h-270z"/>
<glyph unicode="/" horiz-adv-x="913" d="M0 -379l733 1813h180l-733 -1813h-180z"/>
<glyph unicode="0" d="M102 717q0 74 7.5 159t28 169.5t57 162.5t94 137.5t140.5 95.5t196 36t195.5 -36t140 -95.5t94.5 -137.5t57.5 -162.5t27.5 -169.5t7 -159t-7 -159t-27.5 -170t-57.5 -163t-94.5 -137t-140 -95t-195.5 -36t-196 36t-140.5 95t-94 137t-57 163t-28 170t-7.5 159zM369 717 q0 -195 28.5 -303.5t68.5 -161.5t84 -65.5t75 -12.5t74.5 12.5t83.5 65.5t69 161.5t29 303.5q0 193 -29 302t-69 162.5t-84 66t-74 12.5q-31 0 -75 -12.5t-84 -66t-68.5 -163t-28.5 -301.5z"/>
<glyph unicode="1" d="M260 1044v134h29q76 0 140.5 19.5t113.5 53t79.5 80.5t39.5 103h192v-1434h-262v1044h-332z"/>
<glyph unicode="2" d="M111 0q-2 143 41 243.5t111.5 174.5t155.5 129t173 108q57 35 111.5 71t96.5 80t67.5 98t25.5 124q0 23 -6 61.5t-33 76.5t-78 66t-141 28q-98 0 -152.5 -32t-81 -75t-33 -88t-6.5 -74v-35h-251v37q0 119 34.5 202t87 136t117 83t122.5 43t104.5 16.5t64.5 3.5 q111 0 205 -27t163.5 -82t109.5 -139t40 -201t-37 -200t-98 -145t-139 -111.5t-160 -98.5q-86 -53 -141.5 -89t-90 -63.5t-53 -51t-30.5 -52.5h735v-217h-1034z"/>
<glyph unicode="3" d="M84 463h252v-27q0 -12 2 -26q4 -39 18.5 -83t44 -81t78.5 -61.5t123 -24.5q23 0 44.5 2t43.5 8q61 16 97 49t54.5 71t23.5 73.5t5 58.5q0 76 -26.5 120t-65.5 64.5t-82 25.5t-75 5h-105v217h55q33 0 79 4t89 23.5t73 61.5t30 118q0 31 -8.5 65.5t-31 64.5t-64.5 49.5 t-109 19.5q-135 0 -189.5 -72t-56.5 -207h-252q-2 78 16.5 165t72.5 160.5t151.5 122t253.5 48.5q133 0 225 -32t149.5 -86t83 -127t25.5 -155q0 -117 -66.5 -203t-179.5 -108v-4q53 -6 102.5 -30.5t88.5 -69t61.5 -110t22.5 -153.5q0 -106 -38 -188t-106.5 -138.5t-167 -86 t-217.5 -29.5q-123 0 -210 27.5t-145 70.5t-92 99.5t-51.5 112t-21.5 107.5t-4 89z"/>
<glyph unicode="4" d="M57 313v217l676 904h260v-904h199v-217h-199v-313h-262v313h-674zM322 530h409v570z"/>
<glyph unicode="5" d="M156 387h252q4 -39 20 -80t47 -73.5t79 -53t114 -20.5q43 0 92 12t91 47t68.5 97.5t26.5 162.5q0 106 -32.5 166t-76.5 88.5t-89.5 34.5t-69.5 6q-27 0 -59.5 -5t-66.5 -17.5t-64.5 -36t-51.5 -60.5h-248l99 779h837v-217h-645l-47 -332q8 8 30.5 26.5t60.5 36t93.5 30.5 t131.5 13q102 0 188 -32.5t147.5 -97t95 -160t33.5 -220.5t-33.5 -213t-86 -146.5t-118 -91t-128 -49t-114.5 -20.5t-81 -4q-141 0 -234 42t-148.5 105.5t-80 139t-32.5 143.5z"/>
<glyph unicode="6" d="M96 637q0 276 54.5 442t139.5 254t185 116t193 28q117 0 201.5 -32t143 -83t91.5 -117.5t43 -136.5h-252q-12 51 -39 82t-58.5 46t-66.5 19.5t-63 4.5q-39 0 -90.5 -12.5t-98.5 -54.5t-83 -125t-42 -224h4q16 23 41 46t64 41.5t92 30t127 11.5q219 0 347 -128t128 -368 q0 -123 -37 -219t-106.5 -163.5t-166.5 -102.5t-220 -35q-121 0 -207 31.5t-144.5 85t-94.5 123t-54 145.5t-24.5 151.5t-6.5 143.5zM362 465q0 -47 10.5 -98.5t39 -94.5t80 -70.5t135.5 -27.5q70 0 120 22.5t82.5 62.5t47 93.5t14.5 112.5t-14.5 112.5t-47 93.5t-83 62.5 t-119.5 22.5q-84 0 -135.5 -29t-80 -72t-39 -94t-10.5 -96z"/>
<glyph unicode="7" d="M72 1217v217h1106v-181q-72 -74 -130.5 -145.5t-105.5 -146t-88 -153.5t-78 -167q-37 -84 -61.5 -157.5t-42 -148.5t-28.5 -156t-19 -179h-275q18 145 63.5 304t104.5 300q55 125 152.5 281.5t267.5 331.5h-866z"/>
<glyph unicode="8" d="M123 401q0 94 23.5 159t59.5 108t75.5 66.5t74.5 33.5q-88 39 -139 119t-51 196q0 66 18.5 135.5t68.5 127t140 94.5t232 37q141 0 231 -37t140.5 -94.5t68.5 -127t18 -135.5q0 -117 -51 -196.5t-139 -118.5q33 -10 74 -33.5t75.5 -66.5t59 -107.5t24.5 -159.5 q0 -145 -52 -232t-129 -134t-164 -62.5t-156 -15.5q-70 0 -157 15.5t-164 62.5t-129 134t-52 232zM389 414q0 -43 12.5 -86t41 -77t72.5 -55.5t110 -21.5q63 0 108 21.5t74 55.5t41 77t12 86q0 37 -10 77.5t-37 76.5t-73 59.5t-115 23.5q-72 0 -117 -23.5t-71.5 -59.5 t-37 -76.5t-10.5 -77.5zM412 1067q0 -31 9 -66.5t33.5 -64.5t66 -48.5t104.5 -19.5t104 19.5t65.5 48.5t34 64.5t9.5 66.5q0 20 -6.5 53t-29 63.5t-64.5 53.5t-113 23q-72 0 -114 -23t-64.5 -53.5t-28.5 -63.5t-6 -53z"/>
<glyph unicode="9" d="M92 956q0 123 37 219.5t106.5 164t167 102.5t220.5 35q121 0 206.5 -32t144 -85t94.5 -123t54.5 -145.5t24.5 -151.5t6 -143q0 -276 -54.5 -442.5t-137 -254.5t-184 -115.5t-195.5 -27.5q-117 0 -202 31.5t-143.5 83t-91 118t-43.5 136.5h252q12 -51 39 -82t58.5 -46.5 t66.5 -19.5t64 -4q39 0 90 12.5t98 54.5t83 125t42 224h-4q-16 -23 -41 -46.5t-63.5 -42t-92 -29.5t-127.5 -11q-219 0 -347 128t-128 367zM358 969q0 -59 14.5 -112.5t47.5 -93.5t82 -62.5t121 -22.5q84 0 135 27.5t79.5 70.5t39 94.5t10.5 98.5q0 45 -10.5 96t-39 94 t-79.5 72t-135 29q-72 0 -121 -23t-82 -62.5t-47.5 -93t-14.5 -112.5z"/>
<glyph unicode=":" horiz-adv-x="704" d="M217 0v276h270v-276h-270zM217 764v276h270v-276h-270z"/>
<glyph unicode=";" horiz-adv-x="704" d="M217 0v276h270v-284q0 -88 -24.5 -146.5t-63.5 -94.5t-87 -53t-95 -22v142q59 4 98 47t39 112v23h-137zM217 764v276h270v-276h-270z"/>
<glyph unicode="&lt;" horiz-adv-x="1388" d="M123 637v127l1012 569l82 -147l-887 -486l887 -485l-82 -147z"/>
<glyph unicode="=" horiz-adv-x="1228" d="M102 414v176h1024v-176h-1024zM102 823v176h1024v-176h-1024z"/>
<glyph unicode="&gt;" horiz-adv-x="1388" d="M172 215l887 485l-887 486l82 147l1012 -569v-127l-1012 -569z"/>
<glyph unicode="?" horiz-adv-x="1179" d="M109 991q-2 70 15 155t70.5 158.5t150.5 123t253 49.5q131 0 222 -35t146.5 -91.5t80 -129t24.5 -146.5q0 -63 -16.5 -112.5t-43 -88t-62.5 -70.5t-72 -61q-57 -43 -94.5 -74.5t-60 -60t-31.5 -58.5t-9 -73v-37h-205q0 49 1 87t9.5 72t26.5 65.5t49 68.5t73 69t79 68.5 t63.5 81.5t26.5 107q0 39 -11.5 75.5t-37 64.5t-65.5 44.5t-97 16.5q-47 0 -90 -12.5t-76 -43t-52.5 -82t-15.5 -131.5h-251zM440 0v276h271v-276h-271z"/>
<glyph unicode="@" horiz-adv-x="1761" d="M123 719q0 172 58.5 311t159.5 238.5t240.5 154t301.5 54.5q195 0 337 -59.5t235 -159t138 -228.5t45 -270q0 -96 -27.5 -179t-77.5 -145.5t-120 -98.5t-156 -36q-61 0 -118.5 20.5t-79.5 67.5q-39 -59 -96.5 -79.5t-122.5 -20.5q-68 0 -131.5 22.5t-112.5 70.5t-80 125 t-31 185q0 80 20.5 153t61.5 128t105.5 89t152.5 34q53 0 109.5 -20.5t91.5 -65.5h4v57h205v-485q0 -16 1 -36t6 -37t16.5 -28.5t33.5 -11.5q25 0 56.5 13.5t59.5 47t47.5 90t19.5 140.5q0 100 -32 201.5t-102.5 184.5t-183.5 135t-274 52q-133 0 -244 -47t-188.5 -130 t-120.5 -194.5t-43 -242.5q0 -135 44 -249t121.5 -195.5t187.5 -128t243 -46.5q100 0 173.5 26t133.5 67l72 -130q-78 -47 -166 -76.5t-213 -29.5q-158 0 -296 50t-240.5 147.5t-163 239t-60.5 325.5zM700 690q0 -78 16.5 -124t41 -70.5t52.5 -31.5t50 -7q49 0 79 23.5 t44 59t18.5 75.5t4.5 75q0 82 -16.5 129t-39 71.5t-47 31t-41.5 6.5q-45 0 -75.5 -20.5t-50 -54.5t-28 -77t-8.5 -86z"/>
<glyph unicode="A" horiz-adv-x="1327" d="M-8 0l540 1434h263l540 -1434h-280l-105 301h-573l-105 -301h-280zM446 518h435l-217 637z"/>
<glyph unicode="B" horiz-adv-x="1464" d="M174 0v1434h676q137 0 222 -35t132 -88.5t64.5 -117t17.5 -122.5q0 -119 -66.5 -204t-170.5 -103v-4q45 -8 96 -28.5t96 -62.5t75 -106.5t30 -161.5q0 -135 -51.5 -215t-130.5 -121.5t-171 -53t-172 -11.5h-647zM436 217h359q59 0 110 9.5t89 33t59.5 64.5t21.5 106 q0 72 -27.5 113t-68.5 61.5t-89 25.5t-89 5h-365v-418zM436 852h346q111 0 172.5 38t61.5 132q0 72 -30 110.5t-69.5 57t-79.5 23t-61 4.5h-340v-365z"/>
<glyph unicode="C" horiz-adv-x="1501" d="M92 692q0 221 58.5 371.5t155.5 242t223 131.5t259 40q184 0 302 -50.5t185.5 -126t95.5 -164.5t32 -165h-260q-6 45 -24.5 95t-58.5 93t-105.5 72t-166.5 29q-121 0 -200.5 -45.5t-126.5 -122t-67.5 -178t-20.5 -212.5q0 -127 32.5 -225t91 -165.5t140.5 -102.5t178 -35 q88 0 152.5 27.5t107.5 72.5t63.5 101.5t24.5 113.5h260q-8 -82 -37.5 -175t-98 -173t-185.5 -132t-299 -52q-27 0 -90.5 4t-143.5 25.5t-163.5 66.5t-153.5 126t-115 206t-45 307z"/>
<glyph unicode="D" horiz-adv-x="1527" d="M174 0v1434h569q147 0 256 -32t186 -85t126 -124t76.5 -150.5t38 -162.5t10.5 -159q0 -162 -35 -278.5t-93.5 -196.5t-135 -128t-159.5 -75t-166 -35t-155 -8h-518zM436 217h244q33 0 80 4t99 19.5t105.5 47t95.5 87t68.5 138.5t26.5 204q0 111 -21.5 190.5t-56.5 135 t-80 90t-93 53t-96 25t-87 6.5h-285v-1000z"/>
<glyph unicode="E" horiz-adv-x="1306" d="M174 0v1434h1075v-217h-813v-373h729v-217h-729v-410h836v-217h-1098z"/>
<glyph unicode="F" horiz-adv-x="1216" d="M174 0v1434h1016v-217h-754v-394h649v-217h-649v-606h-262z"/>
<glyph unicode="G" horiz-adv-x="1548" d="M92 692q0 168 34 292t91 211t130 141.5t152 86t155.5 43t142.5 11.5q184 0 300.5 -48.5t184.5 -120t96.5 -156.5t34.5 -161h-260q-6 41 -24.5 88t-59.5 87t-107.5 67t-164.5 27q-137 0 -220 -56.5t-128.5 -139.5t-60.5 -181.5t-15 -180.5q0 -160 45 -262t112.5 -161.5 t144.5 -82t140 -22.5q47 0 111.5 14.5t123 54.5t100.5 113.5t44 194.5h-350v217h586v-768h-189v195h-4q-57 -111 -165.5 -174.5t-278.5 -63.5q-125 0 -250 36t-225.5 121t-163 226t-62.5 352z"/>
<glyph unicode="H" horiz-adv-x="1511" d="M174 0v1434h262v-574h639v574h262v-1434h-262v643h-639v-643h-262z"/>
<glyph unicode="I" horiz-adv-x="610" d="M174 0v1434h262v-1434h-262z"/>
<glyph unicode="J" horiz-adv-x="1128" d="M47 418v80h262v-60q0 -92 21.5 -144t54.5 -79t68.5 -34t64.5 -7q39 0 76 8t64.5 39t44 90.5t16.5 163.5v959h262v-926q0 -90 -11.5 -187.5t-57.5 -178.5t-139 -133t-257 -52q-143 0 -234.5 42t-143.5 108.5t-71.5 148.5t-19.5 162z"/>
<glyph unicode="K" horiz-adv-x="1445" d="M174 0v1434h262v-646l627 646h352l-594 -594l633 -840h-352l-473 664l-193 -187v-477h-262z"/>
<glyph unicode="L" horiz-adv-x="1122" d="M174 0v1434h262v-1217h699v-217h-961z"/>
<glyph unicode="M" horiz-adv-x="1912" d="M174 0v1434h391l391 -1088l392 1088h391v-1434h-262v1079l4 56h-4l-422 -1135h-197l-422 1135h-4l4 -56v-1079h-262z"/>
<glyph unicode="N" horiz-adv-x="1576" d="M174 0v1434h279l688 -1018v1018h262v-1434h-279l-688 1018v-1018h-262z"/>
<glyph unicode="O" horiz-adv-x="1589" d="M92 717q0 186 43 314t110.5 213t150.5 132t161 68.5t142.5 27t95.5 5.5t95 -5.5t142 -27t161 -68.5t150.5 -132t110.5 -213t43 -314t-43 -314.5t-110.5 -213.5t-150.5 -132t-161 -68.5t-142.5 -26.5t-94.5 -5q-31 0 -95.5 5t-142.5 26.5t-161 68.5t-150.5 132t-110.5 213 t-43 315zM373 717q0 -84 16.5 -178.5t62.5 -176t128 -135t215 -53.5t215 53.5t128 135t62.5 176t16.5 178.5q0 82 -16.5 177t-62.5 177t-128 135.5t-215 53.5t-215 -53.5t-128 -135.5t-62.5 -177t-16.5 -177z"/>
<glyph unicode="P" horiz-adv-x="1368" d="M174 0v1434h571q84 0 182.5 -12.5t181.5 -57.5t138.5 -133t55.5 -242q0 -98 -30 -182t-95.5 -145.5t-172 -97.5t-262.5 -36h-307v-528h-262zM436 745h305q45 0 96.5 6.5t94.5 29t71.5 69.5t28.5 127q0 86 -30.5 134t-75.5 71.5t-95.5 29t-87.5 5.5h-307v-472z"/>
<glyph unicode="Q" horiz-adv-x="1589" d="M92 717q0 186 43 314t110.5 213t150.5 132t161 68.5t142.5 27t95.5 5.5q29 0 92 -5.5t141 -27t161 -68.5t151.5 -132t112.5 -213t44 -314q0 -66 -8 -141.5t-31.5 -152.5t-63.5 -149.5t-104 -130.5l148 -188l-142 -127l-163 207q-18 -12 -47 -25.5t-69 -25t-95.5 -19.5 t-126.5 -8q-31 0 -95.5 5t-142.5 27.5t-161 69.5t-150.5 131t-110.5 212t-43 315zM373 717q0 -82 16.5 -177.5t62.5 -176t128 -135t215 -54.5q88 0 132 18.5t60 30.5l-158 199l152 119l147 -189q12 18 26.5 49t29 76t24 104.5t9.5 135.5q0 82 -16.5 177t-62.5 177 t-128 135.5t-215 53.5t-215 -53.5t-128 -135.5t-62.5 -177t-16.5 -177z"/>
<glyph unicode="R" horiz-adv-x="1449" d="M174 0v1434h641q66 0 155 -9.5t170 -49.5t137 -119.5t56 -221.5q0 -80 -21.5 -139t-55 -102t-76.5 -69t-86 -38v-4q76 -25 118.5 -68t62 -95t25 -106.5t5.5 -103.5q0 -72 1 -120t6 -81.5t15 -58t31 -49.5h-271q-16 25 -24 48.5t-13.5 56t-6.5 78.5t-1 116q0 49 -6 97 t-35.5 87t-90 62.5t-171.5 23.5h-303v-569h-262zM436 786h328q49 0 102.5 6.5t97.5 29t71.5 64.5t27.5 115q0 78 -31 121t-76 64.5t-96 26t-90 4.5h-334v-431z"/>
<glyph unicode="S" horiz-adv-x="1400" d="M92 461h260q2 -41 18.5 -91.5t57.5 -93.5t112.5 -72.5t184.5 -29.5q37 0 88 5t99.5 26.5t82 64.5t33.5 119q0 63 -27.5 104.5t-67.5 65t-84 34.5t-79 17q-43 8 -85 16.5t-83 18.5q-88 20 -168 46t-141.5 72t-98 116.5t-36.5 179.5q0 100 33.5 170.5t86 118t118 73 t128 37.5t115.5 15.5t82 3.5q141 0 243.5 -35t169 -93.5t101.5 -135t41 -158.5h-260q-10 76 -47 116.5t-84 60t-94.5 24t-75.5 4.5q-14 0 -59.5 -3.5t-93.5 -20.5t-86 -56t-38 -111q0 -55 28 -90t73 -56.5t102 -33.5t117 -23q125 -23 226 -51.5t173 -77.5t112 -125.5 t40 -195.5q0 -152 -59.5 -243t-149.5 -139t-195.5 -62.5t-195.5 -14.5q-184 0 -302 47t-187.5 120t-97.5 162t-30 175z"/>
<glyph unicode="T" horiz-adv-x="1216" d="M27 1217v217h1163v-217h-451v-1217h-262v1217h-450z"/>
<glyph unicode="U" horiz-adv-x="1478" d="M147 551v883h263v-842q0 -215 72.5 -316.5t256.5 -101.5t257 101.5t73 316.5v842h262v-883q0 -57 -5 -124t-25.5 -133.5t-58.5 -127t-104.5 -107.5t-163.5 -74.5t-235 -27.5q-137 0 -234 27.5t-164 74.5t-104.5 107.5t-58 127t-26 133.5t-5.5 124z"/>
<glyph unicode="V" horiz-adv-x="1273" d="M-8 1434h284l361 -1162l360 1162h285l-494 -1434h-303z"/>
<glyph unicode="W" horiz-adv-x="1933" d="M-8 1434h295l280 -1131l252 1131h295l252 -1131l281 1131h295l-390 -1434h-331l-254 1124l-254 -1124h-332z"/>
<glyph unicode="X" horiz-adv-x="1363" d="M0 0l518 733l-481 701h328l317 -519l317 519h328l-481 -701l518 -733h-338l-344 553l-344 -553h-338z"/>
<glyph unicode="Y" horiz-adv-x="1298" d="M-8 1434h309l348 -629l348 629h310l-527 -863v-571h-262v571z"/>
<glyph unicode="Z" horiz-adv-x="1255" d="M53 0v233l774 984h-735v217h1065v-201l-774 -1016h819v-217h-1149z"/>
<glyph unicode="[" horiz-adv-x="796" d="M217 -379v1813h471v-168h-229v-1477h229v-168h-471z"/>
<glyph unicode="\" horiz-adv-x="913" d="M0 1434h180l733 -1813h-180z"/>
<glyph unicode="]" horiz-adv-x="796" d="M109 -211h229v1477h-229v168h471v-1813h-471v168z"/>
<glyph unicode="^" horiz-adv-x="987" d="M102 987l260 447h263l260 -447h-197l-194 344l-195 -344h-197z"/>
<glyph unicode="_" horiz-adv-x="1011" d="M0 -203h1012v-176h-1012v176z"/>
<glyph unicode="`" horiz-adv-x="696" d="M90 1434h266l144 -271h-185z"/>
<glyph unicode="a" horiz-adv-x="1181" d="M76 276q0 82 30.5 135.5t71.5 87t80 49t57 19.5q59 16 118 22.5t124 16.5q25 4 50.5 7t49.5 8q33 4 55.5 8t38 14t22.5 30.5t7 59.5q0 61 -20.5 97t-51 54.5t-65.5 23.5t-65 5q-68 0 -115 -16t-76 -44q-29 -29 -41 -63q-10 -30 -10 -60v-11h-234v10q0 67 25 127 q27 66 84 116t147.5 79.5t219.5 29.5q158 0 247.5 -40t134 -98t55.5 -121.5t11 -108.5v-416q0 -37 2 -62.5t11.5 -41t26.5 -20.5t50 -3v-170q-47 -4 -69.5 -5t-38.5 -1q-25 0 -55.5 3t-61.5 16.5t-54.5 41t-31.5 74.5q-68 -86 -155 -120t-191 -34q-135 0 -212 35t-115 83 t-47 99.5t-9 83.5zM330 285q0 -59 38 -100.5t124 -41.5q45 0 96 12.5t94 46.5t70.5 96t27.5 165v37q-20 -14 -54 -23.5t-122 -19.5q-63 -8 -113.5 -17.5t-86 -27t-55 -47t-19.5 -80.5z"/>
<glyph unicode="b" horiz-adv-x="1302" d="M147 0v1434h246v-500q31 55 82 85t102.5 44t92.5 16t51 2q154 0 250 -57t150.5 -143t73.5 -185.5t19 -181.5q0 -152 -45 -257t-116.5 -172t-160.5 -96.5t-179 -29.5q-41 0 -85 6t-88 22.5t-86 44t-77 70.5h-4v-102h-226zM375 518q0 -176 70.5 -283.5t205.5 -107.5 q41 0 93.5 13.5t98.5 54.5t77.5 116.5t31.5 200.5q0 111 -24.5 187.5t-64.5 123.5t-93 68.5t-108 21.5q-41 0 -91.5 -14t-93.5 -56t-72.5 -120t-29.5 -205z"/>
<glyph unicode="c" horiz-adv-x="1175" d="M88 518q0 133 28.5 226.5t75 156t103.5 99t113.5 54t107.5 22.5t86 5q119 0 209 -32.5t150.5 -86t94.5 -123t42 -145.5h-234q-4 41 -20.5 80t-47 69.5t-74.5 50t-106 19.5q-76 0 -127 -31.5t-81.5 -86t-44 -126t-13.5 -151.5q0 -123 28 -198.5t68.5 -118.5t91 -58.5 t93.5 -15.5q68 0 112.5 26.5t72.5 64.5t39 82t13 81h234q-6 -57 -29.5 -130t-79 -137.5t-147.5 -109.5t-236 -45q-133 0 -231 41t-162.5 114.5t-96.5 177t-32 226.5z"/>
<glyph unicode="d" horiz-adv-x="1302" d="M88 514q0 111 27.5 213t88 181t154 126t224.5 47q10 0 51 -2t92 -16t102.5 -44t81.5 -85v500h246v-1434h-225v102h-4q-37 -47 -83 -74.5t-91 -43t-88 -20.5t-74 -5q-92 0 -181.5 29.5t-161 96.5t-115.5 172t-44 257zM350 512q0 -131 34 -207t81 -115.5t97 -51t81 -11.5 q66 0 119 28.5t90 81t56.5 124t19.5 157.5q0 127 -30 205t-74 120t-94 56t-89 14q-55 0 -108.5 -21.5t-93.5 -68.5t-64.5 -123.5t-24.5 -187.5z"/>
<glyph unicode="e" horiz-adv-x="1216" d="M88 502q0 131 33 238.5t98.5 183t164.5 116.5t234 41q113 0 194 -27.5t136.5 -73.5t89 -104.5t53 -122t26.5 -125t9 -112.5q0 -16 1 -29.5t1 -29.5h-778q0 -49 13.5 -107.5t47 -107.5t89 -82t137.5 -33q41 0 82 11.5t74.5 33t56 54t29.5 75.5h233q-10 -51 -35.5 -110.5 t-82 -110.5t-147.5 -86t-231 -35q-27 0 -75.5 4t-107 20.5t-120 50.5t-111.5 94t-82 151.5t-32 222.5zM350 625h518q0 35 -9 85t-34.5 95t-75 76.5t-128.5 31.5q-72 0 -124.5 -26.5t-84.5 -67.5t-48 -92q-14 -45 -14 -90v-12z"/>
<glyph unicode="f" horiz-adv-x="727" d="M27 872v168h192v131q0 47 9.5 95.5t42 88.5t97 64.5t173.5 24.5q49 0 87 -3t72 -7v-168q-16 2 -43.5 3t-52.5 1q-53 0 -81.5 -15.5t-41 -37t-14.5 -44t-2 -34.5v-99h235v-168h-235v-872h-246v872h-192z"/>
<glyph unicode="g" horiz-adv-x="1310" d="M96 526q0 152 44 257.5t116 172t161 96t181 29.5q31 0 74 -5t88 -20.5t91 -44t83 -73.5h4v102h225v-993q0 -217 -139 -329.5t-387 -112.5q-190 0 -311 69.5t-144 225.5h226q8 -37 33.5 -60.5t59.5 -37t72.5 -19.5t73.5 -6q94 0 148.5 28.5t82 70.5t34 89t6.5 86v80 q-31 -55 -82.5 -85t-102.5 -44t-92 -16t-51 -2q-131 0 -224.5 45t-153.5 119.5t-88 173t-28 204.5zM358 524q0 -127 34 -201.5t80 -112.5t96 -48t83 -10q53 0 104.5 22.5t91.5 68.5t64.5 117.5t24.5 169.5q0 106 -24.5 180t-64.5 119t-91 64.5t-107 19.5q-137 0 -214 -102.5 t-77 -286.5z"/>
<glyph unicode="h" horiz-adv-x="1241" d="M147 0v1434h246v-531q27 45 67 79t86 55.5t95 32.5t94 11q133 0 206 -49t106.5 -114.5t40 -129t6.5 -92.5v-696h-246v618q0 47 -3 99.5t-21.5 95.5t-58.5 71.5t-112 28.5q-25 0 -68.5 -9t-86.5 -43t-74 -99.5t-31 -179.5v-582h-246z"/>
<glyph unicode="i" horiz-adv-x="540" d="M147 0v1040h246v-1040h-246zM147 1217v217h246v-217h-246z"/>
<glyph unicode="j" horiz-adv-x="540" d="M-39 -211q100 2 143 37t43 133v1081h246v-1095q0 -68 -9 -128.5t-39 -105.5t-88 -71.5t-157 -26.5q-27 0 -67.5 2t-71.5 6v168zM147 1217v217h246v-217h-246z"/>
<glyph unicode="k" horiz-adv-x="1155" d="M147 0v1434h246v-850l434 456h291l-405 -405l450 -635h-286l-334 485l-150 -151v-334h-246z"/>
<glyph unicode="l" horiz-adv-x="540" d="M147 0v1434h246v-1434h-246z"/>
<glyph unicode="m" horiz-adv-x="1875" d="M147 0v1040h246v-129q25 43 62 76t81 53.5t91 30.5t90 10q109 0 180.5 -41t112.5 -147q57 92 154.5 140t215.5 48q117 0 186.5 -42t105.5 -105.5t46.5 -139t10.5 -141.5v-653h-246v639q0 49 -5 97t-23.5 88t-54.5 64.5t-97 24.5q-41 0 -83 -15t-78 -51t-58.5 -93.5 t-22.5 -141.5v-612h-246v639q0 49 -5 97t-23.5 88t-54.5 64.5t-97 24.5q-41 0 -83 -15t-78 -51t-58.5 -93.5t-22.5 -141.5v-612h-246z"/>
<glyph unicode="n" horiz-adv-x="1241" d="M147 0v1040h246v-137q27 45 67 79t86 55.5t95 32.5t94 11q133 0 206 -49t106.5 -114.5t40 -129t6.5 -92.5v-696h-246v618q0 47 -3 99.5t-21.5 95.5t-58.5 71.5t-112 28.5q-25 0 -68.5 -9t-86.5 -43t-74 -99.5t-31 -179.5v-582h-246z"/>
<glyph unicode="o" d="M88 520q0 49 9 110.5t32 124t61.5 121t98 104.5t142.5 73.5t194 27.5t193.5 -27.5t142 -73.5t98.5 -104.5t61.5 -121t31.5 -124t9 -110.5t-9 -110.5t-31.5 -124t-61.5 -121t-98.5 -104.5t-142.5 -73.5t-193 -27.5q-111 0 -194 27.5t-142.5 73.5t-98 104.5t-61.5 121 t-32 123t-9 111.5zM350 520q0 -133 31 -212t74 -118.5t90 -51t80 -11.5t80 11.5t90 51t73.5 118.5t30.5 212t-30.5 212t-73.5 119t-90 51t-80 11t-80 -11t-90 -51t-74 -119t-31 -212z"/>
<glyph unicode="p" horiz-adv-x="1302" d="M147 -379v1419h226v-102h4q35 43 77 70.5t86 44t88 22.5t85 6q90 0 179 -29.5t160.5 -96t116.5 -172t45 -257.5q0 -82 -19 -181t-73.5 -185t-151 -143.5t-249.5 -57.5q-10 0 -51 2t-92.5 16.5t-102.5 44t-82 84.5v-485h-246zM375 518q0 -176 70.5 -283.5t205.5 -107.5 q41 0 93.5 13.5t98.5 54.5t77.5 116.5t31.5 200.5q0 111 -24.5 187.5t-64.5 123.5t-93 68.5t-108 21.5q-41 0 -91.5 -14t-93.5 -56t-72.5 -120t-29.5 -205z"/>
<glyph unicode="q" horiz-adv-x="1302" d="M88 526q0 152 44 257.5t115.5 172t161 96t181.5 29.5q31 0 74 -5t88 -20.5t91 -44t83 -73.5h4v102h225v-1419h-246v485q-31 -55 -82 -84.5t-102 -44t-92 -16.5t-51 -2q-131 0 -224.5 47t-154 126t-88 181.5t-27.5 212.5zM350 512q0 -131 34 -207t81 -115.5t97 -51 t81 -11.5q66 0 119 28.5t90 81t56.5 124t19.5 157.5q0 127 -30 205t-74 120t-94 56t-89 14q-55 0 -108.5 -21.5t-93.5 -68.5t-64.5 -123.5t-24.5 -187.5z"/>
<glyph unicode="r" horiz-adv-x="823" d="M147 0v1040h246v-190h4q27 66 70 106.5t92 64t100.5 32t94.5 8.5h41v-160h-15q-111 1 -183 -27q-77 -30 -120 -78t-60.5 -108.5t-21.5 -116.5q-2 -27 -2 -53v-53v-465h-246z"/>
<glyph unicode="s" horiz-adv-x="1105" d="M74 317h245q0 -53 23 -88.5t57.5 -58.5t78.5 -33t85 -10q35 0 72 6t67.5 24.5t51 51.5t20.5 86q0 68 -44 98.5t-148 48.5q-29 4 -56.5 9.5t-56.5 9.5q-86 14 -149.5 37.5t-105.5 58.5t-63.5 86t-21.5 125q0 102 47 164.5t114.5 95.5t142.5 43t130 10q125 0 210 -25.5 t136.5 -68.5t73 -101.5t23.5 -121.5h-232q-6 70 -59 109.5t-144 39.5q-76 0 -132 -26.5t-56 -102.5q0 -49 22.5 -77.5t60.5 -45t86 -25.5t99 -18q57 -10 124 -22t124 -44t95 -89t38 -154q0 -96 -39 -162.5t-103.5 -107.5t-147.5 -60.5t-171 -19.5q-145 0 -240 34t-150.5 87 t-79 115.5t-27.5 121.5z"/>
<glyph unicode="t" horiz-adv-x="700" d="M29 872v168h168v312h245v-312h217v-168h-217v-587q0 -27 2 -50.5t13.5 -41t36 -27.5t69.5 -10q31 0 53.5 3t42.5 9v-168q-92 -25 -200 -25q-96 0 -149.5 26t-78 60.5t-29.5 73.5t-5 68v669h-168z"/>
<glyph unicode="u" horiz-adv-x="1241" d="M147 344v696h246v-618q0 -45 4 -96.5t22.5 -95.5t57.5 -73.5t111 -29.5q96 0 149.5 45t78 102.5t28.5 111.5t4 73v581h246v-1040h-246v137h-4q-51 -92 -148.5 -135t-197.5 -43q-86 0 -145.5 22.5t-98.5 59.5t-60.5 81t-31.5 87t-12.5 79t-2.5 56z"/>
<glyph unicode="v" horiz-adv-x="1032" d="M-8 1040h262l262 -798l262 798h262l-381 -1040h-286z"/>
<glyph unicode="w" horiz-adv-x="1579" d="M-8 1040h256l244 -761l184 761h229l182 -761l244 761h256l-362 -1040h-250l-184 760l-187 -760h-250z"/>
<glyph unicode="x" horiz-adv-x="1067" d="M0 0l397 543l-372 497h268l242 -350l241 350h268l-374 -497l397 -543h-262l-270 387l-271 -387h-264z"/>
<glyph unicode="y" horiz-adv-x="1107" d="M14 1040h295l314 -774l239 774h246l-397 -1130q-12 -35 -32 -86t-56.5 -98.5t-97 -80t-156.5 -32.5q-35 0 -76 3t-78 9v168q18 -4 42 -8t52 -4q72 0 104.5 40t59.5 132l14 49z"/>
<glyph unicode="z" horiz-adv-x="1003" d="M53 0v168l576 704h-535v168h821v-168l-575 -704h610v-168h-897z"/>
<glyph unicode="{" horiz-adv-x="749" d="M154 440v172q61 8 98 38t55.5 68t23.5 80t5 72q0 33 -1 51.5t-3 38t-3 48t-1 82.5q0 117 37.5 184t89 102t105.5 46.5t87 11.5v-136q-37 -16 -55.5 -45.5t-24.5 -66.5t-4 -79t6 -85q4 -29 6.5 -58.5t2.5 -58.5q0 -82 -21.5 -143.5t-57.5 -107.5t-85 -76.5t-105 -49.5v-4 q109 -37 165 -96t78.5 -128t22.5 -140q0 -70 -6 -129q-4 -43 -6 -85t4 -79t24.5 -66.5t55.5 -46.5v-135q-33 0 -87 10.5t-105.5 46t-89 103t-37.5 184.5q0 53 1 82t3 48.5t3 38t1 50.5q0 31 -5 73t-23.5 80t-55.5 67.5t-98 37.5z"/>
<glyph unicode="|" horiz-adv-x="1019" d="M426 -459v2157h168v-2157h-168z"/>
<glyph unicode="}" horiz-adv-x="749" d="M102 -246q37 16 55.5 46t24.5 67t4 79t-6 85q-4 29 -6 58.5t-2 57.5q0 82 21.5 143.5t57.5 107.5t85 77t104 49v4q-109 37 -165 96.5t-78.5 128t-22.5 138.5q0 72 6 131q4 43 6 85t-4 79t-24.5 66.5t-55.5 45.5v136q33 0 87.5 -11.5t105.5 -46.5t89 -102.5t38 -183.5 q0 -53 -1 -82t-3 -48.5t-3 -38t-1 -51.5q0 -31 5 -72.5t23.5 -79.5t55.5 -67.5t98 -38.5v-172q-61 -8 -98 -37.5t-55.5 -67.5t-23.5 -80t-5 -73q0 -33 1 -51t3 -37.5t3 -48.5t1 -82q0 -117 -38 -184.5t-89 -103t-105.5 -46t-87.5 -10.5v135z"/>
<glyph unicode="~" horiz-adv-x="1257" d="M102 608q33 96 71 153.5t77 88.5t74.5 40t64.5 9q47 0 96.5 -12.5t87.5 -34.5l211 -113q51 -27 103 -26q18 0 40.5 7t46 25.5t46 52t41.5 87.5l94 -39q-20 -59 -47 -111.5t-61.5 -92.5t-78.5 -63.5t-100 -23.5q-43 0 -94 12.5t-90 34.5l-211 113q-47 27 -106 26 q-33 0 -59.5 -14t-48 -38.5t-37 -55.5t-25.5 -64z"/>
<glyph unicode="¡" horiz-adv-x="704" d="M217 90l70 494h131l69 -494v-469h-270v469zM217 764v276h270v-276h-270z"/>
<glyph unicode="¢" d="M125 518q0 178 50 287.5t123 170t152.5 81t139.5 22.5v138h137v-140q68 -8 135.5 -33.5t124.5 -72.5t97 -116t51 -161h-234q-4 33 -16.5 67t-34 62.5t-52 51t-71.5 30.5v-772q53 12 88 42t54.5 67t27.5 74.5t8 64.5h234q-8 -74 -37 -145.5t-79 -129t-124 -96.5t-172 -47 v-151h-137v149q-82 2 -165 33t-149.5 97.5t-108.5 171t-42 255.5zM387 518q0 -113 23.5 -184.5t56.5 -112.5t67.5 -59.5t55.5 -24.5v768q-57 -12 -96 -48t-62.5 -88t-34 -116.5t-10.5 -134.5z"/>
<glyph unicode="£" d="M78 600v168h153q-43 61 -59 132t-16 124q0 90 28.5 172t91 144.5t161 99.5t237.5 37q231 0 359 -118t128 -351v-37h-229v33q0 86 -19.5 144t-53.5 94t-81 51.5t-102 15.5q-70 0 -119 -26t-80 -65.5t-45 -88t-14 -93.5q0 -70 25.5 -128t60.5 -140h266v-168h-201 q4 -16 5 -38.5t1 -45.5q0 -80 -41.5 -148.5t-95.5 -115.5l4 -8q25 12 55.5 17t77.5 5q49 0 88 -8t89 -31q29 -14 65.5 -31.5t81.5 -17.5q51 0 93 27.5t81 81.5l125 -172q-86 -92 -160.5 -125t-144.5 -33q-84 0 -145.5 23.5t-110.5 46.5q-41 16 -82 28.5t-90 12.5 q-57 0 -113.5 -18.5t-118.5 -59.5l-120 178q76 49 118.5 96t64 89t26 78t4.5 65q0 51 -10.5 73.5t-14.5 30.5h-223z"/>
<glyph unicode="¤" d="M-76 100l228 228q-59 86 -84 175t-25 173t22.5 174t86.5 174l-228 227l125 125l227 -227q88 68 179.5 92.5t169.5 24.5q74 0 132 -13.5t100 -32t70.5 -38t45.5 -33.5l227 227l125 -125l-227 -227q63 -84 87.5 -174t24.5 -174q0 -82 -25.5 -172t-86.5 -176l227 -228 l-125 -125l-227 228q-16 -12 -44 -32.5t-71 -39t-101.5 -32t-133.5 -13.5q-74 0 -131.5 12.5t-99.5 30.5t-70.5 38.5t-45.5 35.5l-227 -228zM254 676q0 -78 28.5 -145.5t79 -118t118 -79t145.5 -28.5t145.5 28.5t117.5 79t78.5 118t28.5 145.5t-28.5 145.5t-78.5 117.5 t-118 79t-145 29q-78 0 -145.5 -29t-118 -79t-79 -117.5t-28.5 -145.5z"/>
<glyph unicode="¥" d="M57 1434h310l305 -629l305 629h309l-483 -863v-8h205v-110h-205v-107h205v-110h-205v-236h-262v236h-205v110h205v107h-205v110h205v8z"/>
<glyph unicode="¦" horiz-adv-x="1019" d="M426 422h168v-881h-168v881zM426 817v881h168v-881h-168z"/>
<glyph unicode="§" horiz-adv-x="1196" d="M131 645q0 111 55.5 196t159.5 113q-29 29 -56.5 79t-27.5 132q0 61 19.5 118.5t62.5 102t111.5 71t167.5 26.5q20 0 76.5 -6.5t113.5 -38t101 -101t40 -196.5h-204q2 55 -9.5 89t-30 53.5t-41 25.5t-42.5 6q-37 0 -59.5 -13.5t-36 -32t-18.5 -40t-5 -37.5 q0 -43 19.5 -75t50 -56.5t68.5 -43t77 -36.5q57 -29 117.5 -58.5t110.5 -74.5t82 -110.5t32 -164.5q0 -90 -27.5 -150.5t-65.5 -98t-77 -58t-61 -28.5q6 -4 25.5 -17.5t40 -40t35.5 -67.5t15 -103q0 -61 -21.5 -117.5t-67.5 -100.5t-120.5 -70.5t-179.5 -26.5 q-117 0 -187.5 40t-107.5 97t-48 120.5t-11 113.5h205q-4 -37 2 -73t24.5 -64.5t47 -47t71.5 -18.5q25 0 50.5 7t47 22.5t36 39t14.5 58.5q0 45 -18.5 76.5t-47.5 55t-66.5 40t-74.5 33.5q-76 33 -142.5 72.5t-117 92t-79 122t-28.5 163.5zM393 649q0 -47 13.5 -80.5 t32 -57.5t40 -39t37.5 -23l174 -101q4 2 22.5 12.5t38 32t36 54t16.5 79.5q0 43 -10.5 74t-27.5 53.5t-40 39t-47 28.5l-178 100q-35 -16 -71 -56t-36 -116z"/>
<glyph unicode="¨" horiz-adv-x="831" d="M102 1217v217h238v-217h-238zM492 1217v217h237v-217h-237z"/>
<glyph unicode="©" horiz-adv-x="1638" d="M102 717q0 147 55.5 277t153 228.5t227.5 155t281 56.5q147 0 277.5 -56.5t228.5 -154t154.5 -227.5t56.5 -279q0 -150 -56.5 -280t-154.5 -227t-228 -153.5t-278 -56.5q-152 0 -281.5 56.5t-227 154.5t-153 228.5t-55.5 277.5zM266 717q0 -117 43 -221.5t118 -183.5 t175 -124t217 -45q113 0 212 45t175 122t120 181.5t44 225.5q0 119 -44 224.5t-120 182t-175 121.5t-212 45q-117 0 -217 -45t-175 -124t-118 -183t-43 -221zM479 719q0 117 33 191.5t82 117.5t109.5 59.5t115.5 16.5q80 0 132.5 -22.5t84 -58.5t45 -77t17.5 -78h-156 q0 43 -31.5 76t-91.5 33q-70 0 -115 -59.5t-45 -198.5q0 -86 19.5 -135t47.5 -72t56.5 -28t46.5 -5q8 0 28 2t40.5 14.5t36.5 39t18 73.5h164q-4 -41 -19.5 -86t-48 -83t-87 -62.5t-134.5 -24.5q-88 0 -153.5 28t-108.5 76t-64.5 115.5t-21.5 147.5z"/>
<glyph unicode="ª" horiz-adv-x="819" d="M92 635v90h635v-90h-635zM104 1004q0 55 18.5 88.5t54.5 55t87 33t117 19.5q27 2 53.5 4t48 7.5t34.5 15.5t15 30v17q0 8 -2 23.5t-14 30.5t-38.5 26.5t-76.5 11.5q-84 0 -117.5 -33t-31.5 -73h-127q0 33 11 70.5t42 70.5t85 54.5t140 21.5q96 0 148.5 -23.5t77 -56.5 t30 -70t5.5 -61v-254q0 -35 8 -56.5t55 -17.5v-111q-10 -2 -19.5 -3t-19.5 -3t-22 -2h-21q-27 0 -59.5 14.5t-36.5 71.5q-39 -49 -95.5 -67.5t-125.5 -18.5q-35 0 -75 6t-73 26.5t-54.5 56.5t-21.5 96zM240 1008q0 -29 12 -44.5t29.5 -22.5t38 -9t36.5 -2q8 0 37 3 t59.5 19.5t55 48t24.5 91.5v38q-18 -12 -43.5 -16t-85.5 -10q-25 -4 -53 -7t-53 -12.5t-41 -28t-16 -48.5z"/>
<glyph unicode="«" horiz-adv-x="946" d="M127 440v226l305 270v-217l-194 -166l194 -166v-217zM487 440v226l306 270v-217l-195 -166l195 -166v-217z"/>
<glyph unicode="¬" horiz-adv-x="1228" d="M102 649v180h1024v-460h-184v280h-840z"/>
<glyph unicode="­" horiz-adv-x="860" d="M164 442v217h532v-217h-532z"/>
<glyph unicode="®" horiz-adv-x="1638" d="M102 717q0 147 56.5 278t154 228.5t228.5 154t278 56.5q150 0 281 -56.5t227 -154t152.5 -228.5t56.5 -278t-56.5 -278.5t-152.5 -228.5t-227 -153.5t-281 -56.5q-147 0 -278 56.5t-228.5 153.5t-154 228.5t-56.5 278.5zM266 717q0 -119 43 -223.5t119 -182.5t176.5 -123 t214.5 -45q115 0 215.5 45t175 123t117.5 182.5t43 223.5t-43 223t-117.5 182t-175 123t-215.5 45t-215 -45t-176 -123t-119 -182t-43 -223zM557 365v716h313q90 0 138.5 -26.5t71 -61.5t26.5 -69.5t4 -51.5q0 -16 -3 -39.5t-15.5 -46t-37 -44t-65.5 -33.5v-4 q35 -6 54.5 -24.5t29.5 -42.5t13.5 -51.5t5.5 -51.5q2 -41 3 -68t3 -44t7 -30.5t15 -27.5h-168q-10 12 -15 24t-7 28.5t-2 43.5t-2 67q0 20 -4 41t-19.5 37.5t-47.5 26.5t-87 10h-47v-278h-164zM721 770h123q59 0 79.5 29.5t20.5 62.5t-14.5 52.5t-33.5 27.5t-38.5 10 t-28.5 2h-108v-184z"/>
<glyph unicode="¯" horiz-adv-x="880" d="M102 1233v168h676v-168h-338h-338z"/>
<glyph unicode="°" horiz-adv-x="614" d="M102 1229q0 43 15.5 80t43 64.5t65.5 44t81 16.5t80 -16.5t64.5 -44t44 -64.5t16.5 -80t-16.5 -81t-44 -65.5t-64.5 -43t-80 -15.5t-81 15.5t-65.5 43t-43 65.5t-15.5 81zM213 1229q0 -41 26.5 -67.5t67.5 -26.5t67.5 26.5t26.5 67.5t-26.5 67.5t-67.5 26.5t-67.5 -26.5 t-26.5 -67.5z"/>
<glyph unicode="±" horiz-adv-x="1228" d="M102 164v176h1024v-176h-1024zM102 772v176h424v383h176v-383h424v-176h-424v-342h-176v342h-424z"/>
<glyph unicode="²" horiz-adv-x="761" d="M72 573q2 84 25.5 141.5t64.5 100.5t94 78t113 72q27 18 57.5 38.5t55 47t41 59.5t16.5 74q0 20 -6.5 45.5t-23.5 48t-48 39t-80 16.5q-59 0 -93 -20.5t-50.5 -47t-19.5 -54t-3 -42.5v-24h-143v26q0 47 14 98.5t50 93.5t95.5 69.5t151.5 27.5q80 0 137.5 -22.5t95 -60.5 t56 -86t18.5 -99q0 -68 -22.5 -116t-61.5 -85t-88 -67.5t-100 -63.5q-57 -35 -102.5 -67.5t-73.5 -92.5h444v-127h-614z"/>
<glyph unicode="³" horiz-adv-x="761" d="M70 850h143q0 -23 6 -52.5t23.5 -57t49.5 -47t85 -19.5q90 0 127 44t37 103q0 49 -20.5 76t-46 40t-51.5 15t-34 2h-63v131h55q82 0 112.5 40t30.5 94q0 63 -45 88.5t-100 25.5q-61 0 -100 -36.5t-43 -139.5h-144q0 55 13.5 109.5t46 97.5t89 69.5t142.5 26.5 q55 0 106.5 -13t91.5 -42t63.5 -74t23.5 -108q0 -45 -14.5 -78t-36 -55.5t-47 -36t-50.5 -21.5v-8q27 -4 57.5 -15.5t56 -36t42 -63.5t16.5 -96q0 -72 -26.5 -123t-70.5 -83t-101.5 -46t-118.5 -14q-92 0 -150.5 30.5t-92.5 76.5t-48 99.5t-14 96.5z"/>
<glyph unicode="´" horiz-adv-x="696" d="M197 1163l143 271h266l-225 -271h-184z"/>
<glyph unicode="µ" horiz-adv-x="1228" d="M174 -379v1419h246v-567q0 -31 3 -86t21.5 -108.5t57.5 -93.5t112 -40q31 0 65 12.5t63.5 47.5t48 99.5t18.5 168.5v567h246v-747q0 -18 1 -42t9 -42.5t24.5 -30.5t47.5 -10l26 2v-170q-33 -4 -79 -7t-78 -3q-31 0 -62 4t-58.5 17.5t-48 37t-28.5 64.5 q-12 -27 -29.5 -53.5t-42 -49t-56.5 -37t-73 -14.5q-61 0 -112.5 40t-75.5 93v-471h-246z"/>
<glyph unicode="¶" horiz-adv-x="1146" d="M82 1065q0 178 100.5 273.5t266.5 95.5h167v-1813h-167v1075q-84 0 -152 28t-116 77t-73.5 116.5t-25.5 147.5zM836 -379v1813h168v-1813h-168z"/>
<glyph unicode="·" horiz-adv-x="512" d="M121 410v276h270v-276h-270z"/>
<glyph unicode="¸" horiz-adv-x="655" d="M102 -475l39 125q39 -12 69 -15.5t50 -3.5q37 0 58.5 8.5t32.5 18.5t14.5 22.5t3.5 20.5q0 23 -11.5 34t-28 16t-35 6t-32.5 1h-88l37 123h94q20 0 61.5 -3t83.5 -20.5t72.5 -54t30.5 -106.5q0 -53 -22.5 -89t-61.5 -58.5t-92 -32t-113 -9.5q-29 0 -68.5 3.5t-93.5 13.5z "/>
<glyph unicode="¹" horiz-adv-x="761" d="M168 1206v86h25q98 0 147 43t59 99h117v-861h-151v633h-197z"/>
<glyph unicode="º" horiz-adv-x="798" d="M92 635v90h615v-90h-615zM92 1141q0 45 11.5 102t44 109.5t93 88.5t158.5 36t158.5 -36t93.5 -88.5t44.5 -109.5t11.5 -102t-11.5 -102.5t-44.5 -109.5t-93 -88t-159 -36q-98 0 -158.5 36t-93 88t-44 109.5t-11.5 102.5zM231 1141q0 -39 7.5 -79t26 -73t51 -53.5 t83.5 -20.5t84 20.5t51.5 53.5t25.5 73t7 79t-7 79t-25.5 72.5t-51.5 53t-84 20.5t-83.5 -20.5t-51 -53t-26 -72.5t-7.5 -79z"/>
<glyph unicode="»" horiz-adv-x="946" d="M154 170v217l192 166l-192 166v217l305 -270v-226zM514 170v217l193 166l-193 166v217l305 -270v-226z"/>
<glyph unicode="¼" horiz-adv-x="1728" d="M168 1206v86h25q98 0 147 43t59 99h117v-861h-151v633h-197zM393 0l877 1434h147l-876 -1434h-148zM1004 193v126l413 541h152v-541h123v-126h-123v-193h-152v193h-413zM1167 319h250v336z"/>
<glyph unicode="½" horiz-adv-x="1728" d="M168 1206v86h25q98 0 147 43t59 99h117v-861h-151v633h-197zM311 0l877 1434h147l-876 -1434h-148zM1038 0q2 84 25.5 141.5t64.5 100.5t94.5 77.5t112.5 71.5q27 18 57.5 39t55.5 47.5t41 59t16 73.5q0 20 -6 46t-23.5 48.5t-48 39t-79.5 16.5q-59 0 -93 -20.5 t-50.5 -47t-19.5 -54.5t-3 -42v-25h-144v27q0 47 14.5 98.5t50.5 93t95 69.5t152 28q80 0 137 -22.5t95 -60.5t56.5 -86t18.5 -100q0 -68 -22.5 -115.5t-61.5 -84.5t-88 -68t-101 -63q-57 -35 -102 -68t-74 -92h445v-127h-615z"/>
<glyph unicode="¾" horiz-adv-x="1728" d="M70 850h143q0 -16 2 -25q6 -51 25.5 -80.5t44 -45t49 -20.5t43.5 -5q90 0 127 44t37 103q0 49 -20.5 76t-46 40t-51.5 15t-34 2h-63v131h55q82 0 112.5 40t30.5 94q0 63 -45 88.5t-100 25.5q-61 0 -100 -36.5t-43 -139.5h-144q0 55 13.5 109.5t46 97.5t89 69.5 t142.5 26.5q55 0 106.5 -13t91.5 -42t63.5 -74t23.5 -108q0 -45 -14.5 -78t-36 -55.5t-47 -36t-50.5 -21.5v-8q27 -4 57.5 -15.5t56 -36t42 -63.5t16.5 -96q0 -72 -26.5 -123t-70.5 -83t-101.5 -46t-118.5 -14q-72 0 -125 20.5t-90 56t-57.5 82t-28.5 97.5q-2 12 -3 23.5 t-1 23.5zM434 0l877 1434h147l-876 -1434h-148zM1004 193v126l413 541h152v-541h123v-126h-123v-193h-152v193h-413zM1167 319h250v336z"/>
<glyph unicode="¿" horiz-adv-x="1179" d="M109 -20q0 63 16 111t44 86t62.5 67.5t71.5 58.5q57 43 94 73t59.5 57.5t32 58t9.5 71.5v37h204q0 -49 -1 -86t-9 -69.5t-26.5 -63.5t-49.5 -68q-31 -35 -72.5 -66.5t-78.5 -66.5t-63.5 -79t-26.5 -105q0 -39 11 -76t37 -64.5t65.5 -44t97.5 -16.5q45 0 89 12.5t76.5 43 t51 82t16.5 130.5h252q2 -72 -15.5 -155.5t-70.5 -157.5t-150.5 -123t-252.5 -49q-133 0 -223.5 35t-145.5 91t-79.5 129t-24.5 147zM469 764v276h270v-276h-270z"/>
<glyph unicode="À" horiz-adv-x="1327" d="M-8 0l540 1434h263l540 -1434h-280l-105 301h-573l-105 -301h-280zM391 1843h279l159 -287h-196zM446 518h435l-217 637z"/>
<glyph unicode="Á" horiz-adv-x="1327" d="M-8 0l540 1434h263l540 -1434h-280l-105 301h-573l-105 -301h-280zM446 518h435l-217 637zM498 1556l159 287h279l-242 -287h-196z"/>
<glyph unicode="Â" horiz-adv-x="1327" d="M-8 0l540 1434h263l540 -1434h-280l-105 301h-573l-105 -301h-280zM213 1556l275 287h352l275 -287h-246l-205 193l-205 -193h-246zM446 518h435l-217 637z"/>
<glyph unicode="Ã" horiz-adv-x="1327" d="M-8 0l540 1434h263l540 -1434h-280l-105 301h-573l-105 -301h-280zM231 1581q6 43 23.5 85t50.5 76t79 55.5t112 21.5q49 0 84.5 -9.5t89.5 -31.5q27 -10 46 -19.5t35.5 -15.5t35 -10t40.5 -4q49 0 75 22.5t30 50.5h164q-8 -39 -24.5 -81t-47.5 -76.5t-78 -57t-115 -22.5 q-47 0 -83.5 11t-90.5 34q-41 16 -78.5 30.5t-78.5 14.5t-71 -19.5t-34 -54.5h-164zM446 518h435l-217 637z"/>
<glyph unicode="Ä" horiz-adv-x="1327" d="M-8 0l540 1434h263l540 -1434h-280l-105 301h-573l-105 -301h-280zM288 1581v180h263v-180h-263zM446 518h435l-217 637zM776 1581v180h262v-180h-262z"/>
<glyph unicode="Å" horiz-adv-x="1327" d="M-8 0l540 1434h263l540 -1434h-280l-105 301h-573l-105 -301h-280zM446 518h435l-217 637zM458 1679q0 43 15.5 80t43 64.5t65.5 44t81 16.5t80 -16.5t64.5 -44t44 -64.5t16.5 -80t-16.5 -80.5t-44 -65.5t-64.5 -43t-80 -15t-81 15t-65.5 43t-43 65.5t-15.5 80.5z M573 1679q0 -37 26.5 -63.5t63.5 -26.5t63.5 26.5t26.5 63.5t-26.5 63.5t-63.5 26.5t-63.5 -26.5t-26.5 -63.5z"/>
<glyph unicode="Æ" horiz-adv-x="2174" d="M-10 0l813 1434h1315v-217h-813v-373h729v-217h-729v-410h835v-217h-1098v315h-569l-172 -315h-311zM588 532h454v685h-86z"/>
<glyph unicode="Ç" horiz-adv-x="1501" d="M92 692q0 221 58.5 371.5t155.5 242t223 131.5t259 40q184 0 302 -50.5t185.5 -126t95.5 -164.5t32 -165h-260q-6 45 -24.5 95t-58.5 93t-105.5 72t-166.5 29q-121 0 -200.5 -45.5t-126.5 -122t-67.5 -178t-20.5 -212.5q0 -127 32.5 -225t91 -165.5t140.5 -102.5t178 -35 q88 0 152.5 27.5t107.5 72.5t63.5 101.5t24.5 113.5h260q-8 -82 -37.5 -175t-98 -173t-185.5 -132t-299 -52q-27 0 -90.5 4t-143.5 25.5t-163.5 66.5t-153.5 126t-115 206t-45 307zM526 -475l39 125q39 -12 69 -15.5t50 -3.5q37 0 58.5 8.5t32.5 18.5t14.5 22.5t3.5 20.5 q0 23 -11.5 34t-28 16t-35 6t-32.5 1h-88l37 123h94q20 0 61.5 -3t83.5 -20.5t72.5 -54t30.5 -106.5q0 -53 -22.5 -89t-61.5 -58.5t-92 -32t-113 -9.5q-29 0 -68.5 3.5t-93.5 13.5z"/>
<glyph unicode="È" horiz-adv-x="1306" d="M174 0v1434h1075v-217h-813v-373h729v-217h-729v-410h836v-217h-1098zM381 1843h279l159 -287h-196z"/>
<glyph unicode="É" horiz-adv-x="1306" d="M174 0v1434h1075v-217h-813v-373h729v-217h-729v-410h836v-217h-1098zM488 1556l159 287h279l-242 -287h-196z"/>
<glyph unicode="Ê" horiz-adv-x="1306" d="M174 0v1434h1075v-217h-813v-373h729v-217h-729v-410h836v-217h-1098zM202 1556l275 287h352l275 -287h-246l-205 193l-205 -193h-246z"/>
<glyph unicode="Ë" horiz-adv-x="1306" d="M174 0v1434h1075v-217h-813v-373h729v-217h-729v-410h836v-217h-1098zM278 1581v180h263v-180h-263zM766 1581v180h262v-180h-262z"/>
<glyph unicode="Ì" horiz-adv-x="610" d="M-6 1843h279l159 -287h-196zM174 0v1434h262v-1434h-262z"/>
<glyph unicode="Í" horiz-adv-x="610" d="M109 1556l159 287h279l-242 -287h-196zM174 0v1434h262v-1434h-262z"/>
<glyph unicode="Î" horiz-adv-x="610" d="M-144 1556l275 287h352l275 -287h-246l-205 193l-205 -193h-246zM174 0v1434h262v-1434h-262z"/>
<glyph unicode="Ï" horiz-adv-x="610" d="M-62 1581v180h263v-180h-263zM174 0v1434h262v-1434h-262zM426 1581v180h262v-180h-262z"/>
<glyph unicode="Ð" horiz-adv-x="1548" d="M0 729v168h195v537h569q147 0 255.5 -32t185.5 -85t126 -124t77 -150.5t38 -162.5t10 -159q0 -162 -35 -278.5t-93 -196.5t-135 -128t-160 -75t-166 -35t-154 -8h-518v729h-195zM457 217h243q31 0 79 4t100.5 19.5t105.5 47t95 87t69 138.5t27 204q0 111 -21.5 190.5 t-56.5 135t-80 90t-93 53t-96.5 25t-87.5 6.5h-284v-320h403v-168h-403v-512z"/>
<glyph unicode="Ñ" horiz-adv-x="1576" d="M174 0v1434h279l688 -1018v1018h262v-1434h-279l-688 1018v-1018h-262zM356 1581q6 43 23.5 85t50.5 76t79 55.5t112 21.5q49 0 84.5 -9.5t89.5 -31.5q27 -10 46 -19.5t35.5 -15.5t35 -10t40.5 -4q49 0 75 22.5t30 50.5h164q-8 -39 -24.5 -81t-47.5 -76.5t-78 -57 t-115 -22.5q-47 0 -83.5 11t-90.5 34q-41 16 -78.5 30.5t-78.5 14.5t-71 -19.5t-34 -54.5h-164z"/>
<glyph unicode="Ò" horiz-adv-x="1589" d="M92 717q0 186 43 314t110.5 213t150.5 132t161 68.5t142.5 27t95.5 5.5t95 -5.5t142 -27t161 -68.5t150.5 -132t110.5 -213t43 -314t-43 -314.5t-110.5 -213.5t-150.5 -132t-161 -68.5t-142.5 -26.5t-94.5 -5q-31 0 -95.5 5t-142.5 26.5t-161 68.5t-150.5 132t-110.5 213 t-43 315zM373 717q0 -84 16.5 -178.5t62.5 -176t128 -135t215 -53.5t215 53.5t128 135t62.5 176t16.5 178.5q0 82 -16.5 177t-62.5 177t-128 135.5t-215 53.5t-215 -53.5t-128 -135.5t-62.5 -177t-16.5 -177zM522 1843h279l159 -287h-196z"/>
<glyph unicode="Ó" horiz-adv-x="1589" d="M92 717q0 186 43 314t110.5 213t150.5 132t161 68.5t142.5 27t95.5 5.5t95 -5.5t142 -27t161 -68.5t150.5 -132t110.5 -213t43 -314t-43 -314.5t-110.5 -213.5t-150.5 -132t-161 -68.5t-142.5 -26.5t-94.5 -5q-31 0 -95.5 5t-142.5 26.5t-161 68.5t-150.5 132t-110.5 213 t-43 315zM373 717q0 -84 16.5 -178.5t62.5 -176t128 -135t215 -53.5t215 53.5t128 135t62.5 176t16.5 178.5q0 82 -16.5 177t-62.5 177t-128 135.5t-215 53.5t-215 -53.5t-128 -135.5t-62.5 -177t-16.5 -177zM629 1556l159 287h279l-242 -287h-196z"/>
<glyph unicode="Ô" horiz-adv-x="1589" d="M92 717q0 186 43 314t110.5 213t150.5 132t161 68.5t142.5 27t95.5 5.5t95 -5.5t142 -27t161 -68.5t150.5 -132t110.5 -213t43 -314t-43 -314.5t-110.5 -213.5t-150.5 -132t-161 -68.5t-142.5 -26.5t-94.5 -5q-31 0 -95.5 5t-142.5 26.5t-161 68.5t-150.5 132t-110.5 213 t-43 315zM344 1556l275 287h352l275 -287h-246l-205 193l-205 -193h-246zM373 717q0 -84 16.5 -178.5t62.5 -176t128 -135t215 -53.5t215 53.5t128 135t62.5 176t16.5 178.5q0 82 -16.5 177t-62.5 177t-128 135.5t-215 53.5t-215 -53.5t-128 -135.5t-62.5 -177t-16.5 -177z "/>
<glyph unicode="Õ" horiz-adv-x="1589" d="M92 717q0 186 43 314t110.5 213t150.5 132t161 68.5t142.5 27t95.5 5.5t95 -5.5t142 -27t161 -68.5t150.5 -132t110.5 -213t43 -314t-43 -314.5t-110.5 -213.5t-150.5 -132t-161 -68.5t-142.5 -26.5t-94.5 -5q-31 0 -95.5 5t-142.5 26.5t-161 68.5t-150.5 132t-110.5 213 t-43 315zM362 1581q6 43 23.5 85t50.5 76t79 55.5t112 21.5q49 0 84.5 -9.5t89.5 -31.5q27 -10 46 -19.5t35.5 -15.5t35 -10t40.5 -4q49 0 75 22.5t30 50.5h164q-8 -39 -24.5 -81t-47.5 -76.5t-78 -57t-115 -22.5q-47 0 -83.5 11t-90.5 34q-41 16 -78.5 30.5t-78.5 14.5 t-71 -19.5t-34 -54.5h-164zM373 717q0 -84 16.5 -178.5t62.5 -176t128 -135t215 -53.5t215 53.5t128 135t62.5 176t16.5 178.5q0 82 -16.5 177t-62.5 177t-128 135.5t-215 53.5t-215 -53.5t-128 -135.5t-62.5 -177t-16.5 -177z"/>
<glyph unicode="Ö" horiz-adv-x="1589" d="M92 717q0 186 43 314t110.5 213t150.5 132t161 68.5t142.5 27t95.5 5.5t95 -5.5t142 -27t161 -68.5t150.5 -132t110.5 -213t43 -314t-43 -314.5t-110.5 -213.5t-150.5 -132t-161 -68.5t-142.5 -26.5t-94.5 -5q-31 0 -95.5 5t-142.5 26.5t-161 68.5t-150.5 132t-110.5 213 t-43 315zM373 717q0 -84 16.5 -178.5t62.5 -176t128 -135t215 -53.5t215 53.5t128 135t62.5 176t16.5 178.5q0 82 -16.5 177t-62.5 177t-128 135.5t-215 53.5t-215 -53.5t-128 -135.5t-62.5 -177t-16.5 -177zM419 1581v180h263v-180h-263zM907 1581v180h262v-180h-262z"/>
<glyph unicode="×" horiz-adv-x="1228" d="M115 340l374 375l-374 375l125 124l374 -374l375 374l125 -124l-375 -375l375 -375l-125 -125l-375 375l-374 -375z"/>
<glyph unicode="Ø" horiz-adv-x="1630" d="M92 -45l184 225q-31 39 -60.5 88t-53 113.5t-36.5 147.5t-13 188q0 133 23.5 235.5t61.5 179t86 131t97 91.5q109 78 222.5 100.5t211.5 22.5q102 0 175 -13.5t123 -32t80 -38t44 -31.5l178 219l123 -102l-184 -228q33 -39 62.5 -87t52 -112.5t36 -147.5t13.5 -187 q0 -133 -24 -235.5t-61.5 -179.5t-86 -131t-97.5 -91q-109 -78 -222.5 -100.5t-211.5 -22.5q-92 0 -160.5 11.5t-119 28.5t-85 37.5t-57.5 37.5l-178 -219zM393 717q0 -72 13.5 -157t48.5 -161l626 770q-70 57 -138.5 74t-127.5 17q-133 0 -215 -53.5t-128 -135.5 t-62.5 -177t-16.5 -177zM549 264q41 -35 103.5 -62.5t162.5 -27.5q133 0 215 54.5t128 135t62.5 176t16.5 177.5q0 72 -13.5 156.5t-47.5 160.5z"/>
<glyph unicode="Ù" horiz-adv-x="1478" d="M147 551v883h263v-842q0 -215 72.5 -316.5t256.5 -101.5t257 101.5t73 316.5v842h262v-883q0 -57 -5 -124t-25.5 -133.5t-58.5 -127t-104.5 -107.5t-163.5 -74.5t-235 -27.5q-137 0 -234 27.5t-164 74.5t-104.5 107.5t-58 127t-26 133.5t-5.5 124zM467 1843h279l159 -287 h-196z"/>
<glyph unicode="Ú" horiz-adv-x="1478" d="M147 551v883h263v-842q0 -215 72.5 -316.5t256.5 -101.5t257 101.5t73 316.5v842h262v-883q0 -57 -5 -124t-25.5 -133.5t-58.5 -127t-104.5 -107.5t-163.5 -74.5t-235 -27.5q-137 0 -234 27.5t-164 74.5t-104.5 107.5t-58 127t-26 133.5t-5.5 124zM574 1556l159 287h279 l-242 -287h-196z"/>
<glyph unicode="Û" horiz-adv-x="1478" d="M147 551v883h263v-842q0 -215 72.5 -316.5t256.5 -101.5t257 101.5t73 316.5v842h262v-883q0 -57 -5 -124t-25.5 -133.5t-58.5 -127t-104.5 -107.5t-163.5 -74.5t-235 -27.5q-137 0 -234 27.5t-164 74.5t-104.5 107.5t-58 127t-26 133.5t-5.5 124zM288 1556l275 287h352 l275 -287h-246l-205 193l-205 -193h-246z"/>
<glyph unicode="Ü" horiz-adv-x="1478" d="M147 551v883h263v-842q0 -215 72.5 -316.5t256.5 -101.5t257 101.5t73 316.5v842h262v-883q0 -57 -5 -124t-25.5 -133.5t-58.5 -127t-104.5 -107.5t-163.5 -74.5t-235 -27.5q-137 0 -234 27.5t-164 74.5t-104.5 107.5t-58 127t-26 133.5t-5.5 124zM364 1581v180h263v-180 h-263zM852 1581v180h262v-180h-262z"/>
<glyph unicode="Ý" horiz-adv-x="1298" d="M-8 1434h309l348 -629l348 629h310l-527 -863v-571h-262v571zM484 1556l159 287h279l-242 -287h-196z"/>
<glyph unicode="Þ" horiz-adv-x="1372" d="M174 0v1434h262v-248h373q39 0 91 -4t107.5 -19.5t108.5 -45.5t96 -81t69 -128t26 -183q0 -109 -31 -184.5t-79 -124.5t-106.5 -77t-113.5 -40t-101.5 -15t-68.5 -3h-371v-281h-262zM436 498h320q129 0 204.5 52t75.5 187q0 80 -27.5 126t-68.5 69.5t-89 30t-89 6.5h-326 v-471z"/>
<glyph unicode="ß" horiz-adv-x="1218" d="M147 0v938q0 57 3.5 119.5t17.5 122t43 113t81 94t130 64.5t190 24q197 0 307.5 -93.5t110.5 -279.5q0 -84 -40 -160t-144 -117v-4q45 -10 97 -32.5t97 -67.5t75 -115.5t30 -175.5q0 -129 -39 -214t-105.5 -137t-152.5 -73.5t-180 -21.5q-39 0 -71 3t-67 13v168 q23 -8 47.5 -12t57.5 -4q72 0 121 25.5t78.5 66.5t42 92t12.5 104q0 96 -33 150.5t-81 82t-103.5 34t-98.5 6.5h-43v168h52q70 0 110.5 24.5t61 58t25.5 69.5t5 61q0 113 -51 163t-135 50q-70 0 -111 -27t-61 -71t-26.5 -99t-6.5 -113v-997h-246z"/>
<glyph unicode="à" horiz-adv-x="1181" d="M76 276q0 82 30.5 135.5t71.5 87t80 49t57 19.5q59 16 118 22.5t124 16.5q25 4 50.5 7t49.5 8q33 4 55.5 8t38 14t22.5 30.5t7 59.5q0 61 -20.5 97t-51 54.5t-65.5 23.5t-65 5q-68 0 -115 -16t-76 -44t-41 -62.5t-10 -71.5h-234q-2 72 25 137.5t84 115.5t147.5 79.5 t219.5 29.5q158 0 247.5 -40t134 -98t55.5 -121.5t11 -108.5v-416q0 -37 2 -62.5t11.5 -41t26.5 -20.5t50 -3v-170q-47 -4 -69.5 -5t-38.5 -1q-25 0 -55.5 3t-61.5 16.5t-54.5 41t-31.5 74.5q-68 -86 -155 -120t-191 -34q-135 0 -212 35t-115 83t-47 99.5t-9 83.5zM330 285 q0 -59 38 -100.5t124 -41.5q45 0 96 12.5t94 46.5t70.5 96t27.5 165v37q-20 -14 -54 -23.5t-122 -19.5q-63 -8 -113.5 -17.5t-86 -27t-55 -47t-19.5 -80.5zM332 1434h266l144 -271h-185z"/>
<glyph unicode="á" horiz-adv-x="1181" d="M76 276q0 82 30.5 135.5t71.5 87t80 49t57 19.5q59 16 118 22.5t124 16.5q25 4 50.5 7t49.5 8q33 4 55.5 8t38 14t22.5 30.5t7 59.5q0 61 -20.5 97t-51 54.5t-65.5 23.5t-65 5q-68 0 -115 -16t-76 -44t-41 -62.5t-10 -71.5h-234q-2 72 25 137.5t84 115.5t147.5 79.5 t219.5 29.5q158 0 247.5 -40t134 -98t55.5 -121.5t11 -108.5v-416q0 -37 2 -62.5t11.5 -41t26.5 -20.5t50 -3v-170q-47 -4 -69.5 -5t-38.5 -1q-25 0 -55.5 3t-61.5 16.5t-54.5 41t-31.5 74.5q-68 -86 -155 -120t-191 -34q-135 0 -212 35t-115 83t-47 99.5t-9 83.5zM330 285 q0 -59 38 -100.5t124 -41.5q45 0 96 12.5t94 46.5t70.5 96t27.5 165v37q-20 -14 -54 -23.5t-122 -19.5q-63 -8 -113.5 -17.5t-86 -27t-55 -47t-19.5 -80.5zM439 1163l143 271h266l-225 -271h-184z"/>
<glyph unicode="â" horiz-adv-x="1181" d="M76 276q0 82 30.5 135.5t71.5 87t80 49t57 19.5q59 16 118 22.5t124 16.5q25 4 50.5 7t49.5 8q33 4 55.5 8t38 14t22.5 30.5t7 59.5q0 61 -20.5 97t-51 54.5t-65.5 23.5t-65 5q-68 0 -115 -16t-76 -44t-41 -62.5t-10 -71.5h-234q-2 72 25 137.5t84 115.5t147.5 79.5 t219.5 29.5q158 0 247.5 -40t134 -98t55.5 -121.5t11 -108.5v-416q0 -37 2 -62.5t11.5 -41t26.5 -20.5t50 -3v-170q-47 -4 -69.5 -5t-38.5 -1q-25 0 -55.5 3t-61.5 16.5t-54.5 41t-31.5 74.5q-68 -86 -155 -120t-191 -34q-135 0 -212 35t-115 83t-47 99.5t-9 83.5zM180 1163 l246 271h328l246 -271h-226l-184 183l-184 -183h-226zM330 285q0 -59 38 -100.5t124 -41.5q45 0 96 12.5t94 46.5t70.5 96t27.5 165v37q-20 -14 -54 -23.5t-122 -19.5q-63 -8 -113.5 -17.5t-86 -27t-55 -47t-19.5 -80.5z"/>
<glyph unicode="ã" horiz-adv-x="1181" d="M76 276q0 82 30.5 135.5t71.5 87t80 49t57 19.5q59 16 118 22.5t124 16.5q25 4 50.5 7t49.5 8q33 4 55.5 8t38 14t22.5 30.5t7 59.5q0 61 -20.5 97t-51 54.5t-65.5 23.5t-65 5q-68 0 -115 -16t-76 -44t-41 -62.5t-10 -71.5h-234q-2 72 25 137.5t84 115.5t147.5 79.5 t219.5 29.5q158 0 247.5 -40t134 -98t55.5 -121.5t11 -108.5v-416q0 -37 2 -62.5t11.5 -41t26.5 -20.5t50 -3v-170q-47 -4 -69.5 -5t-38.5 -1q-25 0 -55.5 3t-61.5 16.5t-54.5 41t-31.5 74.5q-68 -86 -155 -120t-191 -34q-135 0 -212 35t-115 83t-47 99.5t-9 83.5zM196 1241 q6 41 25.5 79t50.5 66.5t73 46t93 17.5q47 0 83 -11.5t75 -29.5q45 -20 71.5 -34.5t69.5 -14.5q51 0 70.5 25.5t23.5 48.5h152q-16 -100 -87 -154.5t-155 -54.5q-45 0 -83 13t-75 32q-37 16 -69.5 30.5t-71.5 14.5q-51 0 -70.5 -25.5t-23.5 -48.5h-152zM330 285 q0 -59 38 -100.5t124 -41.5q45 0 96 12.5t94 46.5t70.5 96t27.5 165v37q-20 -14 -54 -23.5t-122 -19.5q-63 -8 -113.5 -17.5t-86 -27t-55 -47t-19.5 -80.5z"/>
<glyph unicode="ä" horiz-adv-x="1181" d="M76 276q0 82 30.5 135.5t71.5 87t80 49t57 19.5q59 16 118 22.5t124 16.5q25 4 50.5 7t49.5 8q33 4 55.5 8t38 14t22.5 30.5t7 59.5q0 61 -20.5 97t-51 54.5t-65.5 23.5t-65 5q-68 0 -115 -16t-76 -44t-41 -62.5t-10 -71.5h-234q-2 72 25 137.5t84 115.5t147.5 79.5 t219.5 29.5q158 0 247.5 -40t134 -98t55.5 -121.5t11 -108.5v-416q0 -37 2 -62.5t11.5 -41t26.5 -20.5t50 -3v-170q-47 -4 -69.5 -5t-38.5 -1q-25 0 -55.5 3t-61.5 16.5t-54.5 41t-31.5 74.5q-68 -86 -155 -120t-191 -34q-135 0 -212 35t-115 83t-47 99.5t-9 83.5zM276 1217 v217h238v-217h-238zM330 285q0 -59 38 -100.5t124 -41.5q45 0 96 12.5t94 46.5t70.5 96t27.5 165v37q-20 -14 -54 -23.5t-122 -19.5q-63 -8 -113.5 -17.5t-86 -27t-55 -47t-19.5 -80.5zM666 1217v217h237v-217h-237z"/>
<glyph unicode="å" horiz-adv-x="1181" d="M76 276q0 82 30.5 135.5t71.5 87t80 49t57 19.5q59 16 118 22.5t124 16.5q25 4 50.5 7t49.5 8q33 4 55.5 8t38 14t22.5 30.5t7 59.5q0 61 -20.5 97t-51 54.5t-65.5 23.5t-65 5q-68 0 -115 -16t-76 -44t-41 -62.5t-10 -71.5h-234q-2 72 25 137.5t84 115.5t147.5 79.5 t219.5 29.5q158 0 247.5 -40t134 -98t55.5 -121.5t11 -108.5v-416q0 -37 2 -62.5t11.5 -41t26.5 -20.5t50 -3v-170q-47 -4 -69.5 -5t-38.5 -1q-25 0 -55.5 3t-61.5 16.5t-54.5 41t-31.5 74.5q-68 -86 -155 -120t-191 -34q-135 0 -212 35t-115 83t-47 99.5t-9 83.5zM330 285 q0 -59 38 -100.5t124 -41.5q45 0 96 12.5t94 46.5t70.5 96t27.5 165v37q-20 -14 -54 -23.5t-122 -19.5q-63 -8 -113.5 -17.5t-86 -27t-55 -47t-19.5 -80.5zM397 1298q0 39 15.5 74t42 61.5t61.5 42t74 15.5t73.5 -15.5t61.5 -42t42 -61.5t15 -74t-15 -73.5t-42 -61 t-61.5 -42t-73.5 -15.5t-74 15.5t-61.5 42t-42 61t-15.5 73.5zM500 1298q0 -37 26.5 -63.5t63.5 -26.5t63.5 27t26.5 63q0 37 -26.5 64t-63.5 27t-63.5 -27t-26.5 -64z"/>
<glyph unicode="æ" horiz-adv-x="1904" d="M76 276q0 82 30.5 135.5t71.5 87t80 49t57 19.5q63 16 140 26.5t202 27.5q33 4 55.5 8t38 14t22.5 30.5t7 59.5q0 61 -20.5 97t-51 54.5t-65.5 23.5t-65 5q-68 0 -115 -16t-76 -44t-41 -62.5t-10 -71.5h-234q-2 70 25 135.5t84 116.5t147.5 80.5t219.5 29.5 q119 0 214 -31.5t140 -129.5q41 57 93 88.5t104.5 48t99.5 20.5t78 4q29 0 79 -4t106 -22.5t113.5 -54t104.5 -98t77 -157t30 -229.5v-59h-779q0 -49 13.5 -107.5t47.5 -107.5t89 -82t137 -33q41 0 82 11.5t75 33t56.5 54t28.5 75.5h233q-10 -51 -35.5 -110.5t-82 -110.5 t-147.5 -86t-230 -35q-55 0 -111.5 7t-110 27.5t-100.5 57.5t-84 96q-33 -59 -85 -95t-112.5 -57.5t-124 -28.5t-118.5 -7q-49 0 -116 8t-126 41t-100 96.5t-41 171.5zM330 285q0 -66 38 -112t124 -46q45 0 96 12.5t94 46t70.5 96t27.5 164.5v54q-20 -14 -54 -23.5 t-122 -19.5q-63 -8 -114.5 -17.5t-86 -27t-54 -47t-19.5 -80.5zM1038 625h518q0 35 -9 85t-34.5 95t-74.5 76.5t-129 31.5q-72 0 -124 -26.5t-85 -67.5t-48.5 -92t-13.5 -102z"/>
<glyph unicode="ç" horiz-adv-x="1175" d="M88 518q0 133 28.5 226.5t75 156t103.5 99t113.5 54t107.5 22.5t86 5q119 0 209 -32.5t150.5 -86t94.5 -123t42 -145.5h-234q-4 41 -20.5 80t-47 69.5t-74.5 50t-106 19.5q-76 0 -127 -31.5t-81.5 -86t-44 -126t-13.5 -151.5q0 -123 28 -198.5t68.5 -118.5t91 -58.5 t93.5 -15.5q68 0 112.5 26.5t72.5 64.5t39 82t13 81h234q-6 -57 -29.5 -130t-79 -137.5t-147.5 -109.5t-236 -45q-133 0 -231 41t-162.5 114.5t-96.5 177t-32 226.5zM358 -475l39 125q39 -12 69 -15.5t50 -3.5q37 0 58.5 8.5t32.5 18.5t14.5 22.5t3.5 20.5q0 23 -11.5 34 t-28 16t-35 6t-32.5 1h-88l37 123h94q20 0 61.5 -3t83.5 -20.5t72.5 -54t30.5 -106.5q0 -53 -22.5 -89t-61.5 -58.5t-92 -32t-113 -9.5q-29 0 -68.5 3.5t-93.5 13.5z"/>
<glyph unicode="è" horiz-adv-x="1216" d="M88 502q0 131 33 238.5t98.5 183t164.5 116.5t234 41q113 0 194 -27.5t136.5 -73.5t89 -104.5t53 -122t26.5 -125t9 -112.5q0 -16 1 -29.5t1 -29.5h-778q0 -49 13.5 -107.5t47 -107.5t89 -82t137.5 -33q41 0 82 11.5t74.5 33t56 54t29.5 75.5h233q-10 -51 -35.5 -110.5 t-82 -110.5t-147.5 -86t-231 -35q-27 0 -75.5 4t-107 20.5t-120 50.5t-111.5 94t-82 151.5t-32 222.5zM350 625h518q0 35 -9 85t-34.5 95t-75 76.5t-128.5 31.5q-72 0 -124.5 -26.5t-85 -67.5t-48 -92t-13.5 -102zM350 1434h266l144 -271h-185z"/>
<glyph unicode="é" horiz-adv-x="1216" d="M88 502q0 131 33 238.5t98.5 183t164.5 116.5t234 41q113 0 194 -27.5t136.5 -73.5t89 -104.5t53 -122t26.5 -125t9 -112.5q0 -16 1 -29.5t1 -29.5h-778q0 -49 13.5 -107.5t47 -107.5t89 -82t137.5 -33q41 0 82 11.5t74.5 33t56 54t29.5 75.5h233q-10 -51 -35.5 -110.5 t-82 -110.5t-147.5 -86t-231 -35q-27 0 -75.5 4t-107 20.5t-120 50.5t-111.5 94t-82 151.5t-32 222.5zM350 625h518q0 35 -9 85t-34.5 95t-75 76.5t-128.5 31.5q-72 0 -124.5 -26.5t-85 -67.5t-48 -92t-13.5 -102zM457 1163l143 271h266l-225 -271h-184z"/>
<glyph unicode="ê" horiz-adv-x="1216" d="M88 502q0 131 33 238.5t98.5 183t164.5 116.5t234 41q113 0 194 -27.5t136.5 -73.5t89 -104.5t53 -122t26.5 -125t9 -112.5q0 -16 1 -29.5t1 -29.5h-778q0 -49 13.5 -107.5t47 -107.5t89 -82t137.5 -33q41 0 82 11.5t74.5 33t56 54t29.5 75.5h233q-10 -51 -35.5 -110.5 t-82 -110.5t-147.5 -86t-231 -35q-27 0 -75.5 4t-107 20.5t-120 50.5t-111.5 94t-82 151.5t-32 222.5zM198 1163l246 271h328l246 -271h-226l-184 183l-184 -183h-226zM350 625h518q0 35 -9 85t-34.5 95t-75 76.5t-128.5 31.5q-72 0 -124.5 -26.5t-85 -67.5t-48 -92 t-13.5 -102z"/>
<glyph unicode="ë" horiz-adv-x="1216" d="M88 502q0 131 33 238.5t98.5 183t164.5 116.5t234 41q113 0 194 -27.5t136.5 -73.5t89 -104.5t53 -122t26.5 -125t9 -112.5q0 -16 1 -29.5t1 -29.5h-778q0 -49 13.5 -107.5t47 -107.5t89 -82t137.5 -33q41 0 82 11.5t74.5 33t56 54t29.5 75.5h233q-10 -51 -35.5 -110.5 t-82 -110.5t-147.5 -86t-231 -35q-27 0 -75.5 4t-107 20.5t-120 50.5t-111.5 94t-82 151.5t-32 222.5zM295 1217v217h238v-217h-238zM350 625h518q0 35 -9 85t-34.5 95t-75 76.5t-128.5 31.5q-72 0 -124.5 -26.5t-85 -67.5t-48 -92t-13.5 -102zM685 1217v217h237v-217h-237z "/>
<glyph unicode="ì" horiz-adv-x="540" d="M-14 1434h266l144 -271h-185zM147 0v1040h246v-1040h-246z"/>
<glyph unicode="í" horiz-adv-x="540" d="M95 1163l143 271h266l-225 -271h-184zM147 0v1040h246v-1040h-246z"/>
<glyph unicode="î" horiz-adv-x="540" d="M-140 1163l246 271h328l246 -271h-226l-184 183l-184 -183h-226zM147 0v1040h246v-1040h-246z"/>
<glyph unicode="ï" horiz-adv-x="540" d="M-43 1217v217h238v-217h-238zM147 0v1040h246v-1040h-246zM347 1217v217h237v-217h-237z"/>
<glyph unicode="ð" horiz-adv-x="1296" d="M96 500q0 104 31 201.5t94.5 172t159.5 120.5t227 46q129 0 229.5 -47t172.5 -157h8q-4 53 -21.5 112.5t-53.5 116.5t-94 109.5t-147 91.5l-278 -162l-62 78l226 131q-59 27 -122 45t-128 33l33 120q88 -12 180 -35.5t190 -62.5l154 88l66 -80l-111 -59 q117 -57 184.5 -139t102 -174.5t44 -187.5t9.5 -179q0 -49 -4 -122t-22.5 -152.5t-53.5 -159.5t-95.5 -144.5t-151.5 -104.5t-220 -40q-168 0 -274.5 56.5t-167 139.5t-83 177t-22.5 168zM358 500q0 -111 26 -183.5t65.5 -114.5t91 -58.5t102.5 -16.5t102.5 16.5t91.5 58.5 t65.5 114.5t25.5 183.5t-25.5 183.5t-65.5 114.5t-91.5 58t-102.5 16t-102.5 -16t-91 -58t-65.5 -115t-26 -183z"/>
<glyph unicode="ñ" horiz-adv-x="1241" d="M147 0v1040h246v-137q27 45 67 79t86 55.5t95 32.5t94 11q133 0 206 -49t106.5 -114.5t40 -129t6.5 -92.5v-696h-246v618q0 47 -3 99.5t-21.5 95.5t-58.5 71.5t-112 28.5q-25 0 -68.5 -9t-86.5 -43t-74 -99.5t-31 -179.5v-582h-246zM227 1241q6 41 25.5 79t50.5 66.5 t73 46t93 17.5q47 0 83 -11.5t75 -29.5q45 -20 71.5 -34.5t69.5 -14.5q51 0 70.5 25.5t23.5 48.5h152q-16 -100 -87 -154.5t-155 -54.5q-45 0 -83 13t-75 32q-37 16 -69.5 30.5t-71.5 14.5q-51 0 -70.5 -25.5t-23.5 -48.5h-152z"/>
<glyph unicode="ò" d="M88 520q0 49 9 110.5t32 124t61.5 121t98 104.5t142.5 73.5t194 27.5t193.5 -27.5t142 -73.5t98.5 -104.5t61.5 -121t31.5 -124t9 -110.5t-9 -110.5t-31.5 -124t-61.5 -121t-98.5 -104.5t-142.5 -73.5t-193 -27.5q-111 0 -194 27.5t-142.5 73.5t-98 104.5t-61.5 121 t-32 123t-9 111.5zM350 520q0 -133 31 -212t74 -118.5t90 -51t80 -11.5t80 11.5t90 51t73.5 118.5t30.5 212t-30.5 212t-73.5 119t-90 51t-80 11t-80 -11t-90 -51t-74 -119t-31 -212zM366 1434h266l144 -271h-185z"/>
<glyph unicode="ó" d="M88 520q0 49 9 110.5t32 124t61.5 121t98 104.5t142.5 73.5t194 27.5t193.5 -27.5t142 -73.5t98.5 -104.5t61.5 -121t31.5 -124t9 -110.5t-9 -110.5t-31.5 -124t-61.5 -121t-98.5 -104.5t-142.5 -73.5t-193 -27.5q-111 0 -194 27.5t-142.5 73.5t-98 104.5t-61.5 121 t-32 123t-9 111.5zM350 520q0 -133 31 -212t74 -118.5t90 -51t80 -11.5t80 11.5t90 51t73.5 118.5t30.5 212t-30.5 212t-73.5 119t-90 51t-80 11t-80 -11t-90 -51t-74 -119t-31 -212zM473 1163l143 271h266l-225 -271h-184z"/>
<glyph unicode="ô" d="M88 520q0 49 9 110.5t32 124t61.5 121t98 104.5t142.5 73.5t194 27.5t193.5 -27.5t142 -73.5t98.5 -104.5t61.5 -121t31.5 -124t9 -110.5t-9 -110.5t-31.5 -124t-61.5 -121t-98.5 -104.5t-142.5 -73.5t-193 -27.5q-111 0 -194 27.5t-142.5 73.5t-98 104.5t-61.5 121 t-32 123t-9 111.5zM215 1163l246 271h328l246 -271h-226l-184 183l-184 -183h-226zM350 520q0 -133 31 -212t74 -118.5t90 -51t80 -11.5t80 11.5t90 51t73.5 118.5t30.5 212t-30.5 212t-73.5 119t-90 51t-80 11t-80 -11t-90 -51t-74 -119t-31 -212z"/>
<glyph unicode="õ" d="M88 520q0 49 9 110.5t32 124t61.5 121t98 104.5t142.5 73.5t194 27.5t193.5 -27.5t142 -73.5t98.5 -104.5t61.5 -121t31.5 -124t9 -110.5t-9 -110.5t-31.5 -124t-61.5 -121t-98.5 -104.5t-142.5 -73.5t-193 -27.5q-111 0 -194 27.5t-142.5 73.5t-98 104.5t-61.5 121 t-32 123t-9 111.5zM231 1241q6 41 25.5 79t50.5 66.5t73 46t93 17.5q47 0 83 -11.5t75 -29.5q45 -20 71.5 -34.5t69.5 -14.5q51 0 70.5 25.5t23.5 48.5h152q-16 -100 -87 -154.5t-155 -54.5q-45 0 -83 13t-75 32q-37 16 -69.5 30.5t-71.5 14.5q-51 0 -70.5 -25.5 t-23.5 -48.5h-152zM350 520q0 -133 31 -212t74 -118.5t90 -51t80 -11.5t80 11.5t90 51t73.5 118.5t30.5 212t-30.5 212t-73.5 119t-90 51t-80 11t-80 -11t-90 -51t-74 -119t-31 -212z"/>
<glyph unicode="ö" d="M88 520q0 49 9 110.5t32 124t61.5 121t98 104.5t142.5 73.5t194 27.5t193.5 -27.5t142 -73.5t98.5 -104.5t61.5 -121t31.5 -124t9 -110.5t-9 -110.5t-31.5 -124t-61.5 -121t-98.5 -104.5t-142.5 -73.5t-193 -27.5q-111 0 -194 27.5t-142.5 73.5t-98 104.5t-61.5 121 t-32 123t-9 111.5zM311 1217v217h238v-217h-238zM350 520q0 -133 31 -212t74 -118.5t90 -51t80 -11.5t80 11.5t90 51t73.5 118.5t30.5 212t-30.5 212t-73.5 119t-90 51t-80 11t-80 -11t-90 -51t-74 -119t-31 -212zM701 1217v217h237v-217h-237z"/>
<glyph unicode="÷" horiz-adv-x="1228" d="M102 580v176h1024v-176h-1024zM471 311q0 59 42 101.5t101 42.5t101.5 -42t42.5 -102q0 -59 -42 -101t-102 -42q-59 0 -101 42t-42 101zM471 1024q0 59 42 101t101 42t101.5 -42t42.5 -101t-42 -101t-102 -42q-59 0 -101 42t-42 101z"/>
<glyph unicode="ø" horiz-adv-x="1236" d="M88 520q0 49 9 110.5t32 124t61.5 121t98 104.5t142.5 73.5t194 27.5q100 0 171.5 -20.5t135.5 -61.5l110 134l113 -93l-115 -139q10 -12 31 -43t40 -78t34.5 -112.5t15.5 -147.5q0 -49 -9 -110.5t-31.5 -124t-61.5 -121t-98.5 -104.5t-142.5 -73.5t-193 -27.5 q-90 0 -161 18.5t-140 59.5l-107 -129l-117 92l113 135q-43 51 -67.5 106.5t-37 107.5t-16.5 97.5t-4 73.5zM350 520q0 -59 5 -102t18 -90l428 514q-27 25 -68.5 48t-107.5 23q-35 0 -82 -11t-90 -52t-73 -119t-30 -211zM455 193q43 -41 88 -53.5t82 -12.5q33 0 80 11.5 t90 52t73.5 118.5t30.5 211q0 59 -5 101.5t-15 85.5z"/>
<glyph unicode="ù" horiz-adv-x="1241" d="M147 344v696h246v-618q0 -45 4 -96.5t22.5 -95.5t57.5 -73.5t111 -29.5q96 0 149.5 45t78 102.5t28.5 111.5t4 73v581h246v-1040h-246v137h-4q-51 -92 -148.5 -135t-197.5 -43q-86 0 -145.5 22.5t-98.5 59.5t-60.5 81t-31.5 87t-12.5 79t-2.5 56zM362 1434h266l144 -271 h-185z"/>
<glyph unicode="ú" horiz-adv-x="1241" d="M147 344v696h246v-618q0 -45 4 -96.5t22.5 -95.5t57.5 -73.5t111 -29.5q96 0 149.5 45t78 102.5t28.5 111.5t4 73v581h246v-1040h-246v137h-4q-51 -92 -148.5 -135t-197.5 -43q-86 0 -145.5 22.5t-98.5 59.5t-60.5 81t-31.5 87t-12.5 79t-2.5 56zM469 1163l143 271h266 l-225 -271h-184z"/>
<glyph unicode="û" horiz-adv-x="1241" d="M147 344v696h246v-618q0 -45 4 -96.5t22.5 -95.5t57.5 -73.5t111 -29.5q96 0 149.5 45t78 102.5t28.5 111.5t4 73v581h246v-1040h-246v137h-4q-51 -92 -148.5 -135t-197.5 -43q-86 0 -145.5 22.5t-98.5 59.5t-60.5 81t-31.5 87t-12.5 79t-2.5 56zM211 1163l246 271h328 l246 -271h-226l-184 183l-184 -183h-226z"/>
<glyph unicode="ü" horiz-adv-x="1241" d="M147 344v696h246v-618q0 -45 4 -96.5t22.5 -95.5t57.5 -73.5t111 -29.5q96 0 149.5 45t78 102.5t28.5 111.5t4 73v581h246v-1040h-246v137h-4q-51 -92 -148.5 -135t-197.5 -43q-86 0 -145.5 22.5t-98.5 59.5t-60.5 81t-31.5 87t-12.5 79t-2.5 56zM307 1217v217h238v-217 h-238zM697 1217v217h237v-217h-237z"/>
<glyph unicode="ý" horiz-adv-x="1107" d="M14 1040h295l314 -774l239 774h246l-397 -1130q-12 -35 -32 -86t-56.5 -98.5t-97 -80t-156.5 -32.5q-35 0 -76 3t-78 9v168q18 -4 42 -8t52 -4q72 0 104.5 40t59.5 132l14 49zM402 1163l143 271h266l-225 -271h-184z"/>
<glyph unicode="þ" horiz-adv-x="1302" d="M147 -379v1813h246v-496q31 41 70 68.5t82 44t86 23.5t82 7q90 0 179 -30.5t160.5 -96t116.5 -172t45 -256.5q0 -82 -19 -181t-73.5 -185t-151 -143.5t-249.5 -57.5q-10 0 -51 2t-92.5 16.5t-102.5 44t-82 84.5v-485h-246zM375 518q0 -176 70.5 -283.5t205.5 -107.5 q41 0 93.5 13.5t98.5 54.5t77.5 116.5t31.5 200.5q0 111 -24.5 187.5t-64.5 123.5t-93 68.5t-108 21.5q-41 0 -91.5 -14t-93.5 -56t-72.5 -120t-29.5 -205z"/>
<glyph unicode="ÿ" horiz-adv-x="1107" d="M14 1040h295l314 -774l239 774h246l-397 -1130q-12 -35 -32 -86t-56.5 -98.5t-97 -80t-156.5 -32.5q-35 0 -76 3t-78 9v168q18 -4 42 -8t52 -4q72 0 104.5 40t59.5 132l14 49zM239 1217v217h238v-217h-238zM629 1217v217h237v-217h-237z"/>
<glyph unicode="Ā" horiz-adv-x="1327" d="M-8 0l540 1434h263l540 -1434h-280l-105 301h-573l-105 -301h-280zM325 1556v164h676v-164h-338h-338zM446 518h435l-217 637z"/>
<glyph unicode="ā" horiz-adv-x="1181" d="M76 276q0 82 30.5 135.5t71.5 87t80 49t57 19.5q59 16 118 22.5t124 16.5q25 4 50.5 7t49.5 8q33 4 55.5 8t38 14t22.5 30.5t7 59.5q0 61 -20.5 97t-51 54.5t-65.5 23.5t-65 5q-68 0 -115 -16t-76 -44t-41 -62.5t-10 -71.5h-234q-2 72 25 137.5t84 115.5t147.5 79.5 t219.5 29.5q158 0 247.5 -40t134 -98t55.5 -121.5t11 -108.5v-416q0 -37 2 -62.5t11.5 -41t26.5 -20.5t50 -3v-170q-47 -4 -69.5 -5t-38.5 -1q-25 0 -55.5 3t-61.5 16.5t-54.5 41t-31.5 74.5q-68 -86 -155 -120t-191 -34q-135 0 -212 35t-115 83t-47 99.5t-9 83.5zM252 1233 v168h676v-168h-338h-338zM330 285q0 -59 38 -100.5t124 -41.5q45 0 96 12.5t94 46.5t70.5 96t27.5 165v37q-20 -14 -54 -23.5t-122 -19.5q-63 -8 -113.5 -17.5t-86 -27t-55 -47t-19.5 -80.5z"/>
<glyph unicode="Ă" horiz-adv-x="1327" d="M-8 0l540 1434h263l540 -1434h-280l-105 301h-573l-105 -301h-280zM233 1870h211q8 -82 70.5 -124t148.5 -42t148.5 42t71.5 124h211q-12 -66 -45 -123t-86.5 -99t-129 -67t-170.5 -25q-96 0 -170.5 25t-128 67t-86 99t-45.5 123zM446 518h435l-217 637z"/>
<glyph unicode="ă" horiz-adv-x="1181" d="M76 276q0 82 30.5 135.5t71.5 87t80 49t57 19.5q59 16 118 22.5t124 16.5q25 4 50.5 7t49.5 8q33 4 55.5 8t38 14t22.5 30.5t7 59.5q0 61 -20.5 97t-51 54.5t-65.5 23.5t-65 5q-68 0 -115 -16t-76 -44t-41 -62.5t-10 -71.5h-234q-2 72 25 137.5t84 115.5t147.5 79.5 t219.5 29.5q158 0 247.5 -40t134 -98t55.5 -121.5t11 -108.5v-416q0 -37 2 -62.5t11.5 -41t26.5 -20.5t50 -3v-170q-47 -4 -69.5 -5t-38.5 -1q-25 0 -55.5 3t-61.5 16.5t-54.5 41t-31.5 74.5q-68 -86 -155 -120t-191 -34q-135 0 -212 35t-115 83t-47 99.5t-9 83.5zM186 1434 h209q4 -72 60.5 -111t134.5 -39t134 39t60 111h209q-10 -43 -31.5 -94.5t-67.5 -95.5t-120 -73.5t-184 -29.5q-111 0 -184.5 29.5t-119.5 73.5t-68.5 95.5t-31.5 94.5zM330 285q0 -59 38 -100.5t124 -41.5q45 0 96 12.5t94 46.5t70.5 96t27.5 165v37q-20 -14 -54 -23.5 t-122 -19.5q-63 -8 -113.5 -17.5t-86 -27t-55 -47t-19.5 -80.5z"/>
<glyph unicode="Ą" horiz-adv-x="1327" d="M-8 0l540 1434h263l540 -1434q-82 -27 -126 -92.5t-44 -153.5q0 -53 28 -88t77 -35q53 0 77.5 37t22.5 80h164q-2 -23 -13.5 -62.5t-42 -78.5t-88 -69t-149.5 -30q-72 0 -121 21.5t-79.5 55.5t-45 76t-14.5 85q0 70 35 141.5t114 112.5h-75l-105 301h-573l-105 -301h-280 zM446 518h435l-217 637z"/>
<glyph unicode="ą" horiz-adv-x="1181" d="M76 276q0 82 30.5 135.5t71.5 87t80 49t57 19.5q63 16 140 26.5t202 27.5q33 4 55.5 8t38 14t22.5 30.5t7 59.5q0 61 -20.5 97t-51 54.5t-65.5 23.5t-65 5q-68 0 -115 -16t-76 -44t-41 -62.5t-10 -71.5h-234q-2 72 25 137.5t84 115.5t147.5 79.5t219.5 29.5 q158 0 247.5 -40t134 -98t55.5 -121.5t11 -108.5v-416q0 -37 2 -62.5t11.5 -41t26.5 -20.5t50 -3v-170q-82 -27 -126 -92.5t-44 -153.5q0 -53 27.5 -88t77.5 -35q53 0 77.5 37t22.5 80h164q-2 -23 -13.5 -62.5t-42 -78.5t-88 -69t-149.5 -30q-72 0 -121 21.5t-79.5 55.5 t-45 76t-14.5 85q0 49 13 90t34.5 73t48.5 56.5t51 40.5q-31 10 -62.5 37t-41.5 86q-68 -86 -155 -120t-191 -34q-135 0 -212 35t-115 83t-47 99.5t-9 83.5zM330 285q0 -59 38 -100.5t124 -41.5q45 0 96 12.5t94 46.5t70.5 96t27.5 165v37q-20 -14 -54 -23.5t-122 -19.5 q-63 -8 -113.5 -17.5t-86 -27t-55 -47t-19.5 -80.5z"/>
<glyph unicode="Ć" horiz-adv-x="1501" d="M92 692q0 221 58.5 371.5t155.5 242t223 131.5t259 40q184 0 302 -50.5t185.5 -126t95.5 -164.5t32 -165h-260q-6 45 -24.5 95t-58.5 93t-105.5 72t-166.5 29q-121 0 -200.5 -45.5t-126.5 -122t-67.5 -178t-20.5 -212.5q0 -127 32.5 -225t91 -165.5t140.5 -102.5t178 -35 q88 0 152.5 27.5t107.5 72.5t63.5 101.5t24.5 113.5h260q-8 -82 -37.5 -175t-98 -173t-185.5 -132t-299 -52q-27 0 -90.5 4t-143.5 25.5t-163.5 66.5t-153.5 126t-115 206t-45 307zM584 1556l159 287h279l-242 -287h-196z"/>
<glyph unicode="ć" horiz-adv-x="1175" d="M88 518q0 133 28.5 226.5t75 156t103.5 99t113.5 54t107.5 22.5t86 5q119 0 209 -32.5t150.5 -86t94.5 -123t42 -145.5h-234q-4 41 -20.5 80t-47 69.5t-74.5 50t-106 19.5q-76 0 -127 -31.5t-81.5 -86t-44 -126t-13.5 -151.5q0 -123 28 -198.5t68.5 -118.5t91 -58.5 t93.5 -15.5q68 0 112.5 26.5t72.5 64.5t39 82t13 81h234q-6 -57 -29.5 -130t-79 -137.5t-147.5 -109.5t-236 -45q-133 0 -231 41t-162.5 114.5t-96.5 177t-32 226.5zM437 1163l143 271h266l-225 -271h-184z"/>
<glyph unicode="Ĉ" horiz-adv-x="1501" d="M92 692q0 221 58.5 371.5t155.5 242t223 131.5t259 40q184 0 302 -50.5t185.5 -126t95.5 -164.5t32 -165h-260q-6 45 -24.5 95t-58.5 93t-105.5 72t-166.5 29q-121 0 -200.5 -45.5t-126.5 -122t-67.5 -178t-20.5 -212.5q0 -127 32.5 -225t91 -165.5t140.5 -102.5t178 -35 q88 0 152.5 27.5t107.5 72.5t63.5 101.5t24.5 113.5h260q-8 -82 -37.5 -175t-98 -173t-185.5 -132t-299 -52q-27 0 -90.5 4t-143.5 25.5t-163.5 66.5t-153.5 126t-115 206t-45 307zM299 1556l275 287h352l275 -287h-246l-205 193l-205 -193h-246z"/>
<glyph unicode="ĉ" horiz-adv-x="1175" d="M88 518q0 133 28.5 226.5t75 156t103.5 99t113.5 54t107.5 22.5t86 5q119 0 209 -32.5t150.5 -86t94.5 -123t42 -145.5h-234q-4 41 -20.5 80t-47 69.5t-74.5 50t-106 19.5q-76 0 -127 -31.5t-81.5 -86t-44 -126t-13.5 -151.5q0 -123 28 -198.5t68.5 -118.5t91 -58.5 t93.5 -15.5q68 0 112.5 26.5t72.5 64.5t39 82t13 81h234q-6 -57 -29.5 -130t-79 -137.5t-147.5 -109.5t-236 -45q-133 0 -231 41t-162.5 114.5t-96.5 177t-32 226.5zM178 1163l246 271h328l246 -271h-226l-184 183l-184 -183h-226z"/>
<glyph unicode="Ċ" horiz-adv-x="1501" d="M92 692q0 221 58.5 371.5t155.5 242t223 131.5t259 40q184 0 302 -50.5t185.5 -126t95.5 -164.5t32 -165h-260q-6 45 -24.5 95t-58.5 93t-105.5 72t-166.5 29q-121 0 -200.5 -45.5t-126.5 -122t-67.5 -178t-20.5 -212.5q0 -127 32.5 -225t91 -165.5t140.5 -102.5t178 -35 q88 0 152.5 27.5t107.5 72.5t63.5 101.5t24.5 113.5h260q-8 -82 -37.5 -175t-98 -173t-185.5 -132t-299 -52q-27 0 -90.5 4t-143.5 25.5t-163.5 66.5t-153.5 126t-115 206t-45 307zM626 1581v180h263v-180h-263z"/>
<glyph unicode="ċ" horiz-adv-x="1175" d="M88 518q0 133 28.5 226.5t75 156t103.5 99t113.5 54t107.5 22.5t86 5q119 0 209 -32.5t150.5 -86t94.5 -123t42 -145.5h-234q-4 41 -20.5 80t-47 69.5t-74.5 50t-106 19.5q-76 0 -127 -31.5t-81.5 -86t-44 -126t-13.5 -151.5q0 -123 28 -198.5t68.5 -118.5t91 -58.5 t93.5 -15.5q68 0 112.5 26.5t72.5 64.5t39 82t13 81h234q-6 -57 -29.5 -130t-79 -137.5t-147.5 -109.5t-236 -45q-133 0 -231 41t-162.5 114.5t-96.5 177t-32 226.5zM464 1217v217h246v-217h-246z"/>
<glyph unicode="Č" horiz-adv-x="1501" d="M92 692q0 221 58.5 371.5t155.5 242t223 131.5t259 40q184 0 302 -50.5t185.5 -126t95.5 -164.5t32 -165h-260q-6 45 -24.5 95t-58.5 93t-105.5 72t-166.5 29q-121 0 -200.5 -45.5t-126.5 -122t-67.5 -178t-20.5 -212.5q0 -127 32.5 -225t91 -165.5t140.5 -102.5t178 -35 q88 0 152.5 27.5t107.5 72.5t63.5 101.5t24.5 113.5h260q-8 -82 -37.5 -175t-98 -173t-185.5 -132t-299 -52q-27 0 -90.5 4t-143.5 25.5t-163.5 66.5t-153.5 126t-115 206t-45 307zM299 1843h246l205 -192l205 192h246l-275 -287h-352z"/>
<glyph unicode="č" horiz-adv-x="1175" d="M88 518q0 133 28.5 226.5t75 156t103.5 99t113.5 54t107.5 22.5t86 5q119 0 209 -32.5t150.5 -86t94.5 -123t42 -145.5h-234q-4 41 -20.5 80t-47 69.5t-74.5 50t-106 19.5q-76 0 -127 -31.5t-81.5 -86t-44 -126t-13.5 -151.5q0 -123 28 -198.5t68.5 -118.5t91 -58.5 t93.5 -15.5q68 0 112.5 26.5t72.5 64.5t39 82t13 81h234q-6 -57 -29.5 -130t-79 -137.5t-147.5 -109.5t-236 -45q-133 0 -231 41t-162.5 114.5t-96.5 177t-32 226.5zM178 1434h226l184 -183l184 183h226l-246 -271h-328z"/>
<glyph unicode="Ď" horiz-adv-x="1527" d="M174 0v1434h569q147 0 256 -32t186 -85t126 -124t76.5 -150.5t38 -162.5t10.5 -159q0 -162 -35 -278.5t-93.5 -196.5t-135 -128t-159.5 -75t-166 -35t-155 -8h-518zM313 1843h246l205 -192l205 192h246l-275 -287h-352zM436 217h244q33 0 80 4t99 19.5t105.5 47t95.5 87 t68.5 138.5t26.5 204q0 111 -21.5 190.5t-56.5 135t-80 90t-93 53t-96 25t-87 6.5h-285v-1000z"/>
<glyph unicode="ď" horiz-adv-x="1546" d="M88 514q0 111 27.5 213t88 181t154 126t224.5 47q10 0 51 -2t92 -16t102.5 -44t81.5 -85v500h246v-1434h-225v102h-4q-37 -47 -83 -74.5t-91 -43t-88 -20.5t-74 -5q-92 0 -181.5 29.5t-161 96.5t-115.5 172t-44 257zM350 512q0 -131 34 -207t81 -115.5t97 -51t81 -11.5 q66 0 119 28.5t90 81t56.5 124t19.5 157.5q0 127 -30 205t-74 120t-94 56t-89 14q-55 0 -108.5 -21.5t-93.5 -68.5t-64.5 -123.5t-24.5 -187.5zM1310 834v141q59 4 98.5 47t39.5 113v22h-138v277h271v-285q0 -88 -24.5 -146.5t-63.5 -94.5t-87 -53t-96 -21z"/>
<glyph unicode="Đ" horiz-adv-x="1548" d="M0 729v168h195v537h569q147 0 255.5 -32t185.5 -85t126 -124t77 -150.5t38 -162.5t10 -159q0 -162 -35 -278.5t-93 -196.5t-135 -128t-160 -75t-166 -35t-154 -8h-518v729h-195zM457 217h243q31 0 79 4t100.5 19.5t105.5 47t95 87t69 138.5t27 204q0 111 -21.5 190.5 t-56.5 135t-80 90t-93 53t-96.5 25t-87.5 6.5h-284v-320h403v-168h-403v-512z"/>
<glyph unicode="đ" horiz-adv-x="1318" d="M88 514q0 111 27.5 213t88 181t154 126t224.5 47q10 0 51 -2t92 -16t102.5 -44t81.5 -85v235h-409v140h409v125h246v-125h164v-140h-164v-1169h-225v102h-4q-37 -47 -83 -74.5t-91 -43t-88 -20.5t-74 -5q-92 0 -181.5 29.5t-161 96.5t-115.5 172t-44 257zM350 512 q0 -131 34 -207t81 -115.5t97 -51t81 -11.5q66 0 119 28.5t90 81t56.5 124t19.5 157.5q0 127 -30 205t-74 120t-94 56t-89 14q-55 0 -108.5 -21.5t-93.5 -68.5t-64.5 -123.5t-24.5 -187.5z"/>
<glyph unicode="Ē" horiz-adv-x="1306" d="M174 0v1434h1075v-217h-813v-373h729v-217h-729v-410h836v-217h-1098zM315 1556v164h676v-164h-338h-338z"/>
<glyph unicode="ē" horiz-adv-x="1216" d="M88 502q0 131 33 238.5t98.5 183t164.5 116.5t234 41q113 0 194 -27.5t136.5 -73.5t89 -104.5t53 -122t26.5 -125t9 -112.5q0 -16 1 -29.5t1 -29.5h-778q0 -49 13.5 -107.5t47 -107.5t89 -82t137.5 -33q41 0 82 11.5t74.5 33t56 54t29.5 75.5h233q-10 -51 -35.5 -110.5 t-82 -110.5t-147.5 -86t-231 -35q-27 0 -75.5 4t-107 20.5t-120 50.5t-111.5 94t-82 151.5t-32 222.5zM270 1233v168h676v-168h-338h-338zM350 625h518q0 35 -9 85t-34.5 95t-75 76.5t-128.5 31.5q-72 0 -124.5 -26.5t-85 -67.5t-48 -92t-13.5 -102z"/>
<glyph unicode="Ė" horiz-adv-x="1306" d="M174 0v1434h1075v-217h-813v-373h729v-217h-729v-410h836v-217h-1098zM522 1581v180h263v-180h-263z"/>
<glyph unicode="ė" horiz-adv-x="1216" d="M88 502q0 131 33 238.5t98.5 183t164.5 116.5t234 41q113 0 194 -27.5t136.5 -73.5t89 -104.5t53 -122t26.5 -125t9 -112.5q0 -16 1 -29.5t1 -29.5h-778q0 -49 13.5 -107.5t47 -107.5t89 -82t137.5 -33q41 0 82 11.5t74.5 33t56 54t29.5 75.5h233q-10 -51 -35.5 -110.5 t-82 -110.5t-147.5 -86t-231 -35q-27 0 -75.5 4t-107 20.5t-120 50.5t-111.5 94t-82 151.5t-32 222.5zM350 625h518q0 35 -9 85t-34.5 95t-75 76.5t-128.5 31.5q-72 0 -124.5 -26.5t-85 -67.5t-48 -92t-13.5 -102zM485 1217v217h246v-217h-246z"/>
<glyph unicode="Ę" horiz-adv-x="1306" d="M174 0v1434h1075v-217h-813v-373h729v-217h-729v-410h836v-217h-336q-82 -27 -126 -92.5t-44 -153.5q0 -53 27.5 -88t76.5 -35q53 0 78 37t23 80h164q-2 -23 -13.5 -62.5t-42 -78.5t-88 -69t-149.5 -30q-72 0 -121 21.5t-80 55.5t-45 76t-14 85q0 70 34.5 141.5 t114.5 112.5h-557z"/>
<glyph unicode="ę" horiz-adv-x="1216" d="M88 502q0 131 33 238.5t98.5 183t164.5 116.5t234 41q123 0 216.5 -33.5t158 -108.5t99 -193.5t36.5 -288.5h-778q0 -49 13.5 -107.5t47 -107.5t89 -82t137.5 -33q41 0 82 11.5t74.5 33t56 54t29.5 75.5h233q-12 -68 -40 -117t-57.5 -82.5t-57 -52t-39.5 -24.5 q-41 -23 -80 -35q-78 -35 -111 -100.5t-33 -135.5q0 -53 28 -88t77 -35q53 0 77.5 37t22.5 80h164q-2 -23 -13.5 -62.5t-42 -78.5t-88 -69t-149.5 -30q-96 0 -148.5 34t-77 76t-29.5 80t-5 48q0 66 23.5 118t66.5 95q-92 -2 -183 25.5t-164 92t-119 169t-46 256.5zM350 625 h518v16t-2 16q-8 76 -32.5 126.5t-59.5 79t-75 39.5t-78 11q-72 0 -124.5 -26.5t-85 -67.5t-48 -92t-13.5 -102z"/>
<glyph unicode="Ě" horiz-adv-x="1306" d="M174 0v1434h1075v-217h-813v-373h729v-217h-729v-410h836v-217h-1098zM202 1843h246l205 -192l205 192h246l-275 -287h-352z"/>
<glyph unicode="ě" horiz-adv-x="1216" d="M88 502q0 131 33 238.5t98.5 183t164.5 116.5t234 41q113 0 194 -27.5t136.5 -73.5t89 -104.5t53 -122t26.5 -125t9 -112.5q0 -16 1 -29.5t1 -29.5h-778q0 -49 13.5 -107.5t47 -107.5t89 -82t137.5 -33q41 0 82 11.5t74.5 33t56 54t29.5 75.5h233q-10 -51 -35.5 -110.5 t-82 -110.5t-147.5 -86t-231 -35q-27 0 -75.5 4t-107 20.5t-120 50.5t-111.5 94t-82 151.5t-32 222.5zM198 1434h226l184 -183l184 183h226l-246 -271h-328zM350 625h518q0 35 -9 85t-34.5 95t-75 76.5t-128.5 31.5q-72 0 -124.5 -26.5t-85 -67.5t-48 -92t-13.5 -102z"/>
<glyph unicode="Ĝ" horiz-adv-x="1548" d="M92 692q0 168 34 292t91 211t130 141.5t152 86t155.5 43t142.5 11.5q184 0 300.5 -48.5t184.5 -120t96.5 -156.5t34.5 -161h-260q-6 41 -24.5 88t-59.5 87t-107.5 67t-164.5 27q-137 0 -220 -56.5t-128.5 -139.5t-60.5 -181.5t-15 -180.5q0 -160 45 -262t112.5 -161.5 t144.5 -82t140 -22.5q47 0 111.5 14.5t123 54.5t100.5 113.5t44 194.5h-350v217h586v-768h-189v195h-4q-57 -111 -165.5 -174.5t-278.5 -63.5q-125 0 -250 36t-225.5 121t-163 226t-62.5 352zM323 1556l275 287h352l275 -287h-246l-205 193l-205 -193h-246z"/>
<glyph unicode="ĝ" horiz-adv-x="1310" d="M96 526q0 152 44 257.5t116 172t161 96t181 29.5q31 0 74 -5t88 -20.5t91 -44t83 -73.5h4v102h225v-993q0 -217 -139 -329.5t-387 -112.5q-190 0 -311 69.5t-144 225.5h226q8 -37 33.5 -60.5t59.5 -37t72.5 -19.5t73.5 -6q94 0 148.5 28.5t82 70.5t34 89t6.5 86v80 q-31 -55 -82.5 -85t-102.5 -44t-92 -16t-51 -2q-131 0 -224.5 45t-153.5 119.5t-88 173t-28 204.5zM245 1163l246 271h328l246 -271h-226l-184 183l-184 -183h-226zM358 524q0 -127 34 -201.5t80 -112.5t96 -48t83 -10q53 0 104.5 22.5t91.5 68.5t64.5 117.5t24.5 169.5 q0 106 -24.5 180t-64.5 119t-91 64.5t-107 19.5q-137 0 -214 -102.5t-77 -286.5z"/>
<glyph unicode="Ğ" horiz-adv-x="1548" d="M92 692q0 168 34 292t91 211t130 141.5t152 86t155.5 43t142.5 11.5q184 0 300.5 -48.5t184.5 -120t96.5 -156.5t34.5 -161h-260q-6 41 -24.5 88t-59.5 87t-107.5 67t-164.5 27q-137 0 -220 -56.5t-128.5 -139.5t-60.5 -181.5t-15 -180.5q0 -160 45 -262t112.5 -161.5 t144.5 -82t140 -22.5q47 0 111.5 14.5t123 54.5t100.5 113.5t44 194.5h-350v217h586v-768h-189v195h-4q-57 -111 -165.5 -174.5t-278.5 -63.5q-125 0 -250 36t-225.5 121t-163 226t-62.5 352zM344 1870h211q8 -82 70.5 -124t148.5 -42t148.5 42t71.5 124h211 q-12 -66 -45 -123t-86.5 -99t-129 -67t-170.5 -25q-96 0 -170.5 25t-128 67t-86 99t-45.5 123z"/>
<glyph unicode="ğ" horiz-adv-x="1310" d="M96 526q0 152 44 257.5t116 172t161 96t181 29.5q31 0 74 -5t88 -20.5t91 -44t83 -73.5h4v102h225v-993q0 -217 -139 -329.5t-387 -112.5q-190 0 -311 69.5t-144 225.5h226q8 -37 33.5 -60.5t59.5 -37t72.5 -19.5t73.5 -6q94 0 148.5 28.5t82 70.5t34 89t6.5 86v80 q-31 -55 -82.5 -85t-102.5 -44t-92 -16t-51 -2q-131 0 -224.5 45t-153.5 119.5t-88 173t-28 204.5zM252 1434h209q4 -72 60.5 -111t134.5 -39t134 39t60 111h209q-10 -43 -31.5 -94.5t-67.5 -95.5t-120 -73.5t-184 -29.5q-111 0 -184.5 29.5t-119.5 73.5t-68.5 95.5 t-31.5 94.5zM358 524q0 -127 34 -201.5t80 -112.5t96 -48t83 -10q53 0 104.5 22.5t91.5 68.5t64.5 117.5t24.5 169.5q0 106 -24.5 180t-64.5 119t-91 64.5t-107 19.5q-137 0 -214 -102.5t-77 -286.5z"/>
<glyph unicode="Ġ" horiz-adv-x="1548" d="M92 692q0 168 34 292t91 211t130 141.5t152 86t155.5 43t142.5 11.5q184 0 300.5 -48.5t184.5 -120t96.5 -156.5t34.5 -161h-260q-6 41 -24.5 88t-59.5 87t-107.5 67t-164.5 27q-137 0 -220 -56.5t-128.5 -139.5t-60.5 -181.5t-15 -180.5q0 -160 45 -262t112.5 -161.5 t144.5 -82t140 -22.5q47 0 111.5 14.5t123 54.5t100.5 113.5t44 194.5h-350v217h586v-768h-189v195h-4q-57 -111 -165.5 -174.5t-278.5 -63.5q-125 0 -250 36t-225.5 121t-163 226t-62.5 352zM651 1581v180h263v-180h-263z"/>
<glyph unicode="ġ" horiz-adv-x="1310" d="M96 526q0 152 44 257.5t116 172t161 96t181 29.5q31 0 74 -5t88 -20.5t91 -44t83 -73.5h4v102h225v-993q0 -217 -139 -329.5t-387 -112.5q-190 0 -311 69.5t-144 225.5h226q8 -37 33.5 -60.5t59.5 -37t72.5 -19.5t73.5 -6q94 0 148.5 28.5t82 70.5t34 89t6.5 86v80 q-31 -55 -82.5 -85t-102.5 -44t-92 -16t-51 -2q-131 0 -224.5 45t-153.5 119.5t-88 173t-28 204.5zM358 524q0 -127 34 -201.5t80 -112.5t96 -48t83 -10q53 0 104.5 22.5t91.5 68.5t64.5 117.5t24.5 169.5q0 106 -24.5 180t-64.5 119t-91 64.5t-107 19.5q-137 0 -214 -102.5 t-77 -286.5zM532 1217v217h246v-217h-246z"/>
<glyph unicode="Ģ" horiz-adv-x="1548" d="M92 692q0 168 34 292t91 211t130 141.5t152 86t155.5 43t142.5 11.5q184 0 300.5 -48.5t184.5 -120t96.5 -156.5t34.5 -161h-260q-6 41 -24.5 88t-59.5 87t-107.5 67t-164.5 27q-137 0 -220 -56.5t-128.5 -139.5t-60.5 -181.5t-15 -180.5q0 -160 45 -262t112.5 -161.5 t144.5 -82t140 -22.5q47 0 111.5 14.5t123 54.5t100.5 113.5t44 194.5h-350v217h586v-768h-189v195h-4q-57 -111 -165.5 -174.5t-278.5 -63.5q-125 0 -250 36t-225.5 121t-163 226t-62.5 352zM639 -123h271v-203q0 -80 -34 -125t-80 -67.5t-91 -28.5t-66 -6v131 q51 -2 94.5 16.5t43.5 59.5v18h-138v205z"/>
<glyph unicode="ģ" horiz-adv-x="1310" d="M96 526q0 152 44 257.5t116 172t161 96t181 29.5q31 0 74 -5t88 -20.5t91 -44t83 -73.5h4v102h225v-993q0 -217 -139 -329.5t-387 -112.5q-190 0 -311 69.5t-144 225.5h226q8 -37 33.5 -60.5t59.5 -37t72.5 -19.5t73.5 -6q94 0 148.5 28.5t82 70.5t34 89t6.5 86v80 q-31 -55 -82.5 -85t-102.5 -44t-92 -16t-51 -2q-131 0 -224.5 45t-153.5 119.5t-88 173t-28 204.5zM358 524q0 -127 34 -201.5t80 -112.5t96 -48t83 -10q53 0 104.5 22.5t91.5 68.5t64.5 117.5t24.5 169.5q0 106 -24.5 180t-64.5 119t-91 64.5t-107 19.5q-137 0 -214 -102.5 t-77 -286.5zM487 1145v203q0 80 34 125t80 67.5t91 28.5t66 6v-131q-51 2 -94.5 -16.5t-43.5 -59.5v-18h138v-205h-271z"/>
<glyph unicode="Ĥ" horiz-adv-x="1511" d="M174 0v1434h262v-574h639v574h262v-1434h-262v643h-639v-643h-262zM305 1556l275 287h352l275 -287h-246l-205 193l-205 -193h-246z"/>
<glyph unicode="ĥ" horiz-adv-x="1241" d="M-134 1548l246 271h328l246 -271h-226l-184 183l-184 -183h-226zM147 0v1434h246v-531q27 45 67 79t86 55.5t95 32.5t94 11q133 0 206 -49t106.5 -114.5t40 -129t6.5 -92.5v-696h-246v618q0 47 -3 99.5t-21.5 95.5t-58.5 71.5t-112 28.5q-25 0 -68.5 -9t-86.5 -43 t-74 -99.5t-31 -179.5v-582h-246z"/>
<glyph unicode="Ħ" horiz-adv-x="1511" d="M8 1135v168h166v131h262v-131h639v131h262v-131h166v-168h-166v-1135h-262v643h-639v-643h-262v1135h-166zM436 860h639v275h-639v-275z"/>
<glyph unicode="ħ" horiz-adv-x="1241" d="M16 1182v147h131v105h246v-105h299v-147h-299v-279q27 45 67 79t86 55.5t95 32.5t94 11q133 0 206 -49t106.5 -114.5t40 -129t6.5 -92.5v-696h-246v618q0 47 -3 99.5t-21.5 95.5t-58.5 71.5t-112 28.5q-25 0 -68.5 -9t-86.5 -43t-74 -99.5t-31 -179.5v-582h-246v1182 h-131z"/>
<glyph unicode="Ĩ" horiz-adv-x="610" d="M-123 1581q6 43 23.5 85t50.5 76t79 55.5t112 21.5q49 0 84.5 -9.5t89.5 -31.5q27 -10 46 -19.5t35.5 -15.5t35 -10t40.5 -4q49 0 75 22.5t30 50.5h164q-8 -39 -24.5 -81t-47.5 -76.5t-78 -57t-115 -22.5q-47 0 -83.5 11t-90.5 34q-41 16 -78.5 30.5t-78.5 14.5 t-71 -19.5t-34 -54.5h-164zM174 0v1434h262v-1434h-262z"/>
<glyph unicode="ĩ" horiz-adv-x="540" d="M-119 1241q6 41 25.5 79t50.5 66.5t73 46t93 17.5q47 0 83 -11.5t75 -29.5q45 -20 71.5 -34.5t69.5 -14.5q51 0 70.5 25.5t23.5 48.5h152q-16 -100 -87 -154.5t-155 -54.5q-45 0 -83 13t-75 32q-37 16 -69.5 30.5t-71.5 14.5q-51 0 -70.5 -25.5t-23.5 -48.5h-152zM147 0 v1040h246v-1040h-246z"/>
<glyph unicode="Ī" horiz-adv-x="610" d="M-33 1556v164h676v-164h-338h-338zM174 0v1434h262v-1434h-262z"/>
<glyph unicode="ī" horiz-adv-x="540" d="M-70 1233v168h676v-168h-338h-338zM147 0v1040h246v-1040h-246z"/>
<glyph unicode="Į" horiz-adv-x="610" d="M82 -254q0 70 35 141.5t114 112.5h-57v1434h262v-1434q-53 -18 -92 -53q-29 -27 -53.5 -74t-24.5 -119q0 -53 28 -88t77 -35q53 0 77.5 37t22.5 80h164q-2 -23 -13.5 -62.5t-42 -78.5t-88 -69t-149.5 -30q-72 0 -121 21.5t-79.5 55.5t-45 76t-14.5 85z"/>
<glyph unicode="į" horiz-adv-x="540" d="M39 -254q0 59 24.5 129t83.5 125v1040h246v-1040q-82 -27 -126 -92.5t-44 -153.5q0 -53 28 -88t77 -35q53 0 77.5 37t22.5 80h164q-2 -23 -13.5 -62.5t-42 -78.5t-88 -69t-149.5 -30q-72 0 -121 21.5t-79.5 55.5t-45 76t-14.5 85zM147 1217v217h246v-217h-246z"/>
<glyph unicode="İ" horiz-adv-x="610" d="M174 0v1434h262v-1434h-262zM174 1581v180h263v-180h-263z"/>
<glyph unicode="ı" horiz-adv-x="540" d="M147 0v1040h246v-1040h-246z"/>
<glyph unicode="Ĵ" horiz-adv-x="1128" d="M47 418v80h262v-60q0 -92 21.5 -144t54.5 -79t68.5 -34t64.5 -7q39 0 76 8t64.5 39t44 90.5t16.5 163.5v959h262v-926q0 -90 -11.5 -187.5t-57.5 -178.5t-139 -133t-257 -52q-143 0 -234.5 42t-143.5 108.5t-71.5 148.5t-19.5 162zM376 1556l275 287h352l275 -287h-246 l-205 193l-205 -193h-246z"/>
<glyph unicode="ĵ" horiz-adv-x="540" d="M-139 1163l245 271h328l246 -271h-225l-185 183l-184 -183h-225zM-39 -211q100 2 143 37t43 133v1081h246v-1095q0 -68 -9 -128.5t-39 -105.5t-88 -71.5t-157 -26.5q-27 0 -67.5 2t-71.5 6v168z"/>
<glyph unicode="Ķ" horiz-adv-x="1445" d="M174 0v1434h262v-646l627 646h352l-594 -594l633 -840h-352l-473 664l-193 -187v-477h-262zM587 -123h271v-203q0 -80 -34 -125t-80 -67.5t-91 -28.5t-66 -6v131q51 -2 94.5 16.5t43.5 59.5v18h-138v205z"/>
<glyph unicode="ķ" horiz-adv-x="1155" d="M147 0v1434h246v-850l434 456h291l-405 -405l450 -635h-286l-334 485l-150 -151v-334h-246zM442 -123h271v-203q0 -80 -34 -125t-80 -67.5t-91 -28.5t-66 -6v131q51 -2 94.5 16.5t43.5 59.5v18h-138v205z"/>
<glyph unicode="Ĺ" horiz-adv-x="1122" d="M174 0v1434h262v-1217h699v-217h-961zM396 1556l159 287h279l-242 -287h-196z"/>
<glyph unicode="ĺ" horiz-adv-x="540" d="M147 0v1434h246v-1434h-246zM185 1540l143 271h266l-225 -271h-184z"/>
<glyph unicode="Ļ" horiz-adv-x="1122" d="M174 0v1434h262v-1217h699v-217h-961zM426 -123h271v-203q0 -80 -34 -125t-80 -67.5t-91 -28.5t-66 -6v131q51 -2 94.5 16.5t43.5 59.5v18h-138v205z"/>
<glyph unicode="ļ" horiz-adv-x="540" d="M122 -123h271v-203q0 -80 -34 -125t-80 -67.5t-91 -28.5t-66 -6v131q51 -2 94.5 16.5t43.5 59.5v18h-138v205zM147 0v1434h246v-1434h-246z"/>
<glyph unicode="Ľ" horiz-adv-x="1122" d="M174 0v1434h262v-1217h699v-217h-961zM847 834v141q59 4 98.5 47t39.5 113v22h-138v277h271v-285q0 -88 -24.5 -146.5t-63.5 -94.5t-87 -53t-96 -21z"/>
<glyph unicode="ľ" horiz-adv-x="788" d="M147 0v1434h246v-1434h-246zM553 834v141q59 4 98.5 47t39.5 113v22h-138v277h271v-285q0 -88 -24.5 -146.5t-63.5 -94.5t-87 -53t-96 -21z"/>
<glyph unicode="Ŀ" horiz-adv-x="1122" d="M174 0v1434h262v-1217h699v-217h-961zM735 607v217h246v-217h-246z"/>
<glyph unicode="ŀ" horiz-adv-x="817" d="M147 0v1434h246v-1434h-246zM540 607v217h246v-217h-246z"/>
<glyph unicode="Ł" horiz-adv-x="1105" d="M20 135v225l138 138v936h262v-707l405 416v-225l-405 -416v-285h698v-217h-960v272z"/>
<glyph unicode="ł" horiz-adv-x="655" d="M-41 471v188l246 168v607h246v-463l245 172v-189l-245 -172v-782h-246v639z"/>
<glyph unicode="Ń" horiz-adv-x="1576" d="M174 0v1434h279l688 -1018v1018h262v-1434h-279l-688 1018v-1018h-262zM623 1556l159 287h279l-242 -287h-196z"/>
<glyph unicode="ń" horiz-adv-x="1241" d="M147 0v1040h246v-137q27 45 67 79t86 55.5t95 32.5t94 11q133 0 206 -49t106.5 -114.5t40 -129t6.5 -92.5v-696h-246v618q0 47 -3 99.5t-21.5 95.5t-58.5 71.5t-112 28.5q-25 0 -68.5 -9t-86.5 -43t-74 -99.5t-31 -179.5v-582h-246zM469 1163l143 271h266l-225 -271h-184 z"/>
<glyph unicode="Ņ" horiz-adv-x="1576" d="M174 0v1434h279l688 -1018v1018h262v-1434h-279l-688 1018v-1018h-262zM653 -123h271v-203q0 -80 -34 -125t-80 -67.5t-91 -28.5t-66 -6v131q51 -2 94.5 16.5t43.5 59.5v18h-138v205z"/>
<glyph unicode="ņ" horiz-adv-x="1241" d="M147 0v1040h246v-137q27 45 67 79t86 55.5t95 32.5t94 11q133 0 206 -49t106.5 -114.5t40 -129t6.5 -92.5v-696h-246v618q0 47 -3 99.5t-21.5 95.5t-58.5 71.5t-112 28.5q-25 0 -68.5 -9t-86.5 -43t-74 -99.5t-31 -179.5v-582h-246zM485 -123h271v-203q0 -80 -34 -125 t-80 -67.5t-91 -28.5t-66 -6v131q51 -2 94.5 16.5t43.5 59.5v18h-138v205z"/>
<glyph unicode="Ň" horiz-adv-x="1576" d="M174 0v1434h279l688 -1018v1018h262v-1434h-279l-688 1018v-1018h-262zM338 1843h246l205 -192l205 192h246l-275 -287h-352z"/>
<glyph unicode="ň" horiz-adv-x="1241" d="M147 0v1040h246v-137q27 45 67 79t86 55.5t95 32.5t94 11q133 0 206 -49t106.5 -114.5t40 -129t6.5 -92.5v-696h-246v618q0 47 -3 99.5t-21.5 95.5t-58.5 71.5t-112 28.5q-25 0 -68.5 -9t-86.5 -43t-74 -99.5t-31 -179.5v-582h-246zM211 1434h226l184 -183l184 183h226 l-246 -271h-328z"/>
<glyph unicode="Ō" horiz-adv-x="1589" d="M92 717q0 186 43 314t110.5 213t150.5 132t161 68.5t142.5 27t95.5 5.5t95 -5.5t142 -27t161 -68.5t150.5 -132t110.5 -213t43 -314t-43 -314.5t-110.5 -213.5t-150.5 -132t-161 -68.5t-142.5 -26.5t-94.5 -5q-31 0 -95.5 5t-142.5 26.5t-161 68.5t-150.5 132t-110.5 213 t-43 315zM373 717q0 -84 16.5 -178.5t62.5 -176t128 -135t215 -53.5t215 53.5t128 135t62.5 176t16.5 178.5q0 82 -16.5 177t-62.5 177t-128 135.5t-215 53.5t-215 -53.5t-128 -135.5t-62.5 -177t-16.5 -177zM456 1556v164h676v-164h-338h-338z"/>
<glyph unicode="ō" d="M88 520q0 49 9 110.5t32 124t61.5 121t98 104.5t142.5 73.5t194 27.5t193.5 -27.5t142 -73.5t98.5 -104.5t61.5 -121t31.5 -124t9 -110.5t-9 -110.5t-31.5 -124t-61.5 -121t-98.5 -104.5t-142.5 -73.5t-193 -27.5q-111 0 -194 27.5t-142.5 73.5t-98 104.5t-61.5 121 t-32 123t-9 111.5zM286 1233v168h676v-168h-338h-338zM350 520q0 -133 31 -212t74 -118.5t90 -51t80 -11.5t80 11.5t90 51t73.5 118.5t30.5 212t-30.5 212t-73.5 119t-90 51t-80 11t-80 -11t-90 -51t-74 -119t-31 -212z"/>
<glyph unicode="Ő" horiz-adv-x="1589" d="M92 717q0 186 43 314t110.5 213t150.5 132t161 68.5t142.5 27t95.5 5.5t95 -5.5t142 -27t161 -68.5t150.5 -132t110.5 -213t43 -314t-43 -314.5t-110.5 -213.5t-150.5 -132t-161 -68.5t-142.5 -26.5t-94.5 -5q-31 0 -95.5 5t-142.5 26.5t-161 68.5t-150.5 132t-110.5 213 t-43 315zM373 717q0 -84 16.5 -178.5t62.5 -176t128 -135t215 -53.5t215 53.5t128 135t62.5 176t16.5 178.5q0 82 -16.5 177t-62.5 177t-128 135.5t-215 53.5t-215 -53.5t-128 -135.5t-62.5 -177t-16.5 -177zM505 1556l160 287h266l-241 -287h-185zM858 1556l159 287h267 l-242 -287h-184z"/>
<glyph unicode="ő" d="M88 520q0 49 9 110.5t32 124t61.5 121t98 104.5t142.5 73.5t194 27.5t193.5 -27.5t142 -73.5t98.5 -104.5t61.5 -121t31.5 -124t9 -110.5t-9 -110.5t-31.5 -124t-61.5 -121t-98.5 -104.5t-142.5 -73.5t-193 -27.5q-111 0 -194 27.5t-142.5 73.5t-98 104.5t-61.5 121 t-32 123t-9 111.5zM311 1163l144 271h246l-226 -271h-164zM350 520q0 -133 31 -212t74 -118.5t90 -51t80 -11.5t80 11.5t90 51t73.5 118.5t30.5 212t-30.5 212t-73.5 119t-90 51t-80 11t-80 -11t-90 -51t-74 -119t-31 -212zM660 1163l143 271h246l-226 -271h-163z"/>
<glyph unicode="Œ" horiz-adv-x="2349" d="M92 717q0 184 43 313t110.5 213t150.5 131t161 69.5t142.5 28t95.5 5.5q43 0 96 -5.5t109.5 -25t111.5 -55t105 -97.5v140h1075v-217h-813v-373h729v-217h-729v-410h835v-217h-1097v139q-49 -61 -104.5 -97t-112 -55.5t-109.5 -24.5t-96 -5q-31 0 -95.5 5t-142.5 27.5 t-161 69.5t-150.5 131t-110.5 212t-43 315zM373 717q0 -84 16.5 -178.5t62.5 -176t128 -135t215 -53.5t215 53.5t128 135t62.5 176t16.5 178.5q0 82 -16.5 177t-62.5 177t-128 135.5t-215 53.5t-215 -53.5t-128 -135.5t-62.5 -177t-16.5 -177z"/>
<glyph unicode="œ" horiz-adv-x="2011" d="M88 520q0 49 9 110.5t32 124t61.5 121t98 104.5t142.5 73.5t194 27.5q41 0 90 -5t100 -21.5t102.5 -46t98.5 -78.5q25 25 59.5 52.5t82.5 49t111.5 35.5t143.5 14q252 0 381 -149.5t129 -415.5v-59h-778q0 -49 13 -107.5t47 -107.5t89.5 -82t137.5 -33q41 0 81.5 11.5 t74.5 33t56.5 54t28.5 75.5h234q-10 -51 -36 -110.5t-82 -110.5t-147.5 -86t-230.5 -35q-88 0 -153.5 15.5t-112.5 39t-79 49t-50 48.5q-47 -49 -98.5 -79t-102.5 -46.5t-100 -21.5t-90 -5q-111 0 -194 27.5t-142.5 73.5t-98 104.5t-61.5 121t-32 123t-9 111.5zM350 520 q0 -133 31 -212t74 -118.5t90 -51t80 -11.5t80 11.5t90 51t73.5 118.5t30.5 212t-30.5 212t-73.5 119t-90.5 51t-79.5 11q-33 0 -80 -11t-90 -51t-74 -119t-31 -212zM1145 625h518q0 35 -9 85t-35 95t-75 76.5t-129 31.5q-72 0 -124 -26.5t-84.5 -67.5t-48 -92t-13.5 -102z "/>
<glyph unicode="Ŕ" horiz-adv-x="1449" d="M174 0v1434h641q66 0 155 -9.5t170 -49.5t137 -119.5t56 -221.5q0 -80 -21.5 -139t-55 -102t-76.5 -69t-86 -38v-4q76 -25 118.5 -68t62 -95t25 -106.5t5.5 -103.5q0 -72 1 -120t6 -81.5t15 -58t31 -49.5h-271q-16 25 -24 48.5t-13.5 56t-6.5 78.5t-1 116q0 49 -6 97 t-35.5 87t-90 62.5t-171.5 23.5h-303v-569h-262zM436 786h328q49 0 102.5 6.5t97.5 29t71.5 64.5t27.5 115q0 78 -31 121t-76 64.5t-96 26t-90 4.5h-334v-431zM560 1556l159 287h279l-242 -287h-196z"/>
<glyph unicode="ŕ" horiz-adv-x="823" d="M147 0v1040h246v-190h4q27 66 70 106.5t92 64t100.5 32t94.5 8.5h41v-160q-121 2 -198 -27.5t-120 -77.5t-60.5 -108.5t-21.5 -116.5q-2 -27 -2 -53v-53v-465h-246zM260 1163l143 271h266l-225 -271h-184z"/>
<glyph unicode="Ŗ" horiz-adv-x="1449" d="M174 0v1434h641q66 0 155 -9.5t170 -49.5t137 -119.5t56 -221.5q0 -80 -21.5 -139t-55 -102t-76.5 -69t-86 -38v-4q76 -25 118.5 -68t62 -95t25 -106.5t5.5 -103.5q0 -72 1 -120t6 -81.5t15 -58t31 -49.5h-271q-16 25 -24 48.5t-13.5 56t-6.5 78.5t-1 116q0 49 -6 97 t-35.5 87t-90 62.5t-171.5 23.5h-303v-569h-262zM436 786h328q49 0 102.5 6.5t97.5 29t71.5 64.5t27.5 115q0 78 -31 121t-76 64.5t-96 26t-90 4.5h-334v-431zM589 -123h271v-203q0 -80 -34 -125t-80 -67.5t-91 -28.5t-66 -6v131q51 -2 94.5 16.5t43.5 59.5v18h-138v205z "/>
<glyph unicode="ŗ" horiz-adv-x="823" d="M143 -123h271v-203q0 -80 -34 -125t-80 -67.5t-91 -28.5t-66 -6v131q51 -2 94.5 16.5t43.5 59.5v18h-138v205zM147 0v1040h246v-190h4q27 66 70 106.5t92 64t100.5 32t94.5 8.5h41v-160q-121 2 -198 -27.5t-120 -77.5t-60.5 -108.5t-21.5 -116.5q-2 -27 -2 -53v-53v-465 h-246z"/>
<glyph unicode="Ř" horiz-adv-x="1449" d="M174 0v1434h641q66 0 155 -9.5t170 -49.5t137 -119.5t56 -221.5q0 -80 -21.5 -139t-55 -102t-76.5 -69t-86 -38v-4q76 -25 118.5 -68t62 -95t25 -106.5t5.5 -103.5q0 -72 1 -120t6 -81.5t15 -58t31 -49.5h-271q-16 25 -24 48.5t-13.5 56t-6.5 78.5t-1 116q0 49 -6 97 t-35.5 87t-90 62.5t-171.5 23.5h-303v-569h-262zM274 1843h246l205 -192l205 192h246l-275 -287h-352zM436 786h328q49 0 102.5 6.5t97.5 29t71.5 64.5t27.5 115q0 78 -31 121t-76 64.5t-96 26t-90 4.5h-334v-431z"/>
<glyph unicode="ř" horiz-adv-x="823" d="M61 1434h226l184 -183l184 183h226l-246 -271h-328zM147 0v1040h246v-190h4q27 66 70 106.5t92 64t100.5 32t94.5 8.5h41v-160q-121 2 -198 -27.5t-120 -77.5t-60.5 -108.5t-21.5 -116.5q-2 -27 -2 -53v-53v-465h-246z"/>
<glyph unicode="Ś" horiz-adv-x="1400" d="M92 461h260q2 -41 18.5 -91.5t57.5 -93.5t112.5 -72.5t184.5 -29.5q37 0 88 5t99.5 26.5t82 64.5t33.5 119q0 63 -27.5 104.5t-67.5 65t-84 34.5t-79 17q-43 8 -85 16.5t-83 18.5q-88 20 -168 46t-141.5 72t-98 116.5t-36.5 179.5q0 100 33.5 170.5t86 118t118 73 t128 37.5t115.5 15.5t82 3.5q141 0 243.5 -35t169 -93.5t101.5 -135t41 -158.5h-260q-10 76 -47 116.5t-84 60t-94.5 24t-75.5 4.5q-14 0 -59.5 -3.5t-93.5 -20.5t-86 -56t-38 -111q0 -55 28 -90t73 -56.5t102 -33.5t117 -23q125 -23 226 -51.5t173 -77.5t112 -125.5 t40 -195.5q0 -152 -59.5 -243t-149.5 -139t-195.5 -62.5t-195.5 -14.5q-184 0 -302 47t-187.5 120t-97.5 162t-30 175zM535 1556l159 287h279l-242 -287h-196z"/>
<glyph unicode="ś" horiz-adv-x="1105" d="M74 317h245q0 -53 23 -88.5t57.5 -58.5t78.5 -33t85 -10q35 0 72 6t67.5 24.5t51 51.5t20.5 86q0 68 -44 98.5t-148 48.5q-29 4 -56.5 9.5t-56.5 9.5q-86 14 -149.5 37.5t-105.5 58.5t-63.5 86t-21.5 125q0 102 47 164.5t114.5 95.5t142.5 43t130 10q125 0 210 -25.5 t136.5 -68.5t73 -101.5t23.5 -121.5h-232q-6 70 -59 109.5t-144 39.5q-76 0 -132 -26.5t-56 -102.5q0 -49 22.5 -77.5t60.5 -45t86 -25.5t99 -18q57 -10 124 -22t124 -44t95 -89t38 -154q0 -96 -39 -162.5t-103.5 -107.5t-147.5 -60.5t-171 -19.5q-145 0 -240 34t-150.5 87 t-79 115.5t-27.5 121.5zM402 1163l143 271h266l-225 -271h-184z"/>
<glyph unicode="Ŝ" horiz-adv-x="1400" d="M92 461h260q2 -41 18.5 -91.5t57.5 -93.5t112.5 -72.5t184.5 -29.5q37 0 88 5t99.5 26.5t82 64.5t33.5 119q0 63 -27.5 104.5t-67.5 65t-84 34.5t-79 17q-43 8 -85 16.5t-83 18.5q-88 20 -168 46t-141.5 72t-98 116.5t-36.5 179.5q0 100 33.5 170.5t86 118t118 73 t128 37.5t115.5 15.5t82 3.5q141 0 243.5 -35t169 -93.5t101.5 -135t41 -158.5h-260q-10 76 -47 116.5t-84 60t-94.5 24t-75.5 4.5q-14 0 -59.5 -3.5t-93.5 -20.5t-86 -56t-38 -111q0 -55 28 -90t73 -56.5t102 -33.5t117 -23q125 -23 226 -51.5t173 -77.5t112 -125.5 t40 -195.5q0 -152 -59.5 -243t-149.5 -139t-195.5 -62.5t-195.5 -14.5q-184 0 -302 47t-187.5 120t-97.5 162t-30 175zM249 1556l275 287h352l275 -287h-246l-205 193l-205 -193h-246z"/>
<glyph unicode="ŝ" horiz-adv-x="1105" d="M74 317h245q0 -53 23 -88.5t57.5 -58.5t78.5 -33t85 -10q35 0 72 6t67.5 24.5t51 51.5t20.5 86q0 68 -44 98.5t-148 48.5q-29 4 -56.5 9.5t-56.5 9.5q-86 14 -149.5 37.5t-105.5 58.5t-63.5 86t-21.5 125q0 102 47 164.5t114.5 95.5t142.5 43t130 10q125 0 210 -25.5 t136.5 -68.5t73 -101.5t23.5 -121.5h-232q-6 70 -59 109.5t-144 39.5q-76 0 -132 -26.5t-56 -102.5q0 -49 22.5 -77.5t60.5 -45t86 -25.5t99 -18q57 -10 124 -22t124 -44t95 -89t38 -154q0 -96 -39 -162.5t-103.5 -107.5t-147.5 -60.5t-171 -19.5q-145 0 -240 34t-150.5 87 t-79 115.5t-27.5 121.5zM143 1163l246 271h328l246 -271h-226l-184 183l-184 -183h-226z"/>
<glyph unicode="Ş" horiz-adv-x="1400" d="M92 461h260q2 -41 18.5 -91.5t57.5 -93.5t112.5 -72.5t184.5 -29.5q37 0 88 5t99.5 26.5t82 64.5t33.5 119q0 63 -27.5 104.5t-67.5 65t-84 34.5t-79 17q-43 8 -85 16.5t-83 18.5q-88 20 -168 46t-141.5 72t-98 116.5t-36.5 179.5q0 100 33.5 170.5t86 118t118 73 t128 37.5t115.5 15.5t82 3.5q141 0 243.5 -35t169 -93.5t101.5 -135t41 -158.5h-260q-10 76 -47 116.5t-84 60t-94.5 24t-75.5 4.5q-14 0 -59.5 -3.5t-93.5 -20.5t-86 -56t-38 -111q0 -55 28 -90t73 -56.5t102 -33.5t117 -23q125 -23 226 -51.5t173 -77.5t112 -125.5 t40 -195.5q0 -152 -59.5 -243t-149.5 -139t-195.5 -62.5t-195.5 -14.5q-184 0 -302 47t-187.5 120t-97.5 162t-30 175zM469 -475l39 125q39 -12 69 -15.5t50 -3.5q37 0 58.5 8.5t32.5 18.5t14.5 22.5t3.5 20.5q0 23 -11.5 34t-28 16t-35 6t-32.5 1h-88l37 123h94 q20 0 61.5 -3t83.5 -20.5t72.5 -54t30.5 -106.5q0 -53 -22.5 -89t-61.5 -58.5t-92 -32t-113 -9.5q-29 0 -68.5 3.5t-93.5 13.5z"/>
<glyph unicode="ş" horiz-adv-x="1105" d="M74 317h245q0 -53 23 -88.5t57.5 -58.5t78.5 -33t85 -10q35 0 72 6t67.5 24.5t51 51.5t20.5 86q0 68 -44 98.5t-148 48.5q-29 4 -56.5 9.5t-56.5 9.5q-86 14 -149.5 37.5t-105.5 58.5t-63.5 86t-21.5 125q0 102 47 164.5t114.5 95.5t142.5 43t130 10q125 0 210 -25.5 t136.5 -68.5t73 -101.5t23.5 -121.5h-232q-6 70 -59 109.5t-144 39.5q-76 0 -132 -26.5t-56 -102.5q0 -49 22.5 -77.5t60.5 -45t86 -25.5t99 -18q57 -10 124 -22t124 -44t95 -89t38 -154q0 -96 -39 -162.5t-103.5 -107.5t-147.5 -60.5t-171 -19.5q-145 0 -240 34t-150.5 87 t-79 115.5t-27.5 121.5zM315 -475l39 125q39 -12 69 -15.5t50 -3.5q37 0 58.5 8.5t32.5 18.5t14.5 22.5t3.5 20.5q0 23 -11.5 34t-28 16t-35 6t-32.5 1h-88l37 123h94q20 0 61.5 -3t83.5 -20.5t72.5 -54t30.5 -106.5q0 -53 -22.5 -89t-61.5 -58.5t-92 -32t-113 -9.5 q-29 0 -68.5 3.5t-93.5 13.5z"/>
<glyph unicode="Š" horiz-adv-x="1400" d="M92 461h260q2 -41 18.5 -91.5t57.5 -93.5t112.5 -72.5t184.5 -29.5q37 0 88 5t99.5 26.5t82 64.5t33.5 119q0 63 -27.5 104.5t-67.5 65t-84 34.5t-79 17q-43 8 -85 16.5t-83 18.5q-88 20 -168 46t-141.5 72t-98 116.5t-36.5 179.5q0 100 33.5 170.5t86 118t118 73 t128 37.5t115.5 15.5t82 3.5q141 0 243.5 -35t169 -93.5t101.5 -135t41 -158.5h-260q-10 76 -47 116.5t-84 60t-94.5 24t-75.5 4.5q-14 0 -59.5 -3.5t-93.5 -20.5t-86 -56t-38 -111q0 -55 28 -90t73 -56.5t102 -33.5t117 -23q125 -23 226 -51.5t173 -77.5t112 -125.5 t40 -195.5q0 -152 -59.5 -243t-149.5 -139t-195.5 -62.5t-195.5 -14.5q-184 0 -302 47t-187.5 120t-97.5 162t-30 175zM249 1843h246l205 -192l205 192h246l-275 -287h-352z"/>
<glyph unicode="š" horiz-adv-x="1105" d="M74 317h245q0 -53 23 -88.5t57.5 -58.5t78.5 -33t85 -10q35 0 72 6t67.5 24.5t51 51.5t20.5 86q0 68 -44 98.5t-148 48.5q-29 4 -56.5 9.5t-56.5 9.5q-86 14 -149.5 37.5t-105.5 58.5t-63.5 86t-21.5 125q0 102 47 164.5t114.5 95.5t142.5 43t130 10q125 0 210 -25.5 t136.5 -68.5t73 -101.5t23.5 -121.5h-232q-6 70 -59 109.5t-144 39.5q-76 0 -132 -26.5t-56 -102.5q0 -49 22.5 -77.5t60.5 -45t86 -25.5t99 -18q57 -10 124 -22t124 -44t95 -89t38 -154q0 -96 -39 -162.5t-103.5 -107.5t-147.5 -60.5t-171 -19.5q-145 0 -240 34t-150.5 87 t-79 115.5t-27.5 121.5zM143 1434h226l184 -183l184 183h226l-246 -271h-328z"/>
<glyph unicode="Ţ" horiz-adv-x="1216" d="M27 1217v217h1163v-217h-451v-1217h-262v1217h-450zM368 -475l39 125q39 -12 69 -15.5t50 -3.5q37 0 58.5 8.5t32.5 18.5t14.5 22.5t3.5 20.5q0 23 -11.5 34t-28 16t-35 6t-32.5 1h-88l37 123h94q20 0 61.5 -3t83.5 -20.5t72.5 -54t30.5 -106.5q0 -53 -22.5 -89 t-61.5 -58.5t-92 -32t-113 -9.5q-29 0 -68.5 3.5t-93.5 13.5z"/>
<glyph unicode="ţ" horiz-adv-x="700" d="M29 872v168h168v312h245v-312h217v-168h-217v-587q0 -27 2 -50.5t13.5 -41t36 -27.5t69.5 -10q31 0 53.5 3t42.5 9v-168q-92 -25 -200 -25q-96 0 -149.5 26t-78 60.5t-29.5 73.5t-5 68v669h-168zM204 -475l39 125q39 -12 69 -15.5t50 -3.5q37 0 58.5 8.5t32.5 18.5 t14.5 22.5t3.5 20.5q0 23 -11.5 34t-28 16t-35 6t-32.5 1h-88l37 123h94q20 0 61.5 -3t83.5 -20.5t72.5 -54t30.5 -106.5q0 -53 -22.5 -89t-61.5 -58.5t-92 -32t-113 -9.5q-29 0 -68.5 3.5t-93.5 13.5z"/>
<glyph unicode="Ť" horiz-adv-x="1216" d="M27 1217v217h1163v-217h-451v-1217h-262v1217h-450zM157 1843h246l205 -192l205 192h246l-275 -287h-352z"/>
<glyph unicode="ť" horiz-adv-x="1038" d="M29 872v168h168v312h245v-312h217v-168h-217v-587q0 -27 2 -50.5t13.5 -41t36 -27.5t69.5 -10q31 0 53.5 3t42.5 9v-168q-92 -25 -200 -25q-96 0 -149.5 26t-78 60.5t-29.5 73.5t-5 68v669h-168zM802 834v141q59 4 98.5 47t39.5 113v22h-138v277h271v-285 q0 -88 -24.5 -146.5t-63.5 -94.5t-87 -53t-96 -21z"/>
<glyph unicode="Ŧ" horiz-adv-x="1216" d="M27 1217v217h1163v-217h-451v-304h269v-188h-269v-725h-262v725h-268v188h268v304h-450z"/>
<glyph unicode="ŧ" horiz-adv-x="700" d="M29 496v168h168v208h-168v168h168v312h245v-312h217v-168h-217v-208h217v-168h-217v-211q0 -27 2 -50.5t13.5 -41t36 -27.5t69.5 -10q31 0 53.5 3t42.5 9v-168q-92 -25 -200 -25q-96 0 -149.5 26t-78 60.5t-29.5 73.5t-5 68v293h-168z"/>
<glyph unicode="Ũ" horiz-adv-x="1478" d="M147 551v883h263v-842q0 -215 72.5 -316.5t256.5 -101.5t257 101.5t73 316.5v842h262v-883q0 -57 -5 -124t-25.5 -133.5t-58.5 -127t-104.5 -107.5t-163.5 -74.5t-235 -27.5q-137 0 -234 27.5t-164 74.5t-104.5 107.5t-58 127t-26 133.5t-5.5 124zM307 1581q6 43 23.5 85 t50.5 76t79 55.5t112 21.5q49 0 84.5 -9.5t89.5 -31.5q27 -10 46 -19.5t35.5 -15.5t35 -10t40.5 -4q49 0 75 22.5t30 50.5h164q-8 -39 -24.5 -81t-47.5 -76.5t-78 -57t-115 -22.5q-47 0 -83.5 11t-90.5 34q-41 16 -78.5 30.5t-78.5 14.5t-71 -19.5t-34 -54.5h-164z"/>
<glyph unicode="ũ" horiz-adv-x="1241" d="M147 344v696h246v-618q0 -45 4 -96.5t22.5 -95.5t57.5 -73.5t111 -29.5q96 0 149.5 45t78 102.5t28.5 111.5t4 73v581h246v-1040h-246v137h-4q-51 -92 -148.5 -135t-197.5 -43q-86 0 -145.5 22.5t-98.5 59.5t-60.5 81t-31.5 87t-12.5 79t-2.5 56zM227 1241q6 41 25.5 79 t50.5 66.5t73 46t93 17.5q47 0 83 -11.5t75 -29.5q45 -20 71.5 -34.5t69.5 -14.5q51 0 70.5 25.5t23.5 48.5h152q-16 -100 -87 -154.5t-155 -54.5q-45 0 -83 13t-75 32q-37 16 -69.5 30.5t-71.5 14.5q-51 0 -70.5 -25.5t-23.5 -48.5h-152z"/>
<glyph unicode="Ū" horiz-adv-x="1478" d="M147 551v883h263v-842q0 -215 72.5 -316.5t256.5 -101.5t257 101.5t73 316.5v842h262v-883q0 -57 -5 -124t-25.5 -133.5t-58.5 -127t-104.5 -107.5t-163.5 -74.5t-235 -27.5q-137 0 -234 27.5t-164 74.5t-104.5 107.5t-58 127t-26 133.5t-5.5 124zM401 1556v164h676v-164 h-338h-338z"/>
<glyph unicode="ū" horiz-adv-x="1241" d="M147 344v696h246v-618q0 -45 4 -96.5t22.5 -95.5t57.5 -73.5t111 -29.5q96 0 149.5 45t78 102.5t28.5 111.5t4 73v581h246v-1040h-246v137h-4q-51 -92 -148.5 -135t-197.5 -43q-86 0 -145.5 22.5t-98.5 59.5t-60.5 81t-31.5 87t-12.5 79t-2.5 56zM282 1233v168h676v-168 h-338h-338z"/>
<glyph unicode="Ŭ" horiz-adv-x="1478" d="M147 551v883h263v-842q0 -215 72.5 -316.5t256.5 -101.5t257 101.5t73 316.5v842h262v-883q0 -57 -5 -124t-25.5 -133.5t-58.5 -127t-104.5 -107.5t-163.5 -74.5t-235 -27.5q-137 0 -234 27.5t-164 74.5t-104.5 107.5t-58 127t-26 133.5t-5.5 124zM309 1870h211 q8 -82 70.5 -124t148.5 -42t148.5 42t71.5 124h211q-12 -66 -45 -123t-86.5 -99t-129 -67t-170.5 -25q-96 0 -170.5 25t-128 67t-86 99t-45.5 123z"/>
<glyph unicode="ŭ" horiz-adv-x="1241" d="M147 344v696h246v-618q0 -45 4 -96.5t22.5 -95.5t57.5 -73.5t111 -29.5q96 0 149.5 45t78 102.5t28.5 111.5t4 73v581h246v-1040h-246v137h-4q-51 -92 -148.5 -135t-197.5 -43q-86 0 -145.5 22.5t-98.5 59.5t-60.5 81t-31.5 87t-12.5 79t-2.5 56zM217 1434h209 q4 -72 60.5 -111t134.5 -39t134 39t60 111h209q-10 -43 -31.5 -94.5t-67.5 -95.5t-120 -73.5t-184 -29.5q-111 0 -184.5 29.5t-119.5 73.5t-68.5 95.5t-31.5 94.5z"/>
<glyph unicode="Ů" horiz-adv-x="1478" d="M147 551v883h263v-842q0 -215 72.5 -316.5t256.5 -101.5t257 101.5t73 316.5v842h262v-883q0 -57 -5 -124t-25.5 -133.5t-58.5 -127t-104.5 -107.5t-163.5 -74.5t-235 -27.5q-137 0 -234 27.5t-164 74.5t-104.5 107.5t-58 127t-26 133.5t-5.5 124zM534 1679q0 43 15.5 80 t43 64.5t65.5 44t81 16.5t80 -16.5t64.5 -44t44 -64.5t16.5 -80t-16.5 -80.5t-44 -65.5t-64.5 -43t-80 -15t-81 15t-65.5 43t-43 65.5t-15.5 80.5zM649 1679q0 -37 26.5 -63.5t63.5 -26.5t63.5 26.5t26.5 63.5t-26.5 63.5t-63.5 26.5t-63.5 -26.5t-26.5 -63.5z"/>
<glyph unicode="ů" horiz-adv-x="1241" d="M147 344v696h246v-618q0 -45 4 -96.5t22.5 -95.5t57.5 -73.5t111 -29.5q96 0 149.5 45t78 102.5t28.5 111.5t4 73v581h246v-1040h-246v137h-4q-51 -92 -148.5 -135t-197.5 -43q-86 0 -145.5 22.5t-98.5 59.5t-60.5 81t-31.5 87t-12.5 79t-2.5 56zM428 1298q0 39 15.5 74 t42 61.5t61.5 42t74 15.5t73.5 -15.5t61.5 -42t42 -61.5t15 -74t-15 -73.5t-42 -61t-61.5 -42t-73.5 -15.5t-74 15.5t-61.5 42t-42 61t-15.5 73.5zM531 1298q0 -37 26.5 -63.5t63.5 -26.5t63.5 27t26.5 63q0 37 -26.5 64t-63.5 27t-63.5 -27t-26.5 -64z"/>
<glyph unicode="Ű" horiz-adv-x="1478" d="M147 551v883h263v-842q0 -215 72.5 -316.5t256.5 -101.5t257 101.5t73 316.5v842h262v-883q0 -57 -5 -124t-25.5 -133.5t-58.5 -127t-104.5 -107.5t-163.5 -74.5t-235 -27.5q-137 0 -234 27.5t-164 74.5t-104.5 107.5t-58 127t-26 133.5t-5.5 124zM485 1556l160 287h266 l-241 -287h-185zM838 1556l159 287h267l-242 -287h-184z"/>
<glyph unicode="ű" horiz-adv-x="1241" d="M147 344v696h246v-618q0 -45 4 -96.5t22.5 -95.5t57.5 -73.5t111 -29.5q96 0 149.5 45t78 102.5t28.5 111.5t4 73v581h246v-1040h-246v137h-4q-51 -92 -148.5 -135t-197.5 -43q-86 0 -145.5 22.5t-98.5 59.5t-60.5 81t-31.5 87t-12.5 79t-2.5 56zM297 1163l144 271h246 l-226 -271h-164zM646 1163l143 271h246l-226 -271h-163z"/>
<glyph unicode="Ų" horiz-adv-x="1478" d="M147 551v883h263v-842q0 -215 72.5 -316.5t256.5 -101.5t257 101.5t73 316.5v842h262v-883q0 -49 -5 -111.5t-22.5 -128t-52 -127t-94 -110.5t-146.5 -81t-210 -34q-31 -25 -49.5 -54.5t-27.5 -58t-12 -53t-3 -39.5q0 -53 27.5 -88t76.5 -35q53 0 77.5 37t22.5 80h164 q-2 -23 -13 -62.5t-42 -78.5t-88 -69t-150 -30q-72 0 -121 21.5t-79.5 55.5t-45 76t-14.5 85q0 59 24.5 120.5t72.5 96.5q-111 10 -189 44t-131 83t-83 108.5t-46 122t-20.5 122t-4.5 108.5z"/>
<glyph unicode="ų" horiz-adv-x="1241" d="M147 344v696h246v-618q0 -45 4 -96.5t22.5 -95.5t57.5 -73.5t111 -29.5q96 0 149.5 45t78 102.5t28.5 111.5t4 73v581h246v-1040h-21q-82 -27 -126 -92.5t-44 -153.5q0 -53 27.5 -88t77.5 -35q53 0 77.5 37t22.5 80h164q-2 -23 -13.5 -62.5t-42 -78.5t-88 -69t-149.5 -30 q-72 0 -121 21.5t-79.5 55.5t-45 76t-14.5 85q0 72 30.5 140.5t98.5 113.5v137h-4q-51 -92 -148.5 -135t-197.5 -43q-86 0 -145.5 22.5t-98.5 59.5t-60.5 81t-31.5 87t-12.5 79t-2.5 56z"/>
<glyph unicode="Ŵ" horiz-adv-x="1933" d="M-8 1434h295l280 -1131l252 1131h295l252 -1131l281 1131h295l-390 -1434h-331l-254 1124l-254 -1124h-332zM516 1556l275 287h352l275 -287h-246l-205 193l-205 -193h-246z"/>
<glyph unicode="ŵ" horiz-adv-x="1579" d="M-8 1040h256l244 -761l184 761h229l182 -761l244 761h256l-362 -1040h-250l-184 760l-187 -760h-250zM378 1163l246 271h328l246 -271h-226l-184 183l-184 -183h-226z"/>
<glyph unicode="Ŷ" horiz-adv-x="1298" d="M-8 1434h309l348 -629l348 629h310l-527 -863v-571h-262v571zM198 1556l275 287h352l275 -287h-246l-205 193l-205 -193h-246z"/>
<glyph unicode="ŷ" horiz-adv-x="1107" d="M14 1040h295l314 -774l239 774h246l-397 -1130q-12 -35 -32 -86t-56.5 -98.5t-97 -80t-156.5 -32.5q-35 0 -76 3t-78 9v168q18 -4 42 -8t52 -4q72 0 104.5 40t59.5 132l14 49zM163 1163l246 271h328l246 -271h-226l-184 183l-184 -183h-226z"/>
<glyph unicode="Ÿ" horiz-adv-x="1298" d="M-8 1434h309l348 -629l348 629h310l-527 -863v-571h-262v571zM274 1581v180h263v-180h-263zM762 1581v180h262v-180h-262z"/>
<glyph unicode="Ź" horiz-adv-x="1255" d="M53 0v233l774 984h-735v217h1065v-201l-774 -1016h819v-217h-1149zM461 1556l159 287h279l-242 -287h-196z"/>
<glyph unicode="ź" horiz-adv-x="1003" d="M53 0v168l576 704h-535v168h821v-168l-575 -704h610v-168h-897zM351 1163l143 271h266l-225 -271h-184z"/>
<glyph unicode="Ż" horiz-adv-x="1255" d="M53 0v233l774 984h-735v217h1065v-201l-774 -1016h819v-217h-1149zM495 1581v180h263v-180h-263z"/>
<glyph unicode="ż" horiz-adv-x="1003" d="M53 0v168l576 704h-535v168h821v-168l-575 -704h610v-168h-897zM378 1217v217h246v-217h-246z"/>
<glyph unicode="Ž" horiz-adv-x="1255" d="M53 0v233l774 984h-735v217h1065v-201l-774 -1016h819v-217h-1149zM176 1843h246l205 -192l205 192h246l-275 -287h-352z"/>
<glyph unicode="ž" horiz-adv-x="1003" d="M53 0v168l576 704h-535v168h821v-168l-575 -704h610v-168h-897zM96 1434h226l184 -183l184 183h226l-246 -271h-328z"/>
<glyph unicode="Ə" horiz-adv-x="1585" d="M92 752h1120q2 43 -3 97t-21.5 110.5t-46 110.5t-79.5 96t-123 68t-171 26q-72 0 -137.5 -15.5t-116.5 -46.5t-86 -77t-47 -109h-260q4 23 16.5 66.5t39 95t70.5 105.5t113.5 98t168 72t231.5 28q178 0 302 -46.5t206 -119t127 -161.5t66.5 -173t26.5 -153.5t5 -104.5 q0 -188 -45 -318.5t-115.5 -214.5t-154.5 -131t-162 -68.5t-139.5 -25.5t-83.5 -4q-195 0 -331 69.5t-220 182.5t-120 255t-30 288zM379 520q6 -55 28.5 -115.5t70.5 -111.5t124 -85t191 -34q92 0 163.5 27.5t124 75t84 110t41.5 133.5h-827z"/>
<glyph unicode="ƒ" d="M68 -379l38 178h37q47 2 77 11.5t48.5 30t28.5 51t20 75.5l191 905h-191l37 168h189l22 111q10 49 28.5 99t58.5 91t108.5 67t177.5 26q45 0 85 -4.5t77 -10.5l-33 -159q-23 8 -51.5 11t-57.5 3q-57 0 -94 -35t-49 -90l-22 -109h225l-35 -168h-225l-191 -913 q-12 -59 -27.5 -120.5t-51 -112t-100 -82t-175.5 -31.5q-37 0 -80 3t-65 5z"/>
<glyph unicode="Ơ" horiz-adv-x="1607" d="M92 717q0 186 43 314t110.5 213t150.5 132t161 68.5t142.5 27t95.5 5.5q20 0 59 -2t87 -10.5t103.5 -25t110.5 -44.5q45 -14 96 -15q92 0 127 52.5t35 123.5q0 27 -7 65t-17 73h247q12 -29 18.5 -72t6.5 -74q0 -59 -22.5 -111.5t-64.5 -91t-100.5 -62t-130.5 -23.5h-14 q74 -86 121 -217.5t47 -325.5q0 -186 -43 -314.5t-110.5 -213.5t-150.5 -132t-161 -68.5t-142.5 -26.5t-94.5 -5q-31 0 -95.5 5t-142.5 26.5t-161 68.5t-150.5 132t-110.5 213.5t-43 314.5zM373 717q0 -84 16.5 -178.5t62.5 -176t128 -135t215 -53.5t215 53.5t128 135 t62.5 176t16.5 178.5q0 82 -16.5 177t-62.5 177t-128 135.5t-215 53.5t-215 -53.5t-128 -135.5t-62.5 -177t-16.5 -177z"/>
<glyph unicode="ơ" horiz-adv-x="1273" d="M88 520q0 49 9 110.5t32 124t61.5 121t98 104.5t142.5 73.5t194 27.5q82 0 146.5 -15t117.5 -42q8 -2 15 -2h14q88 0 121.5 53t33.5 125q0 23 -5 55.5t-13 63.5h241q10 -29 14.5 -64.5t4.5 -62.5q0 -55 -19.5 -104.5t-56.5 -88t-89 -62.5t-116 -30q37 -45 61.5 -96 t39 -102.5t20.5 -99.5t6 -89q0 -49 -9 -110.5t-31.5 -124t-61.5 -121t-98.5 -104.5t-142.5 -73.5t-193 -27.5q-111 0 -194 27.5t-142.5 73.5t-98 104.5t-61.5 121t-32 123t-9 111.5zM350 520q0 -133 31 -212t74 -118.5t90 -51t80 -11.5t80 11.5t90 51t73.5 118.5t30.5 212 t-30.5 212t-73.5 119t-90.5 51t-79.5 11q-33 0 -80 -11t-90 -51t-74 -119t-31 -212z"/>
<glyph unicode="Ư" horiz-adv-x="1583" d="M147 551v883h263v-842q0 -215 72.5 -316.5t256.5 -101.5t257 101.5t73 316.5v842h236q92 0 126.5 52t34.5 124q0 27 -7 64.5t-17 72.5h248q12 -29 18 -72t6 -73q0 -59 -22.5 -111.5t-63.5 -92.5t-98 -63.5t-127 -23.5h-33.5t-38.5 2v-762q0 -57 -5 -124t-25.5 -133.5 t-58.5 -127t-104.5 -107.5t-163.5 -74.5t-235 -27.5q-137 0 -234 27.5t-164 74.5t-104.5 107.5t-58 127t-26 133.5t-5.5 124z"/>
<glyph unicode="ư" horiz-adv-x="1351" d="M147 344v696h246v-618q0 -45 4 -96.5t22.5 -95.5t57.5 -73.5t111 -29.5q96 0 149.5 45t78 102.5t28.5 111.5t4 73v581h211q41 0 66.5 15.5t39 40t18.5 53.5t5 57q0 23 -5 55.5t-14 63.5h242q10 -29 14.5 -64.5t4.5 -62.5q0 -59 -22 -110.5t-62.5 -90.5t-98 -61.5 t-129.5 -22.5h-24v-913h-246v137h-4q-51 -92 -148.5 -135t-197.5 -43q-86 0 -145.5 22.5t-98.5 59.5t-60.5 81t-31.5 87t-12.5 79t-2.5 56z"/>
<glyph unicode="ǝ" horiz-adv-x="1216" d="M88 584h778q0 49 -13 107.5t-45 107.5t-86 81.5t-134 32.5q-84 0 -157 -44t-93 -130h-234q10 49 38 109.5t83.5 112t145.5 86t229 34.5q125 0 213 -31.5t146.5 -81.5t92 -111.5t51 -122t21.5 -113t4 -82.5q0 -131 -32.5 -238.5t-98 -183.5t-165 -117t-234.5 -41 q-37 0 -90 5t-111.5 25.5t-116 60.5t-101.5 109.5t-69.5 173t-21.5 251.5zM348 416q0 -35 9.5 -85t35 -95.5t74.5 -77t129 -31.5q86 0 138 31.5t81 77t40 95.5t11 85h-518z"/>
<glyph unicode="Ǧ" horiz-adv-x="1548" d="M92 692q0 168 34 292t91 211t130 141.5t152 86t155.5 43t142.5 11.5q184 0 300.5 -48.5t184.5 -120t96.5 -156.5t34.5 -161h-260q-6 41 -24.5 88t-59.5 87t-107.5 67t-164.5 27q-137 0 -220 -56.5t-128.5 -139.5t-60.5 -181.5t-15 -180.5q0 -160 45 -262t112.5 -161.5 t144.5 -82t140 -22.5q47 0 111.5 14.5t123 54.5t100.5 113.5t44 194.5h-350v217h586v-768h-189v195h-4q-57 -111 -165.5 -174.5t-278.5 -63.5q-125 0 -250 36t-225.5 121t-163 226t-62.5 352zM323 1843h246l205 -192l205 192h246l-275 -287h-352z"/>
<glyph unicode="ǧ" horiz-adv-x="1310" d="M96 526q0 152 44 257.5t116 172t161 96t181 29.5q31 0 74 -5t88 -20.5t91 -44t83 -73.5h4v102h225v-993q0 -217 -139 -329.5t-387 -112.5q-190 0 -311 69.5t-144 225.5h226q8 -37 33.5 -60.5t59.5 -37t72.5 -19.5t73.5 -6q94 0 148.5 28.5t82 70.5t34 89t6.5 86v80 q-31 -55 -82.5 -85t-102.5 -44t-92 -16t-51 -2q-131 0 -224.5 45t-153.5 119.5t-88 173t-28 204.5zM245 1434h226l184 -183l184 183h226l-246 -271h-328zM358 524q0 -127 34 -201.5t80 -112.5t96 -48t83 -10q53 0 104.5 22.5t91.5 68.5t64.5 117.5t24.5 169.5 q0 106 -24.5 180t-64.5 119t-91 64.5t-107 19.5q-137 0 -214 -102.5t-77 -286.5z"/>
<glyph unicode="Ș" horiz-adv-x="1400" d="M92 461h260q2 -41 18.5 -91.5t57.5 -93.5t112.5 -72.5t184.5 -29.5q37 0 88 5t99.5 26.5t82 64.5t33.5 119q0 63 -27.5 104.5t-67.5 65t-84 34.5t-79 17q-43 8 -85 16.5t-83 18.5q-88 20 -168 46t-141.5 72t-98 116.5t-36.5 179.5q0 100 33.5 170.5t86 118t118 73 t128 37.5t115.5 15.5t82 3.5q141 0 243.5 -35t169 -93.5t101.5 -135t41 -158.5h-260q-10 76 -47 116.5t-84 60t-94.5 24t-75.5 4.5q-14 0 -59.5 -3.5t-93.5 -20.5t-86 -56t-38 -111q0 -55 28 -90t73 -56.5t102 -33.5t117 -23q125 -23 226 -51.5t173 -77.5t112 -125.5 t40 -195.5q0 -152 -59.5 -243t-149.5 -139t-195.5 -62.5t-195.5 -14.5q-184 0 -302 47t-187.5 120t-97.5 162t-30 175zM565 -123h271v-203q0 -80 -34 -125t-80 -67.5t-91 -28.5t-66 -6v131q51 -2 94.5 16.5t43.5 59.5v18h-138v205z"/>
<glyph unicode="ș" horiz-adv-x="1105" d="M74 317h245q0 -53 23 -88.5t57.5 -58.5t78.5 -33t85 -10q35 0 72 6t67.5 24.5t51 51.5t20.5 86q0 68 -44 98.5t-148 48.5q-29 4 -56.5 9.5t-56.5 9.5q-86 14 -149.5 37.5t-105.5 58.5t-63.5 86t-21.5 125q0 102 47 164.5t114.5 95.5t142.5 43t130 10q125 0 210 -25.5 t136.5 -68.5t73 -101.5t23.5 -121.5h-232q-6 70 -59 109.5t-144 39.5q-76 0 -132 -26.5t-56 -102.5q0 -49 22.5 -77.5t60.5 -45t86 -25.5t99 -18q57 -10 124 -22t124 -44t95 -89t38 -154q0 -96 -39 -162.5t-103.5 -107.5t-147.5 -60.5t-171 -19.5q-145 0 -240 34t-150.5 87 t-79 115.5t-27.5 121.5zM417 -123h271v-203q0 -80 -34 -125t-80 -67.5t-91 -28.5t-66 -6v131q51 -2 94.5 16.5t43.5 59.5v18h-138v205z"/>
<glyph unicode="Ț" horiz-adv-x="1216" d="M27 1217v217h1163v-217h-451v-1217h-262v1217h-450zM473 -123h271v-203q0 -80 -34 -125t-80 -67.5t-91 -28.5t-66 -6v131q51 -2 94.5 16.5t43.5 59.5v18h-138v205z"/>
<glyph unicode="ț" horiz-adv-x="700" d="M29 872v168h168v312h245v-312h217v-168h-217v-587q0 -27 2 -50.5t13.5 -41t36 -27.5t69.5 -10q31 0 53.5 3t42.5 9v-168q-92 -25 -200 -25q-96 0 -149.5 26t-78 60.5t-29.5 73.5t-5 68v669h-168zM309 -123h271v-203q0 -80 -34 -125t-80 -67.5t-91 -28.5t-66 -6v131 q51 -2 94.5 16.5t43.5 59.5v18h-138v205z"/>
<glyph unicode="ˆ" horiz-adv-x="1024" d="M102 1163l246 271h328l246 -271h-226l-184 183l-184 -183h-226z"/>
<glyph unicode="ˇ" horiz-adv-x="1024" d="M102 1434h226l184 -183l184 183h226l-246 -271h-328z"/>
<glyph unicode="˘" horiz-adv-x="1011" d="M102 1434h209q4 -72 60.5 -111t134.5 -39t134 39t60 111h209q-10 -43 -31.5 -94.5t-67.5 -95.5t-120 -73.5t-184 -29.5q-111 0 -184.5 29.5t-119.5 73.5t-68.5 95.5t-31.5 94.5z"/>
<glyph unicode="˙" horiz-adv-x="450" d="M102 1217v217h246v-217h-246z"/>
<glyph unicode="˚" horiz-adv-x="589" d="M102 1298q0 39 15.5 74t42 61.5t61.5 42t74 15.5t73.5 -15.5t61.5 -42t42 -61.5t15 -74t-15 -73.5t-42 -61t-61.5 -42t-73.5 -15.5t-74 15.5t-61.5 42t-42 61t-15.5 73.5zM205 1298q0 -37 26.5 -63.5t63.5 -26.5t63.5 27t26.5 63q0 37 -26.5 64t-63.5 27t-63.5 -27 t-26.5 -64z"/>
<glyph unicode="˛" horiz-adv-x="757" d="M102 -254q0 70 35 141.5t115 112.5h205q-82 -27 -126 -92.5t-44 -153.5q0 -53 27.5 -88t76.5 -35q53 0 78 37t23 80h163q-2 -23 -13 -62.5t-42 -78.5t-88 -69t-150 -30q-72 0 -120.5 21.5t-79.5 55.5t-45.5 76t-14.5 85z"/>
<glyph unicode="˜" horiz-adv-x="991" d="M102 1241q6 41 25.5 79t50.5 66.5t73 46t93 17.5q47 0 83 -11.5t75 -29.5q45 -20 71.5 -34.5t69.5 -14.5q51 0 70.5 25.5t23.5 48.5h152q-16 -100 -87 -154.5t-155 -54.5q-45 0 -83 13t-75 32q-37 16 -69.5 30.5t-71.5 14.5q-51 0 -70.5 -25.5t-23.5 -48.5h-152z"/>
<glyph unicode="˝" horiz-adv-x="942" d="M102 1163l144 271h246l-226 -271h-164zM451 1163l143 271h246l-226 -271h-163z"/>
<glyph unicode=";" horiz-adv-x="704" d="M217 0v276h270v-284q0 -88 -24.5 -146.5t-63.5 -94.5t-87 -53t-95 -22v142q59 4 98 47t39 112v23h-137zM217 764v276h270v-276h-270z"/>
<glyph unicode="΄" horiz-adv-x="464" d="M61 1163l158 295h266l-239 -295h-185z"/>
<glyph unicode="΅" horiz-adv-x="1196" d="M164 1219v204h223v-204h-223zM446 1176l101 288h233l-182 -288h-152zM809 1219v204h223v-204h-223z"/>
<glyph unicode="Ά" horiz-adv-x="1314" d="M-17 1163l170 312h277l-252 -312h-195zM-16 0l540 1434h263l540 -1434h-280l-105 301h-573l-105 -301h-280zM438 518h435l-217 637z"/>
<glyph unicode="·" horiz-adv-x="512" d="M121 410v276h270v-276h-270z"/>
<glyph unicode="Έ" horiz-adv-x="1585" d="M-37 1163l170 312h277l-252 -312h-195zM453 0v1434h1075v-217h-813v-373h729v-217h-729v-410h836v-217h-1098z"/>
<glyph unicode="Ή" horiz-adv-x="1777" d="M-37 1163l170 312h277l-252 -312h-195zM440 0v1434h262v-574h639v574h262v-1434h-262v643h-639v-643h-262z"/>
<glyph unicode="Ί" horiz-adv-x="874" d="M-37 1163l170 312h277l-252 -312h-195zM438 0v1434h262v-1434h-262z"/>
<glyph unicode="Ό" horiz-adv-x="1677" d="M-37 1163l170 312h277l-252 -312h-195zM180 717q0 186 43 314t110.5 213t150.5 132t161 68.5t142.5 27t95.5 5.5t95 -5.5t142 -27t161 -68.5t150.5 -132t110.5 -213t43 -314t-43 -314.5t-110.5 -213.5t-150.5 -132t-161 -68.5t-142.5 -26.5t-94.5 -5q-31 0 -95.5 5 t-142.5 26.5t-161 68.5t-150.5 132t-110.5 213t-43 315zM461 717q0 -84 16.5 -178.5t62.5 -176t128 -135t215 -53.5t215 53.5t128 135t62.5 176t16.5 178.5q0 82 -16.5 177t-62.5 177t-128 135.5t-215 53.5t-215 -53.5t-128 -135.5t-62.5 -177t-16.5 -177z"/>
<glyph unicode="Ύ" horiz-adv-x="1714" d="M-37 1163l170 312h277l-252 -312h-195zM408 1434h309l348 -629l348 629h310l-527 -863v-571h-262v571z"/>
<glyph unicode="Ώ" horiz-adv-x="1644" d="M-37 1163l170 312h277l-252 -312h-195zM213 0v217h264v12q-131 74 -197.5 219.5t-66.5 331.5q0 158 38 270.5t99.5 189.5t137 124t150.5 71.5t140.5 33t106.5 8.5t106.5 -8.5t140 -33t150.5 -71.5t137.5 -124t99.5 -189.5t38 -270.5q0 -186 -67 -331.5t-198 -219.5v-12 h265v-217h-560v274q51 14 101.5 50t89.5 96.5t63.5 148.5t24.5 211q0 25 -3 70t-15.5 98t-37 107.5t-68.5 98.5t-109.5 71.5t-157.5 27.5t-157.5 -27.5t-110 -71.5t-69 -98.5t-36.5 -107.5t-15 -98t-3 -70q0 -123 24.5 -211t63.5 -148.5t89 -96t101 -50.5v-274h-559z"/>
<glyph unicode="ΐ" horiz-adv-x="561" d="M-145 1219v204h223v-204h-223zM137 1176l101 288h233l-182 -288h-152zM147 205v835h246v-778q0 -63 12.5 -89t53.5 -26h51v-147q-39 -4 -64.5 -5t-58.5 -1q-117 0 -178.5 46t-61.5 165zM500 1219v204h223v-204h-223z"/>
<glyph unicode="Α" horiz-adv-x="1327" d="M-8 0l540 1434h263l540 -1434h-280l-105 301h-573l-105 -301h-280zM446 518h435l-217 637z"/>
<glyph unicode="Β" horiz-adv-x="1464" d="M174 0v1434h676q137 0 222 -35t132 -88.5t64.5 -117t17.5 -122.5q0 -119 -66.5 -204t-170.5 -103v-4q45 -8 96 -28.5t96 -62.5t75 -106.5t30 -161.5q0 -135 -51.5 -215t-130.5 -121.5t-171 -53t-172 -11.5h-647zM436 217h359q59 0 110 9.5t89 33t59.5 64.5t21.5 106 q0 72 -27.5 113t-68.5 61.5t-89 25.5t-89 5h-365v-418zM436 852h346q111 0 172.5 38t61.5 132q0 72 -30 110.5t-69.5 57t-79.5 23t-61 4.5h-340v-365z"/>
<glyph unicode="Γ" horiz-adv-x="1138" d="M174 0v1434h938v-217h-676v-1217h-262z"/>
<glyph unicode="Δ" horiz-adv-x="1327" d="M-8 0l540 1434h263l540 -1434h-1343zM348 217h631l-315 938z"/>
<glyph unicode="Ε" horiz-adv-x="1306" d="M174 0v1434h1075v-217h-813v-373h729v-217h-729v-410h836v-217h-1098z"/>
<glyph unicode="Ζ" horiz-adv-x="1255" d="M53 0v233l774 984h-735v217h1065v-201l-774 -1016h819v-217h-1149z"/>
<glyph unicode="Η" horiz-adv-x="1511" d="M174 0v1434h262v-574h639v574h262v-1434h-262v643h-639v-643h-262z"/>
<glyph unicode="Θ" horiz-adv-x="1589" d="M92 717q0 186 43 314t110.5 213t150.5 132t161 68.5t142.5 27t95.5 5.5t95 -5.5t142 -27t161 -68.5t150.5 -132t110.5 -213t43 -314t-43 -314.5t-110.5 -213.5t-150.5 -132t-161 -68.5t-142.5 -26.5t-94.5 -5q-31 0 -95.5 5t-142.5 26.5t-161 68.5t-150.5 132t-110.5 213 t-43 315zM373 717q0 -84 16.5 -178.5t62.5 -176t128 -135t215 -53.5t215 53.5t128 135t62.5 176t16.5 178.5q0 82 -16.5 177t-62.5 177t-128 135.5t-215 53.5t-215 -53.5t-128 -135.5t-62.5 -177t-16.5 -177zM496 627v217h598v-217h-598z"/>
<glyph unicode="Ι" horiz-adv-x="610" d="M174 0v1434h262v-1434h-262z"/>
<glyph unicode="Κ" horiz-adv-x="1368" d="M174 0v1434h262v-646l576 646h311l-635 -662l688 -772h-332l-608 743v-743h-262z"/>
<glyph unicode="Λ" horiz-adv-x="1327" d="M-8 0l540 1434h263l540 -1434h-280l-391 1155l-392 -1155h-280z"/>
<glyph unicode="Μ" horiz-adv-x="1912" d="M174 0v1434h391l391 -1088l392 1088h391v-1434h-262v1079l4 56h-4l-422 -1135h-197l-422 1135h-4l4 -56v-1079h-262z"/>
<glyph unicode="Ν" horiz-adv-x="1576" d="M174 0v1434h279l688 -1018v1018h262v-1434h-279l-688 1018v-1018h-262z"/>
<glyph unicode="Ξ" horiz-adv-x="1146" d="M41 0v217h1065v-217h-1065zM80 1217v217h987v-217h-987zM141 627v217h865v-217h-865z"/>
<glyph unicode="Ο" horiz-adv-x="1589" d="M92 717q0 186 43 314t110.5 213t150.5 132t161 68.5t142.5 27t95.5 5.5t95 -5.5t142 -27t161 -68.5t150.5 -132t110.5 -213t43 -314t-43 -314.5t-110.5 -213.5t-150.5 -132t-161 -68.5t-142.5 -26.5t-94.5 -5q-31 0 -95.5 5t-142.5 26.5t-161 68.5t-150.5 132t-110.5 213 t-43 315zM373 717q0 -84 16.5 -178.5t62.5 -176t128 -135t215 -53.5t215 53.5t128 135t62.5 176t16.5 178.5q0 82 -16.5 177t-62.5 177t-128 135.5t-215 53.5t-215 -53.5t-128 -135.5t-62.5 -177t-16.5 -177z"/>
<glyph unicode="Π" horiz-adv-x="1507" d="M174 0v1434h1159v-1434h-262v1217h-635v-1217h-262z"/>
<glyph unicode="Ρ" horiz-adv-x="1368" d="M174 0v1434h571q84 0 182.5 -12.5t181.5 -57.5t138.5 -133t55.5 -242q0 -98 -30 -182t-95.5 -145.5t-172 -97.5t-262.5 -36h-307v-528h-262zM436 745h305q45 0 96.5 6.5t94.5 29t71.5 69.5t28.5 127q0 86 -30.5 134t-75.5 71.5t-95.5 29t-87.5 5.5h-307v-472z"/>
<glyph unicode="Σ" horiz-adv-x="1177" d="M68 0v197l456 551l-424 485v201h1010v-217h-680l408 -463l-461 -537h766v-217h-1075z"/>
<glyph unicode="Τ" horiz-adv-x="1216" d="M27 1217v217h1163v-217h-451v-1217h-262v1217h-450z"/>
<glyph unicode="Υ" horiz-adv-x="1298" d="M-8 1434h309l348 -629l348 629h310l-527 -863v-571h-262v571z"/>
<glyph unicode="Φ" horiz-adv-x="1855" d="M86 731q0 86 28.5 183.5t103.5 180.5t204 138t330 55h45v146h262v-146h45q201 0 330 -55t203.5 -138t103 -180.5t28.5 -183.5q0 -131 -39.5 -224t-102 -155.5t-138.5 -100.5t-150.5 -57.5t-137 -24.5t-97.5 -5h-45v-164h-262v164h-45q-35 0 -97.5 5t-137.5 24.5 t-150.5 56.5t-138 100.5t-102.5 156.5t-40 224zM367 731q0 -63 16 -128.5t62.5 -119t127 -87.5t209.5 -34h15v728h-15q-129 0 -209.5 -32t-127 -83t-62.5 -115.5t-16 -128.5zM1059 362h14q129 0 210 34t127 87.5t62.5 119t16.5 128.5t-16.5 128t-62.5 116t-127 83t-210 32 h-14v-728z"/>
<glyph unicode="Χ" horiz-adv-x="1363" d="M0 0l518 733l-481 701h328l317 -519l317 519h328l-481 -701l518 -733h-338l-344 553l-344 -553h-338z"/>
<glyph unicode="Ψ" horiz-adv-x="1703" d="M109 1040v394h262v-394q0 -86 12 -162.5t49 -134t105.5 -91.5t183.5 -34v816h262v-816q113 0 182.5 34t106.5 91.5t49 134t12 162.5v394h262v-394q0 -164 -35.5 -279.5t-110.5 -191t-190.5 -114.5t-275.5 -47v-408h-262v408q-160 8 -275.5 47t-190.5 114.5t-110.5 191.5 t-35.5 279z"/>
<glyph unicode="Ω" horiz-adv-x="1515" d="M86 0v217h264v12q-131 74 -197.5 219.5t-66.5 331.5q0 158 38 270.5t99.5 189.5t137 124t150.5 71.5t140.5 33t106.5 8.5t106.5 -8.5t140 -33t150.5 -71.5t137.5 -124t99.5 -189.5t38 -270.5q0 -186 -67 -331.5t-198 -219.5v-12h265v-217h-560v274q51 14 101.5 50 t89.5 96.5t63.5 148.5t24.5 211q0 25 -3 70t-15.5 98t-37 107.5t-68.5 98.5t-109.5 71.5t-157.5 27.5t-157.5 -27.5t-110 -71.5t-69 -98.5t-36.5 -107.5t-15 -98t-3 -70q0 -123 24.5 -211t63.5 -148.5t89 -96t101 -50.5v-274h-559z"/>
<glyph unicode="Ϊ" horiz-adv-x="954" d="M102 1581v180h263v-180h-263zM342 0v1434h262v-1434h-262zM590 1581v180h262v-180h-262z"/>
<glyph unicode="Ϋ" horiz-adv-x="1298" d="M-8 1434h309l348 -629l348 629h310l-527 -863v-571h-262v571zM274 1581v180h263v-180h-263zM762 1581v180h262v-180h-262z"/>
<glyph unicode="ά" horiz-adv-x="1333" d="M88 520q0 119 31 221.5t94 178t158.5 118.5t224.5 43q104 0 197.5 -45t144.5 -135h6l25 139h245l-79 -489q6 -150 34.5 -290t81.5 -261h-241q-8 18 -17.5 43t-16.5 50.5t-14.5 49t-11.5 39.5h-8q-61 -117 -153.5 -170t-213.5 -53q-109 0 -197.5 34t-153 103.5t-100.5 175 t-36 248.5zM350 520q0 -213 72 -303t205 -90q113 0 181.5 76t90.5 235l10 97l-18 100q-23 129 -87.5 203.5t-170.5 74.5q-129 0 -206 -93t-77 -300zM487 1163l158 295h266l-239 -295h-185z"/>
<glyph unicode="έ" horiz-adv-x="1126" d="M88 305q0 39 11.5 76t37 67.5t67.5 54t105 36.5v4q-33 6 -65.5 21.5t-59 43t-43 66.5t-16.5 90q0 61 23.5 117.5t77 101.5t137 71.5t206.5 26.5q135 0 222.5 -31.5t138.5 -80.5t72.5 -108.5t25.5 -115.5h-233q-6 57 -31 90t-56.5 50.5t-65.5 22.5t-58 5q-55 0 -93 -13 t-63 -34.5t-35 -50.5t-10 -57q0 -25 8 -51.5t28.5 -48t53.5 -35t80 -13.5h166v-168h-170q-18 0 -52 -3t-69 -16t-60.5 -43t-25.5 -83q0 -25 8 -54.5t35 -55t73 -43t124 -17.5q76 0 124 20.5t74.5 49t36.5 62.5t10 63h234q-2 -49 -20.5 -112t-69.5 -119t-143.5 -94 t-243.5 -38q-154 0 -250 32t-151.5 83t-75 111.5t-19.5 119.5zM452 1163l158 295h266l-239 -295h-185z"/>
<glyph unicode="ή" horiz-adv-x="1241" d="M41 887v147q59 14 113 15q92 0 146 -33t83 -117h4q27 45 68 79t88 57.5t97 34.5t95 11q133 0 206 -49t106.5 -114.5t40 -129t6.5 -92.5v-1075h-246v997q0 47 -3 99.5t-21.5 95.5t-58.5 71.5t-112 28.5q-25 0 -68.5 -9t-85.5 -44t-74 -104.5t-32 -188.5v-567h-246v780 q0 45 -13 76t-60 31h-33zM444 1163l158 295h266l-239 -295h-185z"/>
<glyph unicode="ί" horiz-adv-x="561" d="M147 205v835h246v-778q0 -63 12.5 -89t53.5 -26h51v-147q-39 -4 -64.5 -5t-58.5 -1q-117 0 -178.5 46t-61.5 165zM155 1163l158 295h266l-239 -295h-185z"/>
<glyph unicode="ΰ" horiz-adv-x="1220" d="M147 438v602h246v-602q0 -170 47 -240.5t158 -70.5q55 0 99 19.5t73 67.5t44 129t15 204q0 178 -23.5 293.5t-64.5 195.5l217 33q66 -98 96.5 -231t30.5 -291q0 -283 -119.5 -435.5t-371.5 -152.5q-225 0 -336 113.5t-111 365.5zM152 1219v204h223v-204h-223zM434 1176 l101 288h233l-182 -288h-152zM797 1219v204h223v-204h-223z"/>
<glyph unicode="α" horiz-adv-x="1333" d="M88 520q0 119 31 221.5t94 178t158.5 118.5t224.5 43q104 0 197.5 -45t144.5 -135h6l25 139h245l-79 -489q6 -150 34.5 -290t81.5 -261h-241q-8 18 -17.5 43t-16.5 50.5t-14.5 49t-11.5 39.5h-8q-61 -117 -153.5 -170t-213.5 -53q-109 0 -197.5 34t-153 103.5t-100.5 175 t-36 248.5zM350 520q0 -213 72 -303t205 -90q113 0 181.5 76t90.5 235l10 97l-18 100q-23 129 -87.5 203.5t-170.5 74.5q-129 0 -206 -93t-77 -300z"/>
<glyph unicode="β" horiz-adv-x="1241" d="M147 -379v1311q0 119 25 218t81 171t149.5 113t228.5 41q98 0 178 -21.5t138.5 -63.5t90 -103.5t31.5 -141.5q0 -119 -63.5 -203t-192.5 -115v-12q170 -27 255 -134.5t85 -258.5q0 -109 -35 -194t-94 -144t-142 -91t-177 -32q-59 0 -109.5 14.5t-89.5 37t-67.5 50 t-45.5 56.5v-498h-246zM393 279q47 -80 113.5 -116t134.5 -36q111 0 180.5 71.5t69.5 227.5q-2 162 -80 229.5t-240 67.5h-67v166h80q229 0 229 213q0 111 -54 158t-132 47q-113 0 -173.5 -79t-60.5 -270v-679z"/>
<glyph unicode="γ" horiz-adv-x="1124" d="M12 881v157q35 4 64.5 7.5t75.5 3.5q96 0 155.5 -34t93.5 -124l203 -531q66 166 133.5 340t132.5 340h254l-405 -938v-481h-246v481l-297 711q-18 47 -44 59.5t-48 12.5h-28.5t-43.5 -4z"/>
<glyph unicode="δ" horiz-adv-x="1236" d="M88 475q0 174 88 292t244 153v6q-113 31 -172.5 98.5t-59.5 165.5q0 137 112 211t321 74q205 0 310 -79t105 -229h-248q0 61 -44 100.5t-126 39.5q-80 0 -123.5 -37t-43.5 -84t16 -78t50 -51.5t86 -35.5t124 -34q205 -51 313.5 -172t108.5 -336q-2 -248 -144.5 -384 t-386.5 -136q-256 0 -393 135t-137 381zM350 483q0 -186 71 -271t197 -85q125 0 197 86t72 270q0 180 -73 267.5t-202 87.5q-123 0 -192.5 -93.5t-69.5 -261.5z"/>
<glyph unicode="ε" horiz-adv-x="1126" d="M88 305q0 39 11.5 76t37 67.5t67.5 54t105 36.5v4q-33 6 -65.5 21.5t-59 43t-43 66.5t-16.5 90q0 61 23.5 117.5t77 101.5t137 71.5t206.5 26.5q135 0 222.5 -31.5t138.5 -80.5t72.5 -108.5t25.5 -115.5h-233q-6 57 -31 90t-56.5 50.5t-65.5 22.5t-58 5q-55 0 -93 -13 t-63 -34.5t-35 -50.5t-10 -57q0 -25 8 -51.5t28.5 -48t53.5 -35t80 -13.5h166v-168h-170q-18 0 -52 -3t-69 -16t-60.5 -43t-25.5 -83q0 -25 8 -54.5t35 -55t73 -43t124 -17.5q76 0 124 20.5t74.5 49t36.5 62.5t10 63h234q-2 -49 -20.5 -112t-69.5 -119t-143.5 -94 t-243.5 -38q-154 0 -250 32t-151.5 83t-75 111.5t-19.5 119.5z"/>
<glyph unicode="ζ" horiz-adv-x="964" d="M88 526q0 113 33 223.5t97.5 208t162.5 175t227 124.5v9h-422v168h781v-166q-152 -18 -266.5 -81t-192.5 -159t-118 -224t-40 -278q0 -102 14.5 -170.5t48 -110.5t88 -59.5t134.5 -17.5h84q139 0 217 -64.5t78 -191.5q0 -41 -10.5 -80t-25.5 -76t-34.5 -71.5t-36.5 -63.5 l-219 74q35 70 57.5 116t22.5 99q0 47 -30.5 68.5t-82.5 21.5h-75q-135 0 -228.5 33t-152 98.5t-85 163.5t-26.5 231z"/>
<glyph unicode="η" horiz-adv-x="1241" d="M41 887v147q59 14 113 15q92 0 146 -33t83 -117h4q27 45 68 79t88 57.5t97 34.5t95 11q133 0 206 -49t106.5 -114.5t40 -129t6.5 -92.5v-1075h-246v997q0 47 -3 99.5t-21.5 95.5t-58.5 71.5t-112 28.5q-25 0 -68.5 -9t-85.5 -44t-74 -104.5t-32 -188.5v-567h-246v780 q0 45 -13 76t-60 31h-33z"/>
<glyph unicode="θ" horiz-adv-x="1269" d="M90 717q0 340 141 553q137 205 404 205q131 0 231.5 -52.5t167.5 -152.5q70 -104 108 -245.5t38 -307.5q0 -344 -144 -555q-139 -201 -401 -201q-268 0 -404 201q-72 106 -106.5 243.5t-34.5 311.5zM344 668q0 -111 16.5 -213.5t53.5 -167.5q86 -160 221 -160 q133 0 219 160q37 72 54.5 171t17.5 210h-582zM346 834h576q-4 104 -23.5 190t-58.5 147q-84 135 -207 136q-127 0 -209 -136q-39 -61 -56.5 -150t-21.5 -187z"/>
<glyph unicode="ι" horiz-adv-x="561" d="M147 205v835h246v-778q0 -63 12.5 -89t53.5 -26h51v-147q-39 -4 -64.5 -5t-58.5 -1q-117 0 -178.5 46t-61.5 165z"/>
<glyph unicode="κ" horiz-adv-x="1085" d="M147 0v1040h246v-434l395 434h283l-463 -485l486 -555h-283l-418 504v-504h-246z"/>
<glyph unicode="λ" horiz-adv-x="1148" d="M0 0l459 1020l-53 158q-23 66 -45.5 81t-55.5 15q-12 0 -29.5 -3t-46.5 -7v166q43 6 79 9t81 3q98 0 151.5 -37t82.5 -121l356 -1061q12 -35 32.5 -51t41.5 -16q12 0 33.5 2t50.5 10v-168l-66 -8t-70 -4q-100 0 -162.5 41t-99.5 157l-174 557l-284 -743h-281z"/>
<glyph unicode="μ" horiz-adv-x="1228" d="M174 -379v1419h246v-567q0 -31 3 -86t21.5 -108.5t57.5 -93.5t112 -40q31 0 65 12.5t63.5 47.5t48 99.5t18.5 168.5v567h246v-747q0 -18 1 -42t9 -42.5t24.5 -30.5t47.5 -10l26 2v-170q-33 -4 -79 -7t-78 -3q-31 0 -62 4t-58.5 17.5t-48 37t-28.5 64.5 q-12 -27 -29.5 -53.5t-42 -49t-56.5 -37t-73 -14.5q-61 0 -112.5 40t-75.5 93v-471h-246z"/>
<glyph unicode="ν" horiz-adv-x="1009" d="M0 1040h262l262 -798l203 571q25 74 25 148q0 45 -9 75l238 33q6 -23 8 -44t2 -44q0 -47 -9 -96t-26 -92l-292 -793h-283z"/>
<glyph unicode="ξ" horiz-adv-x="1007" d="M86 387q0 133 82 221t233 119v14q-78 14 -127 41t-77.5 62t-40 78t-11.5 90q0 37 10.5 72.5t34 68.5t62.5 60.5t98 46.5v6h-252v168h824v-168h-224q-158 0 -229.5 -61.5t-71.5 -182.5q0 -98 66.5 -151.5t214.5 -53.5h203v-168h-203q-168 0 -249 -58.5t-81 -203.5 q0 -115 58.5 -167t166.5 -52h140q139 0 217 -64.5t78 -191.5q0 -41 -10.5 -80t-26 -76t-34.5 -71.5t-36 -63.5l-219 74q35 70 57.5 116t22.5 99q0 47 -31 68.5t-82 21.5h-86q-238 0 -357.5 92t-119.5 295z"/>
<glyph unicode="ο" d="M88 520q0 49 9 110.5t32 124t61.5 121t98 104.5t142.5 73.5t194 27.5t193.5 -27.5t142 -73.5t98.5 -104.5t61.5 -121t31.5 -124t9 -110.5t-9 -110.5t-31.5 -124t-61.5 -121t-98.5 -104.5t-142.5 -73.5t-193 -27.5q-111 0 -194 27.5t-142.5 73.5t-98 104.5t-61.5 121 t-32 123t-9 111.5zM350 520q0 -133 31 -212t74 -118.5t90 -51t80 -11.5t80 11.5t90 51t73.5 118.5t30.5 212t-30.5 212t-73.5 119t-90 51t-80 11t-80 -11t-90 -51t-74 -119t-31 -212z"/>
<glyph unicode="π" horiz-adv-x="1228" d="M53 831v168q47 27 88 34t86 7h949v-168h-132v-579q0 -23 2.5 -46.5t10.5 -42t25.5 -29.5t50.5 -7l20 2v-170q-33 -4 -74 -7t-73 -3q-78 0 -120 23.5t-61.5 57t-22.5 72.5t-3 68v661h-336v-872h-246v872h-27q-35 0 -72.5 -12t-64.5 -29z"/>
<glyph unicode="ρ" horiz-adv-x="1302" d="M147 -379v848q0 315 139.5 463.5t403.5 148.5q133 0 231.5 -42t164 -116.5t97 -176t31.5 -220.5q0 -131 -33.5 -236.5t-97 -179t-155.5 -112.5t-211 -39q-49 0 -97.5 9t-91.5 27.5t-78.5 46.5t-56.5 64v-485h-246zM381 512q0 -176 69.5 -280.5t217.5 -104.5q35 0 84 13.5 t93 54.5t75.5 116.5t31.5 200.5q0 111 -24.5 187.5t-64.5 123.5t-93 68.5t-108 21.5q-41 0 -90.5 -15t-91.5 -58t-70.5 -122t-28.5 -206z"/>
<glyph unicode="ς" horiz-adv-x="1163" d="M88 518q0 133 28.5 226.5t75 156t103.5 99t113.5 54t107.5 22.5t86 5q119 0 209 -32.5t150.5 -86t94.5 -123t42 -145.5h-234q-4 41 -20.5 80t-47 69.5t-74.5 50t-106 19.5q-76 0 -127 -30.5t-81.5 -82.5t-44 -123t-13.5 -149q0 -190 75 -275t208 -85h168q139 0 217 -64.5 t78 -191.5q0 -41 -10.5 -80t-26 -76t-34.5 -71.5t-36 -63.5l-219 74q35 70 57.5 116t22.5 99q0 47 -31 68.5t-82 21.5h-108q-272 0 -406.5 139.5t-134.5 378.5z"/>
<glyph unicode="σ" horiz-adv-x="1267" d="M88 520q0 49 9 110.5t32 124t61.5 121t98 104.5t142.5 73.5t194 27.5q68 0 125 -11t104 -30h410v-168h-213q57 -80 83.5 -179t26.5 -173q0 -49 -9 -110.5t-31.5 -124t-61.5 -121t-98.5 -104.5t-142.5 -73.5t-193 -27.5q-111 0 -194 27.5t-142.5 73.5t-98 104.5t-61.5 121 t-32 123t-9 111.5zM350 520q0 -133 31 -212t74 -118.5t90 -51t80 -11.5t80 11.5t90 51t73.5 118.5t30.5 212t-30.5 212t-73.5 119t-90.5 51t-79.5 11q-33 0 -80 -11t-90 -51t-74 -119t-31 -212z"/>
<glyph unicode="τ" horiz-adv-x="950" d="M6 803v190q96 47 246 47h692v-168h-340v-610q0 -63 11.5 -89t41.5 -26h64v-147q-61 -6 -123 -6q-115 0 -177.5 40t-62.5 148v690h-106q-57 0 -113.5 -13t-132.5 -56z"/>
<glyph unicode="υ" horiz-adv-x="1220" d="M147 438v602h246v-602q0 -170 47 -240.5t158 -70.5q55 0 99 19.5t73 67.5t44 129t15 204q0 178 -23.5 293.5t-64.5 195.5l217 33q66 -98 96.5 -231t30.5 -291q0 -283 -119.5 -435.5t-371.5 -152.5q-225 0 -336 113.5t-111 365.5z"/>
<glyph unicode="φ" horiz-adv-x="1585" d="M55 524q0 106 34 195.5t95.5 156t148.5 108.5t195 54v-176q-104 -31 -160.5 -112.5t-56.5 -227.5q0 -184 92.5 -267t266.5 -87v872h213q332 0 489.5 -137t157.5 -377q0 -131 -49 -228t-134 -162.5t-197 -99.5t-235 -36v-379h-245v379q-162 8 -279 47t-191.5 105.5 t-109.5 161t-35 210.5zM911 168q182 10 271.5 96t91.5 264q0 176 -92 260t-271 84v-704z"/>
<glyph unicode="χ" horiz-adv-x="983" d="M-27 -379l410 768l-188 385q-37 74 -60.5 90.5t-50.5 16.5q-12 0 -31.5 -3.5t-44.5 -7.5v166q39 4 67.5 8.5t65.5 4.5q78 0 132.5 -29t86.5 -100l160 -349l209 469h252l-348 -669l229 -480q18 -41 37 -62.5t34 -32.5t28.5 -13t23.5 -2q12 0 26.5 3t45.5 9v-168 q-45 -6 -76 -9t-66 -3q-78 0 -134 31.5t-93 111.5l-192 418l-260 -553h-263z"/>
<glyph unicode="ψ" horiz-adv-x="1597" d="M147 539v501h246v-477q0 -84 13.5 -151.5t44 -117.5t83 -83t132.5 -45v1268h245v-1268q70 8 124.5 30.5t92 69.5t58 123t20.5 191q0 168 -32.5 283.5t-63.5 174.5l240 31q63 -117 87.5 -240.5t24.5 -253.5q0 -129 -36.5 -234t-107.5 -181t-173.5 -118t-233.5 -42v-379 h-245v379q-137 6 -235.5 46t-161 109.5t-92.5 166t-30 217.5z"/>
<glyph unicode="ω" horiz-adv-x="1581" d="M88 483q0 272 140.5 423t404.5 155v-166q-68 -6 -122 -29.5t-91 -72t-56.5 -124t-19.5 -186.5q0 -117 16.5 -186.5t43 -108t57.5 -51t61 -12.5q86 0 116 74.5t30 230.5v139h245v-139q0 -156 30 -230.5t116 -74.5q31 0 61.5 12.5t57 51t43 108.5t16.5 186 q0 111 -19.5 186.5t-56.5 124t-91 72t-122 29.5v166q264 -4 404.5 -154.5t140.5 -423.5q0 -256 -106.5 -390t-305.5 -134q-59 0 -109 18.5t-87 50t-60.5 73.5t-29.5 89h-9q-6 -47 -29.5 -89t-60.5 -73.5t-87 -50t-109 -18.5q-199 0 -305.5 134t-106.5 390z"/>
<glyph unicode="ϊ" horiz-adv-x="561" d="M-29 1217v217h238v-217h-238zM147 205v835h246v-778q0 -63 12.5 -89t53.5 -26h51v-147q-39 -4 -64.5 -5t-58.5 -1q-117 0 -178.5 46t-61.5 165zM361 1217v217h237v-217h-237z"/>
<glyph unicode="ϋ" horiz-adv-x="1220" d="M147 438v602h246v-602q0 -170 47 -240.5t158 -70.5q55 0 99 19.5t73 67.5t44 129t15 204q0 178 -23.5 293.5t-64.5 195.5l217 33q66 -98 96.5 -231t30.5 -291q0 -283 -119.5 -435.5t-371.5 -152.5q-225 0 -336 113.5t-111 365.5zM243 1217v217h238v-217h-238zM633 1217 v217h237v-217h-237z"/>
<glyph unicode="ό" d="M88 520q0 49 9 110.5t32 124t61.5 121t98 104.5t142.5 73.5t194 27.5t193.5 -27.5t142 -73.5t98.5 -104.5t61.5 -121t31.5 -124t9 -110.5t-9 -110.5t-31.5 -124t-61.5 -121t-98.5 -104.5t-142.5 -73.5t-193 -27.5q-111 0 -194 27.5t-142.5 73.5t-98 104.5t-61.5 121 t-32 123t-9 111.5zM350 520q0 -133 31 -212t74 -118.5t90 -51t80 -11.5t80 11.5t90 51t73.5 118.5t30.5 212t-30.5 212t-73.5 119t-90 51t-80 11t-80 -11t-90 -51t-74 -119t-31 -212zM507 1163l158 295h266l-239 -295h-185z"/>
<glyph unicode="ύ" horiz-adv-x="1220" d="M147 438v602h246v-602q0 -170 47 -240.5t158 -70.5q55 0 99 19.5t73 67.5t44 129t15 204q0 178 -23.5 293.5t-64.5 195.5l217 33q66 -98 96.5 -231t30.5 -291q0 -283 -119.5 -435.5t-371.5 -152.5q-225 0 -336 113.5t-111 365.5zM464 1163l158 295h266l-239 -295h-185z "/>
<glyph unicode="ώ" horiz-adv-x="1581" d="M88 483q0 272 140.5 423t404.5 155v-166q-68 -6 -122 -29.5t-91 -72t-56.5 -124t-19.5 -186.5q0 -117 16.5 -186.5t43 -108t57.5 -51t61 -12.5q86 0 116 74.5t30 230.5v139h245v-139q0 -156 30 -230.5t116 -74.5q31 0 61.5 12.5t57 51t43 108.5t16.5 186 q0 111 -19.5 186.5t-56.5 124t-91 72t-122 29.5v166q264 -4 404.5 -154.5t140.5 -423.5q0 -256 -106.5 -390t-305.5 -134q-59 0 -109 18.5t-87 50t-60.5 73.5t-29.5 89h-9q-6 -47 -29.5 -89t-60.5 -73.5t-87 -50t-109 -18.5q-199 0 -305.5 134t-106.5 390zM686 1163l158 295 h266l-239 -295h-185z"/>
<glyph unicode="Ё" horiz-adv-x="1308" d="M174 0v1434h1077v-217h-815v-373h727v-217h-727v-410h838v-217h-1100zM352 1581v180h262v-180h-262zM840 1581v180h262v-180h-262z"/>
<glyph unicode="Ђ" horiz-adv-x="1597" d="M25 1217v217h1163v-217h-471v-402q86 10 147.5 12t120.5 2q70 0 161 -8t172 -48t136 -126t55 -239q0 -29 -5 -73t-20.5 -92t-46 -96.5t-80.5 -87.5t-123 -62.5t-175 -23.5q-45 0 -83 6.5t-79 20.5v217q33 -10 71 -18.5t68 -8.5q98 0 145.5 56.5t47.5 152.5 q0 78 -24.5 121t-64.5 63.5t-88 24.5t-96 4q-59 0 -115.5 -3t-123.5 -11v-598h-262v1217h-430z"/>
<glyph unicode="Ѓ" horiz-adv-x="1138" d="M174 0v1434h938v-217h-676v-1217h-262zM404 1556l159 287h279l-242 -287h-196z"/>
<glyph unicode="Є" horiz-adv-x="1536" d="M92 692q0 154 37 295t120 250t219 174.5t337 65.5q178 0 296 -45.5t188.5 -115t100 -150.5t33.5 -154h-260q-14 104 -104 176t-262 72q-115 0 -195 -39t-129 -99.5t-72.5 -134.5t-25.5 -143h667v-217h-667q2 -68 22.5 -147t68.5 -146.5t129 -113.5t204 -46 q94 0 162.5 24.5t114.5 63.5t72 88t36 99h260q-12 -72 -47 -158t-109 -160t-194.5 -124t-302.5 -50q-154 0 -283 45t-221 137t-143.5 230.5t-51.5 322.5z"/>
<glyph unicode="Ѕ" horiz-adv-x="1400" d="M92 461h260q2 -41 18.5 -91.5t57.5 -93.5t112.5 -72.5t184.5 -29.5q37 0 88 5t99.5 26.5t82 64.5t33.5 119q0 63 -27.5 104.5t-67.5 65t-84 34.5t-79 17q-43 8 -85 16.5t-83 18.5q-88 20 -168 46t-141.5 72t-98 116.5t-36.5 179.5q0 100 33.5 170.5t86 118t118 73 t128 37.5t115.5 15.5t82 3.5q141 0 243.5 -35t169 -93.5t101.5 -135t41 -158.5h-260q-10 76 -47 116.5t-84 60t-94.5 24t-75.5 4.5q-14 0 -59.5 -3.5t-93.5 -20.5t-86 -56t-38 -111q0 -55 28 -90t73 -56.5t102 -33.5t117 -23q125 -23 226 -51.5t173 -77.5t112 -125.5 t40 -195.5q0 -152 -59.5 -243t-149.5 -139t-195.5 -62.5t-195.5 -14.5q-184 0 -302 47t-187.5 120t-97.5 162t-30 175z"/>
<glyph unicode="І" horiz-adv-x="610" d="M174 0v1434h262v-1434h-262z"/>
<glyph unicode="Ї" horiz-adv-x="696" d="M41 1581v180h246v-180h-246zM217 0v1434h262v-1434h-262zM410 1581v180h245v-180h-245z"/>
<glyph unicode="Ј" horiz-adv-x="1128" d="M47 418v80h262v-60q0 -92 21.5 -144t54.5 -79t68.5 -34t64.5 -7q39 0 76 8t64.5 39t44 90.5t16.5 163.5v959h262v-926q0 -90 -11.5 -187.5t-57.5 -178.5t-139 -133t-257 -52q-143 0 -234.5 42t-143.5 108.5t-71.5 148.5t-19.5 162z"/>
<glyph unicode="Љ" horiz-adv-x="2265" d="M27 0v217q12 -2 25.5 -3t25.5 -1q98 0 153.5 62.5t81 158.5t30.5 212t5 224v564h981v-553h373q39 0 91 -4.5t107.5 -19.5t108.5 -44t96 -79t69 -123.5t26 -178.5q0 -68 -20.5 -143.5t-76 -140t-153 -106.5t-250.5 -42h-633v1217h-457v-424q0 -162 -16 -307.5t-67.5 -255 t-146.5 -174t-253 -64.5q-25 0 -50.5 2t-49.5 6zM1329 217h320q51 0 102 8t90 32t63.5 69t24.5 118q0 76 -27.5 120t-68.5 66.5t-89 28t-89 5.5h-326v-447z"/>
<glyph unicode="Њ" horiz-adv-x="2273" d="M174 0v1434h262v-574h639v574h262v-553h373q39 0 91 -4.5t107.5 -19.5t109 -44t96.5 -79t68.5 -123.5t25.5 -178.5q0 -68 -20.5 -143.5t-76 -140t-152.5 -106.5t-251 -42h-633v643h-639v-643h-262zM1337 217h320q51 0 102 8t90 32t63.5 69t24.5 118q0 76 -27.5 120 t-68.5 66.5t-89 28t-89 5.5h-326v-447z"/>
<glyph unicode="Ћ" horiz-adv-x="1642" d="M25 1217v217h1163v-217h-471v-402q59 4 141 9t152 5q180 0 285.5 -35.5t159.5 -93t69.5 -128t15.5 -140.5v-432h-262v373q0 51 -5 95t-35 77t-94.5 50t-182.5 17q-57 0 -111.5 -2t-132.5 -12v-598h-262v1217h-430z"/>
<glyph unicode="Ќ" horiz-adv-x="1368" d="M174 0v1434h262v-646l576 646h311l-635 -662l688 -772h-332l-608 743v-743h-262zM558 1556l159 287h279l-242 -287h-196z"/>
<glyph unicode="Ў" horiz-adv-x="1275" d="M18 1434h322l367 -775l303 775h274l-481 -1155q-45 -111 -96.5 -171.5t-104.5 -89t-105.5 -33.5t-99.5 -5q-51 0 -92 3t-94 19v227q35 -10 71.5 -17t77.5 -7q35 0 67 7t58.5 25.5t47 52.5t32.5 87zM206 1808h211q8 -82 70.5 -124t148.5 -42t148.5 42t71.5 124h211 q-12 -66 -45 -123t-86.5 -99t-129 -66.5t-170.5 -24.5q-96 0 -170.5 24.5t-128 66.5t-86 99.5t-45.5 122.5z"/>
<glyph unicode="Џ" horiz-adv-x="1544" d="M184 0v1434h262v-1217h652v1217h262v-1434h-465v-379h-246v379h-465z"/>
<glyph unicode="А" horiz-adv-x="1327" d="M-8 0l540 1434h263l540 -1434h-280l-105 301h-573l-105 -301h-280zM446 518h435l-217 637z"/>
<glyph unicode="Б" horiz-adv-x="1417" d="M174 0v1434h1067v-217h-805v-353h418q57 0 140 -11t159 -55t129 -132t53 -242q0 -104 -29.5 -177t-76.5 -120t-103.5 -72.5t-110.5 -38t-98.5 -14.5t-64.5 -2h-678zM436 217h348q51 0 101.5 8t90.5 31t64.5 66t24.5 114q0 74 -27.5 116t-68.5 63.5t-89.5 26.5t-88.5 5 h-355v-430z"/>
<glyph unicode="В" horiz-adv-x="1464" d="M174 0v1434h676q137 0 222 -35t132 -88.5t64.5 -117t17.5 -122.5q0 -119 -66.5 -204t-170.5 -103v-4q45 -8 96 -28.5t96 -62.5t75 -106.5t30 -161.5q0 -135 -51.5 -215t-130.5 -121.5t-171 -53t-172 -11.5h-647zM436 217h359q59 0 110 9.5t89 33t59.5 64.5t21.5 106 q0 72 -27.5 113t-68.5 61.5t-89 25.5t-89 5h-365v-418zM436 852h346q111 0 172.5 38t61.5 132q0 72 -30 110.5t-69.5 57t-79.5 23t-61 4.5h-340v-365z"/>
<glyph unicode="Г" horiz-adv-x="1138" d="M174 0v1434h938v-217h-676v-1217h-262z"/>
<glyph unicode="Д" horiz-adv-x="1552" d="M0 217h123q35 45 78 119t80.5 182.5t63.5 258t26 347.5v310h958v-1217h197l-13 -541h-229v324h-1042v-324h-230zM434 217h633v1000h-434v-173q0 -119 -8.5 -225t-30 -205.5t-60 -198t-100.5 -198.5z"/>
<glyph unicode="Е" horiz-adv-x="1306" d="M174 0v1434h1075v-217h-813v-373h729v-217h-729v-410h836v-217h-1098z"/>
<glyph unicode="Ж" horiz-adv-x="1978" d="M-8 0l633 770l-594 664h315l512 -607v607h262v-607l512 607h316l-594 -664l633 -770h-316l-551 686v-686h-262v686l-551 -686h-315z"/>
<glyph unicode="З" horiz-adv-x="1427" d="M92 489h260q0 -45 13.5 -99t53.5 -102t111.5 -81t188.5 -33q147 0 233 61.5t86 178.5q0 68 -21.5 110.5t-59 68t-90 36t-111.5 10.5h-197v217h170q23 0 65 3t84 21.5t72.5 56.5t30.5 107q0 96 -66.5 156t-224.5 60q-92 0 -153.5 -21.5t-98.5 -56.5t-52 -79t-17 -91h-260 q2 141 53 231t134 142.5t191.5 72t225.5 19.5q74 0 167 -13.5t176 -56.5t139 -123t56 -213q0 -70 -19.5 -125t-52 -95t-76.5 -64.5t-91 -30.5v-4q57 -8 111.5 -35t95.5 -72t65.5 -109.5t24.5 -148.5q0 -63 -22.5 -138t-88 -139.5t-184.5 -108.5t-312 -44q-139 0 -249.5 30.5 t-188.5 95t-122 165t-50 241.5z"/>
<glyph unicode="И" horiz-adv-x="1548" d="M174 0v1434h262v-1049l682 1049h256v-1434h-262v1049l-682 -1049h-256z"/>
<glyph unicode="Й" horiz-adv-x="1548" d="M174 0v1434h262v-1049l682 1049h256v-1434h-262v1049l-682 -1049h-256zM344 1808h211q8 -82 70.5 -124t148.5 -42t148.5 42t71.5 124h211q-12 -66 -45 -123t-86.5 -99t-129 -66.5t-170.5 -24.5q-96 0 -170.5 24.5t-128 66.5t-86 99.5t-45.5 122.5z"/>
<glyph unicode="К" horiz-adv-x="1368" d="M174 0v1434h262v-646l576 646h311l-635 -662l688 -772h-332l-608 743v-743h-262z"/>
<glyph unicode="Л" horiz-adv-x="1503" d="M27 0v217q117 -20 182 38t96 158.5t37 224.5t6 232v564h981v-1434h-262v1217h-457v-424q0 -90 -5 -190.5t-24.5 -196t-57.5 -179.5t-102.5 -141t-160.5 -83t-233 -3z"/>
<glyph unicode="М" horiz-adv-x="1912" d="M174 0v1434h391l391 -1088l392 1088h391v-1434h-262v1079l4 56h-4l-422 -1135h-197l-422 1135h-4l4 -56v-1079h-262z"/>
<glyph unicode="Н" horiz-adv-x="1511" d="M174 0v1434h262v-574h639v574h262v-1434h-262v643h-639v-643h-262z"/>
<glyph unicode="О" horiz-adv-x="1589" d="M92 717q0 186 43 314t110.5 213t150.5 132t161 68.5t142.5 27t95.5 5.5t95 -5.5t142 -27t161 -68.5t150.5 -132t110.5 -213t43 -314t-43 -314.5t-110.5 -213.5t-150.5 -132t-161 -68.5t-142.5 -26.5t-94.5 -5q-31 0 -95.5 5t-142.5 26.5t-161 68.5t-150.5 132t-110.5 213 t-43 315zM373 717q0 -84 16.5 -178.5t62.5 -176t128 -135t215 -53.5t215 53.5t128 135t62.5 176t16.5 178.5q0 82 -16.5 177t-62.5 177t-128 135.5t-215 53.5t-215 -53.5t-128 -135.5t-62.5 -177t-16.5 -177z"/>
<glyph unicode="П" horiz-adv-x="1507" d="M174 0v1434h1159v-1434h-262v1217h-635v-1217h-262z"/>
<glyph unicode="Р" horiz-adv-x="1368" d="M174 0v1434h571q84 0 182.5 -12.5t181.5 -57.5t138.5 -133t55.5 -242q0 -98 -30 -182t-95.5 -145.5t-172 -97.5t-262.5 -36h-307v-528h-262zM436 745h305q45 0 96.5 6.5t94.5 29t71.5 69.5t28.5 127q0 86 -30.5 134t-75.5 71.5t-95.5 29t-87.5 5.5h-307v-472z"/>
<glyph unicode="С" horiz-adv-x="1501" d="M92 692q0 221 58.5 371.5t155.5 242t223 131.5t259 40q184 0 302 -50.5t185.5 -126t95.5 -164.5t32 -165h-260q-6 45 -24.5 95t-58.5 93t-105.5 72t-166.5 29q-121 0 -200.5 -45.5t-126.5 -122t-67.5 -178t-20.5 -212.5q0 -127 32.5 -225t91 -165.5t140.5 -102.5t178 -35 q88 0 152.5 27.5t107.5 72.5t63.5 101.5t24.5 113.5h260q-8 -82 -37.5 -175t-98 -173t-185.5 -132t-299 -52q-27 0 -90.5 4t-143.5 25.5t-163.5 66.5t-153.5 126t-115 206t-45 307z"/>
<glyph unicode="Т" horiz-adv-x="1216" d="M27 1217v217h1163v-217h-451v-1217h-262v1217h-450z"/>
<glyph unicode="У" horiz-adv-x="1275" d="M18 1434h322l367 -775l303 775h274l-481 -1155q-45 -111 -96.5 -171.5t-104.5 -89t-105.5 -33.5t-99.5 -5q-51 0 -92 3t-94 19v227q35 -10 71.5 -17t77.5 -7q35 0 67 7t58.5 25.5t47 52.5t32.5 87z"/>
<glyph unicode="Ф" horiz-adv-x="1896" d="M86 731q0 57 10 123t37 131.5t75 125.5t123 106.5t181 74t250 27.5h55v227h262v-227h56q143 0 249.5 -27.5t181 -74t123 -106.5t75 -125.5t36.5 -131.5t10 -123q0 -139 -39.5 -237.5t-103 -164t-142.5 -102.5t-154 -55t-138.5 -23.5t-97.5 -5.5h-56v-204h-262v204h-55 q-35 0 -98.5 5.5t-138 23.5t-153.5 55t-142.5 102.5t-103.5 164t-40 237.5zM367 731q0 -63 13 -132t58 -126t130 -94t231 -37h18v778h-18q-145 0 -230.5 -36.5t-130.5 -94t-58 -126t-13 -132.5zM1079 342h19q143 0 229 37t131 94t58.5 126t13.5 132t-13.5 132t-58.5 126.5 t-131 94t-229 36.5h-19v-778z"/>
<glyph unicode="Х" horiz-adv-x="1363" d="M0 0l518 733l-481 701h328l317 -519l317 519h328l-481 -701l518 -733h-338l-344 553l-344 -553h-338z"/>
<glyph unicode="Ц" horiz-adv-x="1568" d="M174 0v1434h262v-1217h647v1217h263v-1217h196l-12 -541h-230v324h-1126z"/>
<glyph unicode="Ч" horiz-adv-x="1378" d="M119 987v447h262v-387q0 -51 6 -95.5t35 -76t89 -50t171 -18.5q43 0 86 2t79 4t61.5 5t33.5 3v613h262v-1434h-262v604q-59 -4 -141 -9t-152 -5q-115 0 -212 16.5t-167.5 61.5t-110.5 121.5t-40 197.5z"/>
<glyph unicode="Ш" horiz-adv-x="2097" d="M174 0v1434h262v-1217h482v1217h262v-1217h481v1217h262v-1434h-1749z"/>
<glyph unicode="Щ" horiz-adv-x="2146" d="M174 0v1434h262v-1217h482v1217h262v-1217h481v1217h262v-1217h197l-13 -541h-229v324h-1704z"/>
<glyph unicode="Ъ" horiz-adv-x="1523" d="M27 1217v217h561v-553h373q39 0 91 -4.5t107 -19.5t108.5 -44t96.5 -79t68.5 -123.5t25.5 -178.5q0 -68 -20.5 -143.5t-75.5 -140t-152.5 -106.5t-251.5 -42h-632v1217h-299zM588 217h319q51 0 102.5 8t90.5 32t63.5 69t24.5 118q0 76 -27.5 120t-68.5 66.5t-89.5 28 t-89.5 5.5h-325v-447z"/>
<glyph unicode="Ы" horiz-adv-x="1859" d="M174 0v1434h262v-553h373q39 0 91 -4.5t107.5 -19.5t108.5 -44t96 -79t69 -123.5t26 -178.5q0 -68 -20.5 -143.5t-76 -140t-152.5 -106.5t-251 -42h-633zM436 217h320q51 0 102 8t90 32t63.5 69t24.5 118q0 76 -27.5 120t-68.5 66.5t-89 28t-89 5.5h-326v-447zM1423 0 v1434h263v-1434h-263z"/>
<glyph unicode="Ь" horiz-adv-x="1372" d="M174 0v1434h262v-553h373q39 0 91 -4.5t107.5 -19.5t108.5 -44t96 -79t69 -123.5t26 -178.5q0 -68 -20.5 -143.5t-76 -140t-152.5 -106.5t-251 -42h-633zM436 217h320q51 0 102 8t90 32t63.5 69t24.5 118q0 76 -27.5 120t-68.5 66.5t-89 28t-89 5.5h-326v-447z"/>
<glyph unicode="Э" horiz-adv-x="1531" d="M92 489h260q4 -57 29 -113.5t72 -101.5t116.5 -72.5t163.5 -27.5q119 0 200 45t129 112.5t69.5 147.5t25.5 148h-627v217h627q-4 68 -26.5 141.5t-71.5 135t-129 100.5t-195 39q-170 0 -258 -72t-104 -176h-260q6 74 35.5 154.5t98 150t184.5 115t296 45.5 q201 0 337 -65.5t220 -174.5t120 -250t36 -295q0 -184 -52.5 -321.5t-147.5 -229.5t-227 -138t-292 -46q-178 0 -296 53t-189.5 133t-104.5 173.5t-39 172.5z"/>
<glyph unicode="Ю" horiz-adv-x="2109" d="M174 0v1434h262v-574h185q8 94 43.5 201.5t115.5 200t210 154t325 61.5q31 0 95.5 -5.5t142 -27t160.5 -68.5t150.5 -132t110.5 -213t43 -314t-43 -314.5t-110.5 -213.5t-150.5 -132t-160.5 -68.5t-142 -26.5t-95.5 -5q-203 0 -336 65.5t-212 167t-112.5 222t-40.5 231.5 h-178v-643h-262zM893 717q0 -84 16.5 -178.5t62.5 -176t128 -135t215 -53.5t215 53.5t128 135t62.5 176t16.5 178.5q0 82 -16.5 177t-62.5 177t-128 135.5t-215 53.5t-215 -53.5t-128 -135.5t-62.5 -177t-16.5 -177z"/>
<glyph unicode="Я" horiz-adv-x="1474" d="M113 0l405 563q-49 6 -115.5 26.5t-125 68t-99.5 126t-41 201.5q0 106 29 182t75 125t106.5 78t124 43t124.5 17.5t113 3.5h591v-1434h-262v535h-250l-344 -535h-331zM408 979q0 -78 31.5 -124t78.5 -68.5t100.5 -28.5t96.5 -6h323v465h-342q-27 0 -75 -4.5t-96 -26 t-82.5 -70.5t-34.5 -137z"/>
<glyph unicode="а" horiz-adv-x="1181" d="M76 276q0 82 30.5 135.5t71.5 87t80 49t57 19.5q59 16 118 22.5t124 16.5q25 4 50.5 7t49.5 8q33 4 55.5 8t38 14t22.5 30.5t7 59.5q0 61 -20.5 97t-51 54.5t-65.5 23.5t-65 5q-68 0 -115 -16t-76 -44t-41 -62.5t-10 -71.5h-234q-2 72 25 137.5t84 115.5t147.5 79.5 t219.5 29.5q158 0 247.5 -40t134 -98t55.5 -121.5t11 -108.5v-416q0 -37 2 -62.5t11.5 -41t26.5 -20.5t50 -3v-170q-47 -4 -69.5 -5t-38.5 -1q-25 0 -55.5 3t-61.5 16.5t-54.5 41t-31.5 74.5q-68 -86 -155 -120t-191 -34q-135 0 -212 35t-115 83t-47 99.5t-9 83.5zM330 285 q0 -59 38 -100.5t124 -41.5q45 0 96 12.5t94 46.5t70.5 96t27.5 165v37q-20 -14 -54 -23.5t-122 -19.5q-63 -8 -113.5 -17.5t-86 -27t-55 -47t-19.5 -80.5z"/>
<glyph unicode="б" horiz-adv-x="1298" d="M117 578q0 125 7 218t18.5 161.5t25.5 114.5t27 77q33 76 80 127t115.5 85t159.5 53.5t212 31.5q74 6 105.5 19.5t41.5 47.5h201q-6 -90 -41 -142t-86 -79.5t-112.5 -39t-122.5 -17.5q-72 -8 -156 -24.5t-154.5 -61.5t-116 -131t-38.5 -232h4q25 68 67.5 120t99 87 t122 53.5t133.5 18.5q104 0 195 -37t160 -107.5t107.5 -174t38.5 -234.5q0 -104 -30.5 -203.5t-97 -177.5t-170 -125t-248.5 -47q-135 0 -228.5 37t-154 95.5t-94 130t-49 140t-18.5 127t-3 89.5zM379 512q0 -131 31.5 -207t75.5 -115.5t93.5 -51t84.5 -11.5t84 11.5t93 51 t75.5 115.5t31.5 207t-31.5 207t-75.5 115.5t-93.5 51t-83.5 11.5q-35 0 -84.5 -11.5t-93.5 -51t-75.5 -115.5t-31.5 -207z"/>
<glyph unicode="в" horiz-adv-x="1175" d="M147 0v1040h562q162 0 250 -58t88 -194q0 -59 -19.5 -102t-49.5 -71.5t-64.5 -45t-67.5 -22.5v-4q47 -10 90 -28.5t75.5 -50.5t52 -79t19.5 -111q0 -80 -31.5 -132t-84 -83.5t-121 -45t-141.5 -13.5h-558zM393 168h234q27 0 61.5 4t66 17.5t53 41t21.5 74.5 q0 49 -20.5 79t-52 45t-68.5 20.5t-70 5.5h-225v-287zM393 623h211q57 0 95 12t58.5 31.5t29 43t8.5 44.5q0 39 -16.5 62.5t-41 35.5t-53.5 16t-53 4h-238v-249z"/>
<glyph unicode="г" horiz-adv-x="929" d="M147 0v1040h758v-168h-512v-872h-246z"/>
<glyph unicode="д" horiz-adv-x="1310" d="M0 168h143q61 94 94 193.5t49.5 191.5t19.5 171t3 134v182h813v-872h181l-21 -438h-205v270h-852v-270h-205zM403 168h474v704h-338v-127q0 -92 -7.5 -163.5t-23.5 -138t-42 -132t-63 -143.5z"/>
<glyph unicode="е" horiz-adv-x="1216" d="M88 502q0 131 33 238.5t98.5 183t164.5 116.5t234 41q113 0 194 -27.5t136.5 -73.5t89 -104.5t53 -122t26.5 -125t9 -112.5q0 -16 1 -29.5t1 -29.5h-778q0 -49 13.5 -107.5t47 -107.5t89 -82t137.5 -33q41 0 82 11.5t74.5 33t56 54t29.5 75.5h233q-10 -51 -35.5 -110.5 t-82 -110.5t-147.5 -86t-231 -35q-27 0 -75.5 4t-107 20.5t-120 50.5t-111.5 94t-82 151.5t-32 222.5zM350 625h518q0 35 -9 85t-34.5 95t-75 76.5t-128.5 31.5q-72 0 -124.5 -26.5t-85 -67.5t-48 -92t-13.5 -102z"/>
<glyph unicode="ж" horiz-adv-x="1548" d="M-8 0l454 549l-432 491h289l348 -456v456h246v-456l348 456h289l-432 -491l454 -549h-303l-356 496v-496h-246v496l-356 -496h-303z"/>
<glyph unicode="з" horiz-adv-x="1126" d="M66 326h233q0 -29 9 -63t36 -64.5t75 -51t126 -20.5q76 0 123 17.5t73.5 43t34.5 55t8 54.5q0 55 -25.5 85t-60 43t-68.5 15t-52 2h-140v168h113q55 0 91 13.5t56.5 35t28.5 48t8 51.5q0 29 -10 57.5t-34.5 50t-62.5 34.5t-93 13q-25 0 -60 -5t-65.5 -24.5t-54 -56 t-25.5 -100.5h-234q2 55 20.5 117.5t67.5 115t136.5 87t228.5 34.5q123 0 207 -26.5t137 -71.5t76.5 -101.5t23.5 -117.5q0 -51 -15 -90t-40 -66.5t-56.5 -43t-64.5 -21.5v-4q63 -12 105.5 -36t68 -54.5t36.5 -67.5t11 -76q0 -59 -19.5 -119.5t-74.5 -111.5t-151.5 -83 t-249.5 -32q-154 0 -247 39t-143.5 96.5t-67.5 119.5t-19 112z"/>
<glyph unicode="и" horiz-adv-x="1298" d="M147 0v1040h246v-749l488 749h270v-1040h-246v750l-487 -750h-271z"/>
<glyph unicode="й" horiz-adv-x="1298" d="M147 0v1040h246v-749l488 749h270v-1040h-246v750l-487 -750h-271zM245 1434h209q4 -72 60.5 -111t134.5 -39t134 39t60 111h209q-10 -43 -31.5 -94.5t-67.5 -95.5t-120 -73.5t-184 -29.5q-111 0 -184.5 29.5t-119.5 73.5t-68.5 95.5t-31.5 94.5z"/>
<glyph unicode="к" horiz-adv-x="1085" d="M147 0v1040h246v-434l395 434h283l-463 -485l486 -555h-283l-418 504v-504h-246z"/>
<glyph unicode="л" horiz-adv-x="1210" d="M27 0v168q100 -18 149 25t69.5 121.5t20.5 181.5v204v340h797v-1040h-246v872h-321v-194q0 -90 -3.5 -182.5t-17.5 -175t-44 -151.5t-82 -114t-131 -61.5t-191 6.5z"/>
<glyph unicode="м" horiz-adv-x="1593" d="M147 0v1040h336l314 -778l313 778h336v-1040h-246v713l4 55h-4l-315 -768h-176l-316 768h-4l4 -55v-713h-246z"/>
<glyph unicode="н" horiz-adv-x="1236" d="M147 0v1040h246v-409h451v409h246v-1040h-246v463h-451v-463h-246z"/>
<glyph unicode="о" d="M88 520q0 49 9 110.5t32 124t61.5 121t98 104.5t142.5 73.5t194 27.5t193.5 -27.5t142 -73.5t98.5 -104.5t61.5 -121t31.5 -124t9 -110.5t-9 -110.5t-31.5 -124t-61.5 -121t-98.5 -104.5t-142.5 -73.5t-193 -27.5q-111 0 -194 27.5t-142.5 73.5t-98 104.5t-61.5 121 t-32 123t-9 111.5zM350 520q0 -133 31 -212t74 -118.5t90 -51t80 -11.5t80 11.5t90 51t73.5 118.5t30.5 212t-30.5 212t-73.5 119t-90 51t-80 11t-80 -11t-90 -51t-74 -119t-31 -212z"/>
<glyph unicode="п" horiz-adv-x="1253" d="M147 0v1040h959v-1040h-246v872h-467v-872h-246z"/>
<glyph unicode="р" horiz-adv-x="1302" d="M147 -379v1419h226v-102h4q35 43 77 70.5t86 44t88 22.5t85 6q90 0 179 -29.5t160.5 -96t116.5 -172t45 -257.5q0 -82 -19 -181t-73.5 -185t-151 -143.5t-249.5 -57.5q-10 0 -51 2t-92.5 16.5t-102.5 44t-82 84.5v-485h-246zM375 518q0 -176 70.5 -283.5t205.5 -107.5 q41 0 93.5 13.5t98.5 54.5t77.5 116.5t31.5 200.5q0 111 -24.5 187.5t-64.5 123.5t-93 68.5t-108 21.5q-41 0 -91.5 -14t-93.5 -56t-72.5 -120t-29.5 -205z"/>
<glyph unicode="с" horiz-adv-x="1175" d="M88 518q0 133 28.5 226.5t75 156t103.5 99t113.5 54t107.5 22.5t86 5q119 0 209 -32.5t150.5 -86t94.5 -123t42 -145.5h-234q-4 41 -20.5 80t-47 69.5t-74.5 50t-106 19.5q-76 0 -127 -31.5t-81.5 -86t-44 -126t-13.5 -151.5q0 -123 28 -198.5t68.5 -118.5t91 -58.5 t93.5 -15.5q68 0 112.5 26.5t72.5 64.5t39 82t13 81h234q-6 -57 -29.5 -130t-79 -137.5t-147.5 -109.5t-236 -45q-133 0 -231 41t-162.5 114.5t-96.5 177t-32 226.5z"/>
<glyph unicode="т" horiz-adv-x="1011" d="M27 872v168h958v-168h-356v-872h-246v872h-356z"/>
<glyph unicode="у" horiz-adv-x="1107" d="M14 1040h295l314 -774l239 774h246l-397 -1130q-12 -35 -32 -86t-56.5 -98.5t-97 -80t-156.5 -32.5q-35 0 -76 3t-78 9v168q18 -4 42 -8t52 -4q72 0 104.5 40t59.5 132l14 49z"/>
<glyph unicode="ф" horiz-adv-x="1732" d="M88 520q0 119 32 205t84 147.5t119.5 99.5t140.5 59.5t145.5 28.5t133.5 5v369h246v-369q61 2 134 -5t145.5 -28.5t140.5 -59.5t120 -99.5t84 -147.5t32 -205q0 -172 -61.5 -278.5t-157 -165t-211 -79t-226.5 -22.5v-354h-246v354q-111 2 -227.5 22.5t-211.5 79 t-155.5 165t-60.5 278.5zM350 520q0 -111 33 -184.5t88 -116.5t126 -60.5t146 -17.5v756q-203 0 -298 -96t-95 -281zM989 141q76 0 146.5 17.5t126 60.5t88 117t32.5 184q0 184 -95 280.5t-298 96.5v-756z"/>
<glyph unicode="х" horiz-adv-x="1067" d="M0 0l397 543l-372 497h268l242 -350l241 350h268l-374 -497l397 -543h-262l-270 387l-271 -387h-264z"/>
<glyph unicode="ц" horiz-adv-x="1294" d="M147 0v1040h246v-872h467v872h246v-872h180l-20 -438h-205v270h-914z"/>
<glyph unicode="ч" horiz-adv-x="1110" d="M90 707v333h246v-286q0 -37 3 -70t23.5 -56.5t64.5 -36.5t126 -13q23 0 53.5 1t110.5 3v458h246v-1040h-246v414q-14 0 -42 -1t-61 -1t-67.5 -1t-63.5 -1q-137 0 -215 23.5t-117.5 63.5t-50 94t-10.5 116z"/>
<glyph unicode="ш" horiz-adv-x="1810" d="M147 0v1040h246v-872h389v872h246v-872h389v872h246v-1040h-1516z"/>
<glyph unicode="щ" horiz-adv-x="1851" d="M147 0v1040h246v-872h389v872h246v-872h389v872h246v-872h180l-20 -438h-205v270h-1471z"/>
<glyph unicode="ъ" horiz-adv-x="1280" d="M29 872v168h526v-401h240q61 0 137 -6t141.5 -38t109.5 -96.5t44 -181.5q0 -106 -39 -169.5t-95.5 -96.5t-122 -42t-118.5 -9h-543v872h-280zM555 168h238q72 0 126 35t54 121q0 55 -22.5 85.5t-53.5 44t-60.5 15.5t-43.5 2h-238v-303z"/>
<glyph unicode="ы" horiz-adv-x="1581" d="M147 0v1040h246v-401h240q61 0 137 -6t141.5 -38t109.5 -96.5t44 -181.5q0 -106 -39 -169.5t-95.5 -96.5t-122 -42t-118.5 -9h-543zM393 168h238q72 0 126 35t54 121q0 55 -22.5 85.5t-53 44t-60.5 15.5t-44 2h-238v-303zM1188 0v1040h246v-1040h-246z"/>
<glyph unicode="ь" horiz-adv-x="1112" d="M147 0v1040h246v-401h240q61 0 137 -6t141.5 -38t109.5 -96.5t44 -181.5q0 -106 -39 -169.5t-95.5 -96.5t-122 -42t-118.5 -9h-543zM393 168h238q72 0 126 35t54 121q0 55 -22.5 85.5t-53 44t-60.5 15.5t-44 2h-238v-303z"/>
<glyph unicode="э" horiz-adv-x="1204" d="M76 352h233q2 -43 19.5 -84t49.5 -72.5t79 -50t106 -18.5q80 0 135.5 33t89 82t49 105t17.5 104h-403v167h403q-2 51 -19.5 104.5t-51 95.5t-84 68.5t-119.5 26.5q-106 0 -181 -51t-86 -147h-233q10 88 53 156.5t109.5 114.5t155.5 70.5t192 24.5q33 0 85 -5t110.5 -22.5 t118 -54t106.5 -99t76.5 -156t29.5 -226.5q0 -23 -3 -73t-19.5 -111.5t-49 -128t-94 -121.5t-155 -90t-228.5 -35q-131 0 -222 36t-148.5 93t-86 127t-34.5 137z"/>
<glyph unicode="ю" horiz-adv-x="1695" d="M147 0v1040h246v-407h154q6 90 44 171t104.5 142.5t160.5 98t215 36.5q111 0 194 -27.5t142 -73.5t98 -104.5t61.5 -121t32 -124t9.5 -110.5t-9.5 -110.5t-32 -124t-61.5 -121t-98 -104.5t-142 -73.5t-194 -27.5q-137 0 -236.5 45t-164 117t-96 162t-33.5 182h-148v-465 h-246zM797 520q0 -133 30.5 -212t73.5 -118.5t90 -51t80 -11.5t80 11.5t90 51t74 118.5t31 212t-31 212t-74 119t-90 51t-80 11t-80 -11t-90 -51t-73.5 -119t-30.5 -212z"/>
<glyph unicode="я" horiz-adv-x="1181" d="M76 0l307 389q-39 4 -88 19.5t-93 49.5t-74 92t-30 148q0 84 22.5 142.5t58.5 96.5t80 59.5t85 30.5t76 11t51 2h563v-1040h-246v387h-159l-283 -387h-270zM352 709q0 -80 51.5 -117t167.5 -37h217v317h-217q-111 0 -165 -35.5t-54 -127.5z"/>
<glyph unicode="ё" horiz-adv-x="1216" d="M88 502q0 131 33 238.5t98.5 183t164.5 116.5t234 41q123 0 216.5 -33.5t158 -108.5t99 -193.5t36.5 -288.5h-778q0 -49 13.5 -107.5t47 -107.5t89 -82t137.5 -33q41 0 82 11.5t74.5 33t56 54t29.5 75.5h233q-10 -51 -35.5 -110.5t-82 -110.5t-147.5 -86t-231 -35 q-27 0 -75.5 4t-107 20.5t-120 50.5t-111.5 94t-82 151.5t-32 222.5zM324 1217v217h237v-217h-237zM350 625h518q0 35 -9 85t-34.5 95t-75 76.5t-128.5 31.5q-72 0 -124.5 -26.5t-85 -67.5t-48 -92t-13.5 -102zM713 1217v217h237v-217h-237z"/>
<glyph unicode="ђ" horiz-adv-x="1273" d="M0 1169v140h164v125h246v-125h419v-140h-419v-266q27 45 66.5 79t85.5 56.5t95.5 32.5t94.5 10q123 0 200.5 -48t120.5 -135t58.5 -207t15.5 -263q0 -197 -20.5 -347.5t-76 -252.5t-154.5 -154.5t-257 -52.5v178h29q88 0 133 59.5t63.5 150.5t19.5 202t1 213q0 96 -1 185 t-20.5 157t-63.5 107.5t-130 39.5q-25 0 -69 -9t-87 -43t-73.5 -99.5t-30.5 -179.5v-582h-246v1169h-164z"/>
<glyph unicode="ѓ" horiz-adv-x="929" d="M147 0v1040h758v-168h-512v-872h-246zM314 1163l143 271h266l-225 -271h-184z"/>
<glyph unicode="є" horiz-adv-x="1204" d="M88 518q0 133 31 226.5t80 156t110.5 99t123 54t114.5 22.5t88 5q98 0 183 -24.5t150.5 -70.5t105.5 -114.5t50 -156.5h-233q-10 96 -85 147t-181 51q-70 0 -121 -26.5t-85 -68.5t-50.5 -95t-18.5 -105h404v-167h-404q2 -47 16.5 -103.5t47 -105.5t87 -82t136.5 -33 q63 0 109.5 19.5t78 50t49 71.5t21.5 84h233q-6 -72 -37.5 -142.5t-92 -125.5t-152.5 -90t-221 -35q-119 0 -218.5 34t-170 103.5t-109.5 175t-39 246.5z"/>
<glyph unicode="ѕ" horiz-adv-x="1105" d="M74 317h245q0 -53 23 -88.5t57.5 -58.5t78.5 -33t85 -10q35 0 72 6t67.5 24.5t51 51.5t20.5 86q0 68 -44 98.5t-148 48.5q-29 4 -56.5 9.5t-56.5 9.5q-86 14 -149.5 37.5t-105.5 58.5t-63.5 86t-21.5 125q0 102 47 164.5t114.5 95.5t142.5 43t130 10q125 0 210 -25.5 t136.5 -68.5t73 -101.5t23.5 -121.5h-232q-6 70 -59 109.5t-144 39.5q-76 0 -132 -26.5t-56 -102.5q0 -49 22.5 -77.5t60.5 -45t86 -25.5t99 -18q57 -10 124 -22t124 -44t95 -89t38 -154q0 -96 -39 -162.5t-103.5 -107.5t-147.5 -60.5t-171 -19.5q-145 0 -240 34t-150.5 87 t-79 115.5t-27.5 121.5z"/>
<glyph unicode="і" horiz-adv-x="540" d="M147 0v1040h246v-1040h-246zM147 1217v217h246v-217h-246z"/>
<glyph unicode="ї" horiz-adv-x="634" d="M41 1217v217h225v-217h-225zM195 0v1040h245v-1040h-245zM369 1217v217h225v-217h-225z"/>
<glyph unicode="ј" horiz-adv-x="540" d="M-39 -211q100 2 143 37t43 133v1081h246v-1095q0 -68 -9 -128.5t-39 -105.5t-88 -71.5t-157 -26.5q-27 0 -67.5 2t-71.5 6v168zM147 1217v217h246v-217h-246z"/>
<glyph unicode="љ" horiz-adv-x="1781" d="M27 0v168q10 -2 20 -3t21 -1q74 0 114.5 34.5t59 102.5t21.5 168t3 231v340h797v-401h256q55 0 127 -6t136.5 -38t108.5 -96.5t44 -181.5q0 -106 -39 -169.5t-95.5 -96.5t-122 -42t-118.5 -9h-543v872h-321v-194q0 -139 -7.5 -264t-44 -218.5t-116.5 -148.5t-226 -55 q-18 0 -37.5 2t-37.5 6zM1063 168h237q72 0 126.5 35t54.5 121q0 55 -22.5 85.5t-53.5 44t-60.5 15.5t-44.5 2h-237v-303z"/>
<glyph unicode="њ" horiz-adv-x="1808" d="M147 0v1040h246v-409h451v409h246v-401h256q55 0 126.5 -6t136 -38t108.5 -96.5t44 -181.5q0 -106 -39 -169.5t-95 -96.5t-121.5 -42t-119.5 -9h-542v463h-451v-463h-246zM1090 168h237q35 0 67.5 8t57.5 26.5t40 48.5t15 73q0 55 -22.5 85.5t-52 44t-60.5 15.5t-45 2 h-237v-303z"/>
<glyph unicode="ћ" horiz-adv-x="1257" d="M0 1169v140h164v125h246v-125h419v-140h-419v-266q27 45 66.5 79t85.5 55.5t95.5 32.5t94.5 11q133 0 205.5 -49t106.5 -114.5t40 -129t6 -92.5v-696h-246v618q0 47 -3 99.5t-21.5 95.5t-58.5 71.5t-111 28.5q-25 0 -69 -9t-87 -43t-73.5 -99.5t-30.5 -179.5v-582h-246 v1169h-164z"/>
<glyph unicode="ќ" horiz-adv-x="1085" d="M147 0v1040h246v-434l395 434h283l-463 -485l486 -555h-283l-418 504v-504h-246zM392 1163l143 271h266l-225 -271h-184z"/>
<glyph unicode="ў" horiz-adv-x="1107" d="M14 1040h295l314 -774l239 774h246l-397 -1130q-12 -35 -32 -86t-56.5 -98.5t-97 -80t-156.5 -32.5q-35 0 -76 3t-78 9v168q18 -4 42 -8t52 -4q72 0 104.5 40t59.5 132l14 49zM149 1434h209q4 -72 60.5 -111t134.5 -39t134 39t60 111h209q-10 -43 -31.5 -94.5 t-67.5 -95.5t-120 -73.5t-184 -29.5q-111 0 -184.5 29.5t-119.5 73.5t-68.5 95.5t-31.5 94.5z"/>
<glyph unicode="џ" horiz-adv-x="1257" d="M147 0v1040h246v-872h471v872h246v-1040h-373v-379h-217v379h-373z"/>
<glyph unicode="Ґ" horiz-adv-x="1138" d="M174 0v1434h696v323h230l12 -540h-676v-1217h-262z"/>
<glyph unicode="ґ" horiz-adv-x="929" d="M147 0v1040h533v271h205l20 -439h-512v-872h-246z"/>
<glyph unicode="ẞ" horiz-adv-x="2785" d="M92 461h260q2 -41 18.5 -91.5t57.5 -93.5t112.5 -72.5t184.5 -29.5q37 0 88 5t99.5 26.5t82 64.5t33.5 119q0 63 -27.5 104.5t-67.5 65t-84 34.5t-79 17q-43 8 -85 16.5t-83 18.5q-88 20 -168 46t-141.5 72t-98 116.5t-36.5 179.5q0 100 33.5 170.5t86 118t118 73 t128 37.5t115.5 15.5t82 3.5q141 0 243.5 -35t169 -93.5t101.5 -135t41 -158.5h-260q-10 76 -47 116.5t-84 60t-94.5 24t-75.5 4.5q-14 0 -59.5 -3.5t-93.5 -20.5t-86 -56t-38 -111q0 -55 28 -90t73 -56.5t102 -33.5t117 -23q125 -23 226 -51.5t173 -77.5t112 -125.5 t40 -195.5q0 -152 -59.5 -243t-149.5 -139t-195.5 -62.5t-195.5 -14.5q-184 0 -302 47t-187.5 120t-97.5 162t-30 175zM1474 461h260q2 -41 18.5 -91.5t57.5 -93.5t112.5 -72.5t184.5 -29.5q37 0 88 5t99.5 26.5t82 64.5t33.5 119q0 63 -27.5 104.5t-67.5 65t-84 34.5 t-79 17q-43 8 -85 16.5t-83 18.5q-88 20 -168 46t-141.5 72t-98 116.5t-36.5 179.5q0 100 33.5 170.5t86 118t118 73t128 37.5t115.5 15.5t82 3.5q141 0 243.5 -35t169 -93.5t101.5 -135t41 -158.5h-260q-10 76 -47 116.5t-84 60t-94.5 24t-75.5 4.5q-14 0 -59.5 -3.5 t-93.5 -20.5t-86 -56t-38 -111q0 -55 28 -90t73 -56.5t102 -33.5t117 -23q125 -23 226 -51.5t173 -77.5t112 -125.5t40 -195.5q0 -152 -59.5 -243t-149.5 -139t-195.5 -62.5t-195.5 -14.5q-184 0 -302 47t-187.5 120t-97.5 162t-30 175z"/>
<glyph unicode="Ạ" horiz-adv-x="1327" d="M-8 0l540 1434h263l540 -1434h-280l-105 301h-573l-105 -301h-280zM446 518h435l-217 637zM542 -162h246v-217h-246v217z"/>
<glyph unicode="ạ" horiz-adv-x="1181" d="M76 276q0 82 30.5 135.5t71.5 87t80 49t57 19.5q59 16 118 22.5t124 16.5q25 4 50.5 7t49.5 8q33 4 55.5 8t38 14t22.5 30.5t7 59.5q0 61 -20.5 97t-51 54.5t-65.5 23.5t-65 5q-68 0 -115 -16t-76 -44t-41 -62.5t-10 -71.5h-234q-2 72 25 137.5t84 115.5t147.5 79.5 t219.5 29.5q158 0 247.5 -40t134 -98t55.5 -121.5t11 -108.5v-416q0 -37 2 -62.5t11.5 -41t26.5 -20.5t50 -3v-170q-47 -4 -69.5 -5t-38.5 -1q-25 0 -55.5 3t-61.5 16.5t-54.5 41t-31.5 74.5q-68 -86 -155 -120t-191 -34q-135 0 -212 35t-115 83t-47 99.5t-9 83.5zM330 285 q0 -59 38 -100.5t124 -41.5q45 0 96 12.5t94 46.5t70.5 96t27.5 165v37q-20 -14 -54 -23.5t-122 -19.5q-63 -8 -113.5 -17.5t-86 -27t-55 -47t-19.5 -80.5zM440 -162h246v-217h-246v217z"/>
<glyph unicode="Ả" horiz-adv-x="1327" d="M-8 0l540 1434h263l540 -1434h-280l-105 301h-573l-105 -301h-280zM402 1800q0 39 10 78t40 70.5t81 51t135 19.5q135 0 195.5 -48t60.5 -120q0 -59 -32 -98t-79 -74q-39 -29 -53 -49t-14 -43v-31h-187v35q0 29 18.5 63.5t74.5 77.5q45 35 65.5 56.5t20.5 54.5 q0 20 -13.5 39.5t-56.5 19.5q-45 0 -65.5 -27.5t-22.5 -74.5h-178zM446 518h435l-217 637z"/>
<glyph unicode="ả" horiz-adv-x="1181" d="M76 276q0 82 30.5 135.5t71.5 87t80 49t57 19.5q59 16 118 22.5t124 16.5q25 4 50.5 7t49.5 8q33 4 55.5 8t38 14t22.5 30.5t7 59.5q0 61 -20.5 97t-51 54.5t-65.5 23.5t-65 5q-68 0 -115 -16t-76 -44t-41 -62.5t-10 -71.5h-234q-2 72 25 137.5t84 115.5t147.5 79.5 t219.5 29.5q158 0 247.5 -40t134 -98t55.5 -121.5t11 -108.5v-416q0 -37 2 -62.5t11.5 -41t26.5 -20.5t50 -3v-170q-47 -4 -69.5 -5t-38.5 -1q-25 0 -55.5 3t-61.5 16.5t-54.5 41t-31.5 74.5q-68 -86 -155 -120t-191 -34q-135 0 -212 35t-115 83t-47 99.5t-9 83.5zM303 1407 q0 39 10 78t40 70.5t81 51t135 19.5q135 0 195.5 -48t60.5 -120q0 -59 -32 -98t-79 -74q-39 -29 -53 -49t-14 -43v-31h-187v35q0 29 18.5 63.5t74.5 77.5q45 35 65.5 56.5t20.5 54.5q0 20 -13.5 39.5t-56.5 19.5q-45 0 -65.5 -27.5t-22.5 -74.5h-178zM330 285 q0 -59 38 -100.5t124 -41.5q45 0 96 12.5t94 46.5t70.5 96t27.5 165v37q-20 -14 -54 -23.5t-122 -19.5q-63 -8 -113.5 -17.5t-86 -27t-55 -47t-19.5 -80.5z"/>
<glyph unicode="Ấ" horiz-adv-x="1327" d="M-8 0l540 1434h263l540 -1434h-280l-105 301h-573l-105 -301h-280zM213 1556l275 287h352l275 -287h-246l-205 193l-205 -193h-246zM446 518h435l-217 637zM996 1740l159 287h279l-242 -287h-196z"/>
<glyph unicode="ấ" horiz-adv-x="1181" d="M76 276q0 82 30.5 135.5t71.5 87t80 49t57 19.5q59 16 118 22.5t124 16.5q25 4 50.5 7t49.5 8q33 4 55.5 8t38 14t22.5 30.5t7 59.5q0 61 -20.5 97t-51 54.5t-65.5 23.5t-65 5q-68 0 -115 -16t-76 -44t-41 -62.5t-10 -71.5h-234q-2 72 25 137.5t84 115.5t147.5 79.5 t219.5 29.5q158 0 247.5 -40t134 -98t55.5 -121.5t11 -108.5v-416q0 -37 2 -62.5t11.5 -41t26.5 -20.5t50 -3v-170q-47 -4 -69.5 -5t-38.5 -1q-25 0 -55.5 3t-61.5 16.5t-54.5 41t-31.5 74.5q-68 -86 -155 -120t-191 -34q-135 0 -212 35t-115 83t-47 99.5t-9 83.5zM188 1163 l246 271h328l246 -271h-226l-184 183l-184 -183h-226zM330 285q0 -59 38 -100.5t124 -41.5q45 0 96 12.5t94 46.5t70.5 96t27.5 165v37q-20 -14 -54 -23.5t-122 -19.5q-63 -8 -113.5 -17.5t-86 -27t-55 -47t-19.5 -80.5zM885 1370l143 271h266l-225 -271h-184z"/>
<glyph unicode="Ầ" horiz-adv-x="1327" d="M-88 2027h279l159 -287h-196zM-8 0l540 1434h263l540 -1434h-280l-105 301h-573l-105 -301h-280zM217 1556l275 287h352l275 -287h-246l-205 193l-205 -193h-246zM446 518h435l-217 637z"/>
<glyph unicode="ầ" horiz-adv-x="1181" d="M-90 1641h266l144 -271h-185zM76 276q0 82 30.5 135.5t71.5 87t80 49t57 19.5q59 16 118 22.5t124 16.5q25 4 50.5 7t49.5 8q33 4 55.5 8t38 14t22.5 30.5t7 59.5q0 61 -20.5 97t-51 54.5t-65.5 23.5t-65 5q-68 0 -115 -16t-76 -44t-41 -62.5t-10 -71.5h-234 q-2 72 25 137.5t84 115.5t147.5 79.5t219.5 29.5q158 0 247.5 -40t134 -98t55.5 -121.5t11 -108.5v-416q0 -37 2 -62.5t11.5 -41t26.5 -20.5t50 -3v-170q-47 -4 -69.5 -5t-38.5 -1q-25 0 -55.5 3t-61.5 16.5t-54.5 41t-31.5 74.5q-68 -86 -155 -120t-191 -34q-135 0 -212 35 t-115 83t-47 99.5t-9 83.5zM182 1163l246 271h328l246 -271h-226l-184 183l-184 -183h-226zM330 285q0 -59 38 -100.5t124 -41.5q45 0 96 12.5t94 46.5t70.5 96t27.5 165v37q-20 -14 -54 -23.5t-122 -19.5q-63 -8 -113.5 -17.5t-86 -27t-55 -47t-19.5 -80.5z"/>
<glyph unicode="Ẩ" horiz-adv-x="1327" d="M-8 0l540 1434h263l540 -1434h-280l-105 301h-573l-105 -301h-280zM213 1556l275 287h352l275 -287h-246l-205 193l-205 -193h-246zM446 518h435l-217 637zM854 1985q0 39 10 78t40 70.5t81 51t135 19.5q135 0 195.5 -48t60.5 -120q0 -59 -32 -98t-79 -74 q-39 -29 -53 -49t-14 -43v-31h-187v35q0 29 18.5 63.5t74.5 77.5q45 35 65.5 56.5t20.5 54.5q0 20 -13.5 39.5t-56.5 19.5q-45 0 -65.5 -27.5t-22.5 -74.5h-178z"/>
<glyph unicode="ẩ" horiz-adv-x="1181" d="M76 276q0 82 30.5 135.5t71.5 87t80 49t57 19.5q59 16 118 22.5t124 16.5q25 4 50.5 7t49.5 8q33 4 55.5 8t38 14t22.5 30.5t7 59.5q0 61 -20.5 97t-51 54.5t-65.5 23.5t-65 5q-68 0 -115 -16t-76 -44t-41 -62.5t-10 -71.5h-234q-2 72 25 137.5t84 115.5t147.5 79.5 t219.5 29.5q158 0 247.5 -40t134 -98t55.5 -121.5t11 -108.5v-416q0 -37 2 -62.5t11.5 -41t26.5 -20.5t50 -3v-170q-47 -4 -69.5 -5t-38.5 -1q-25 0 -55.5 3t-61.5 16.5t-54.5 41t-31.5 74.5q-68 -86 -155 -120t-191 -34q-135 0 -212 35t-115 83t-47 99.5t-9 83.5zM180 1163 l246 271h328l246 -271h-226l-184 183l-184 -183h-226zM330 285q0 -59 38 -100.5t124 -41.5q45 0 96 12.5t94 46.5t70.5 96t27.5 165v37q-20 -14 -54 -23.5t-122 -19.5q-63 -8 -113.5 -17.5t-86 -27t-55 -47t-19.5 -80.5z"/>
<glyph unicode="Ẫ" horiz-adv-x="1327" d="M-8 0l540 1434h263l540 -1434h-280l-105 301h-573l-105 -301h-280zM217 1556l275 287h352l275 -287h-246l-205 193l-205 -193h-246zM237 1927q6 43 23.5 85t50.5 76t79 55.5t112 21.5q49 0 84.5 -9.5t89.5 -31.5q27 -10 46 -19.5t35.5 -15.5t35 -10t40.5 -4q49 0 75 22.5 t30 50.5h164q-8 -39 -24.5 -81t-47.5 -76.5t-78 -57t-115 -22.5q-47 0 -83.5 11t-90.5 34q-41 16 -78.5 30.5t-78.5 14.5t-71 -19.5t-34 -54.5h-164zM446 518h435l-217 637z"/>
<glyph unicode="ẫ" horiz-adv-x="1181" d="M76 276q0 82 30.5 135.5t71.5 87t80 49t57 19.5q59 16 118 22.5t124 16.5q25 4 50.5 7t49.5 8q33 4 55.5 8t38 14t22.5 30.5t7 59.5q0 61 -20.5 97t-51 54.5t-65.5 23.5t-65 5q-68 0 -115 -16t-76 -44t-41 -62.5t-10 -71.5h-234q-2 72 25 137.5t84 115.5t147.5 79.5 t219.5 29.5q158 0 247.5 -40t134 -98t55.5 -121.5t11 -108.5v-416q0 -37 2 -62.5t11.5 -41t26.5 -20.5t50 -3v-170q-47 -4 -69.5 -5t-38.5 -1q-25 0 -55.5 3t-61.5 16.5t-54.5 41t-31.5 74.5q-68 -86 -155 -120t-191 -34q-135 0 -212 35t-115 83t-47 99.5t-9 83.5zM182 1163 l246 271h328l246 -271h-226l-184 183l-184 -183h-226zM202 1522q6 41 25.5 79t50.5 66.5t73 46t93 17.5q47 0 83 -11.5t75 -29.5q45 -20 71.5 -34.5t69.5 -14.5q51 0 70.5 25.5t23.5 48.5h152q-16 -100 -87 -154.5t-155 -54.5q-45 0 -83 13t-75 32q-37 16 -69.5 30.5 t-71.5 14.5q-51 0 -70.5 -25.5t-23.5 -48.5h-152zM330 285q0 -59 38 -100.5t124 -41.5q45 0 96 12.5t94 46.5t70.5 96t27.5 165v37q-20 -14 -54 -23.5t-122 -19.5q-63 -8 -113.5 -17.5t-86 -27t-55 -47t-19.5 -80.5z"/>
<glyph unicode="Ậ" horiz-adv-x="1327" d="M-8 0l540 1434h263l540 -1434h-280l-105 301h-573l-105 -301h-280zM215 1556l275 287h352l275 -287h-246l-205 193l-205 -193h-246zM446 518h435l-217 637zM540 -162h246v-217h-246v217z"/>
<glyph unicode="ậ" horiz-adv-x="1181" d="M76 276q0 82 30.5 135.5t71.5 87t80 49t57 19.5q59 16 118 22.5t124 16.5q25 4 50.5 7t49.5 8q33 4 55.5 8t38 14t22.5 30.5t7 59.5q0 61 -20.5 97t-51 54.5t-65.5 23.5t-65 5q-68 0 -115 -16t-76 -44t-41 -62.5t-10 -71.5h-234q-2 72 25 137.5t84 115.5t147.5 79.5 t219.5 29.5q158 0 247.5 -40t134 -98t55.5 -121.5t11 -108.5v-416q0 -37 2 -62.5t11.5 -41t26.5 -20.5t50 -3v-170q-47 -4 -69.5 -5t-38.5 -1q-25 0 -55.5 3t-61.5 16.5t-54.5 41t-31.5 74.5q-68 -86 -155 -120t-191 -34q-135 0 -212 35t-115 83t-47 99.5t-9 83.5zM174 1163 l246 271h328l246 -271h-226l-184 183l-184 -183h-226zM330 285q0 -59 38 -100.5t124 -41.5q45 0 96 12.5t94 46.5t70.5 96t27.5 165v37q-20 -14 -54 -23.5t-122 -19.5q-63 -8 -113.5 -17.5t-86 -27t-55 -47t-19.5 -80.5zM448 -162h246v-217h-246v217z"/>
<glyph unicode="Ắ" horiz-adv-x="1327" d="M-8 0l540 1434h263l540 -1434h-280l-105 301h-573l-105 -301h-280zM237 1870h211q8 -82 70.5 -124t148.5 -42t148.5 42t71.5 124h211q-12 -66 -45 -123t-86.5 -99t-129 -67t-170.5 -25q-96 0 -170.5 25t-128 67t-86 99t-45.5 123zM446 518h435l-217 637zM535 1802 l159 287h279l-242 -287h-196z"/>
<glyph unicode="ắ" horiz-adv-x="1181" d="M76 276q0 82 30.5 135.5t71.5 87t80 49t57 19.5q59 16 118 22.5t124 16.5q25 4 50.5 7t49.5 8q33 4 55.5 8t38 14t22.5 30.5t7 59.5q0 61 -20.5 97t-51 54.5t-65.5 23.5t-65 5q-68 0 -115 -16t-76 -44t-41 -62.5t-10 -71.5h-234q-2 72 25 137.5t84 115.5t147.5 79.5 t219.5 29.5q158 0 247.5 -40t134 -98t55.5 -121.5t11 -108.5v-416q0 -37 2 -62.5t11.5 -41t26.5 -20.5t50 -3v-170q-47 -4 -69.5 -5t-38.5 -1q-25 0 -55.5 3t-61.5 16.5t-54.5 41t-31.5 74.5q-68 -86 -155 -120t-191 -34q-135 0 -212 35t-115 83t-47 99.5t-9 83.5zM184 1434 h209q4 -72 60.5 -111t134.5 -39t134 39t60 111h209q-10 -43 -31.5 -94.5t-67.5 -95.5t-120 -73.5t-184 -29.5q-111 0 -184.5 29.5t-119.5 73.5t-68.5 95.5t-31.5 94.5zM330 285q0 -59 38 -100.5t124 -41.5q45 0 96 12.5t94 46.5t70.5 96t27.5 165v37q-20 -14 -54 -23.5 t-122 -19.5q-63 -8 -113.5 -17.5t-86 -27t-55 -47t-19.5 -80.5zM473 1431l143 271h266l-225 -271h-184z"/>
<glyph unicode="Ằ" horiz-adv-x="1327" d="M-8 0l540 1434h263l540 -1434h-280l-105 301h-573l-105 -301h-280zM237 1870h211q8 -82 70.5 -124t148.5 -42t148.5 42t71.5 124h211q-12 -66 -45 -123t-86.5 -99t-129 -67t-170.5 -25q-96 0 -170.5 25t-128 67t-86 99t-45.5 123zM358 2089h279l159 -287h-196zM446 518 h435l-217 637z"/>
<glyph unicode="ằ" horiz-adv-x="1181" d="M76 276q0 82 30.5 135.5t71.5 87t80 49t57 19.5q59 16 118 22.5t124 16.5q25 4 50.5 7t49.5 8q33 4 55.5 8t38 14t22.5 30.5t7 59.5q0 61 -20.5 97t-51 54.5t-65.5 23.5t-65 5q-68 0 -115 -16t-76 -44t-41 -62.5t-10 -71.5h-234q-2 72 25 137.5t84 115.5t147.5 79.5 t219.5 29.5q158 0 247.5 -40t134 -98t55.5 -121.5t11 -108.5v-416q0 -37 2 -62.5t11.5 -41t26.5 -20.5t50 -3v-170q-47 -4 -69.5 -5t-38.5 -1q-25 0 -55.5 3t-61.5 16.5t-54.5 41t-31.5 74.5q-68 -86 -155 -120t-191 -34q-135 0 -212 35t-115 83t-47 99.5t-9 83.5zM184 1434 h209q4 -72 60.5 -111t134.5 -39t134 39t60 111h209q-10 -43 -31.5 -94.5t-67.5 -95.5t-120 -73.5t-184 -29.5q-111 0 -184.5 29.5t-119.5 73.5t-68.5 95.5t-31.5 94.5zM295 1702h266l144 -271h-185zM330 285q0 -59 38 -100.5t124 -41.5q45 0 96 12.5t94 46.5t70.5 96 t27.5 165v37q-20 -14 -54 -23.5t-122 -19.5q-63 -8 -113.5 -17.5t-86 -27t-55 -47t-19.5 -80.5z"/>
<glyph unicode="Ẳ" horiz-adv-x="1327" d="M-8 0l540 1434h263l540 -1434h-280l-105 301h-573l-105 -301h-280zM237 1870h211q8 -82 70.5 -124t148.5 -42t148.5 42t71.5 124h211q-12 -66 -45 -123t-86.5 -99t-129 -67t-170.5 -25q-96 0 -170.5 25t-128 67t-86 99t-45.5 123zM396 2036q0 39 10 78t40 70.5t81 51 t135 19.5q135 0 195.5 -48t60.5 -120q0 -59 -32 -98t-79 -74q-39 -29 -53 -49t-14 -43v-31h-187v35q0 29 18.5 63.5t74.5 77.5q45 35 65.5 56.5t20.5 54.5q0 20 -13.5 39.5t-56.5 19.5q-45 0 -65.5 -27.5t-22.5 -74.5h-178zM446 518h435l-217 637z"/>
<glyph unicode="ẳ" horiz-adv-x="1181" d="M76 276q0 82 30.5 135.5t71.5 87t80 49t57 19.5q59 16 118 22.5t124 16.5q25 4 50.5 7t49.5 8q33 4 55.5 8t38 14t22.5 30.5t7 59.5q0 61 -20.5 97t-51 54.5t-65.5 23.5t-65 5q-68 0 -115 -16t-76 -44t-41 -62.5t-10 -71.5h-234q-2 72 25 137.5t84 115.5t147.5 79.5 t219.5 29.5q158 0 247.5 -40t134 -98t55.5 -121.5t11 -108.5v-416q0 -37 2 -62.5t11.5 -41t26.5 -20.5t50 -3v-170q-47 -4 -69.5 -5t-38.5 -1q-25 0 -55.5 3t-61.5 16.5t-54.5 41t-31.5 74.5q-68 -86 -155 -120t-191 -34q-135 0 -212 35t-115 83t-47 99.5t-9 83.5zM184 1434 h209q4 -72 60.5 -111t134.5 -39t134 39t60 111h209q-10 -43 -31.5 -94.5t-67.5 -95.5t-120 -73.5t-184 -29.5q-111 0 -184.5 29.5t-119.5 73.5t-68.5 95.5t-31.5 94.5zM324 1626q0 39 10 78t40 70.5t81 51t135 19.5q135 0 195.5 -48t60.5 -120q0 -59 -32 -98t-79 -74 q-39 -29 -53 -49t-14 -43v-31h-187v35q0 29 18.5 63.5t74.5 77.5q45 35 65.5 56.5t20.5 54.5q0 20 -13.5 39.5t-56.5 19.5q-45 0 -65.5 -27.5t-22.5 -74.5h-178zM330 285q0 -59 38 -100.5t124 -41.5q45 0 96 12.5t94 46.5t70.5 96t27.5 165v37q-20 -14 -54 -23.5t-122 -19.5 q-63 -8 -113.5 -17.5t-86 -27t-55 -47t-19.5 -80.5z"/>
<glyph unicode="Ẵ" horiz-adv-x="1327" d="M-8 0l540 1434h263l540 -1434h-280l-105 301h-573l-105 -301h-280zM231 1927q6 43 23.5 85t50.5 76t79 55.5t112 21.5q49 0 84.5 -9.5t89.5 -31.5q27 -10 46 -19.5t35.5 -15.5t35 -10t40.5 -4q49 0 75 22.5t30 50.5h164q-8 -39 -24.5 -81t-47.5 -76.5t-78 -57t-115 -22.5 q-47 0 -83.5 11t-90.5 34q-41 16 -78.5 30.5t-78.5 14.5t-71 -19.5t-34 -54.5h-164zM237 1870h211q8 -82 70.5 -124t148.5 -42t148.5 42t71.5 124h211q-12 -66 -45 -123t-86.5 -99t-129 -67t-170.5 -25q-96 0 -170.5 25t-128 67t-86 99t-45.5 123zM446 518h435l-217 637z "/>
<glyph unicode="ẵ" horiz-adv-x="1181" d="M76 276q0 82 30.5 135.5t71.5 87t80 49t57 19.5q59 16 118 22.5t124 16.5q25 4 50.5 7t49.5 8q33 4 55.5 8t38 14t22.5 30.5t7 59.5q0 61 -20.5 97t-51 54.5t-65.5 23.5t-65 5q-68 0 -115 -16t-76 -44t-41 -62.5t-10 -71.5h-234q-2 72 25 137.5t84 115.5t147.5 79.5 t219.5 29.5q158 0 247.5 -40t134 -98t55.5 -121.5t11 -108.5v-416q0 -37 2 -62.5t11.5 -41t26.5 -20.5t50 -3v-170q-47 -4 -69.5 -5t-38.5 -1q-25 0 -55.5 3t-61.5 16.5t-54.5 41t-31.5 74.5q-68 -86 -155 -120t-191 -34q-135 0 -212 35t-115 83t-47 99.5t-9 83.5zM184 1434 h209q4 -72 60.5 -111t134.5 -39t134 39t60 111h209q-10 -43 -31.5 -94.5t-67.5 -95.5t-120 -73.5t-184 -29.5q-111 0 -184.5 29.5t-119.5 73.5t-68.5 95.5t-31.5 94.5zM190 1522q6 41 25.5 79t50.5 66.5t73 46t93 17.5q47 0 83 -11.5t75 -29.5q45 -20 71.5 -34.5t69.5 -14.5 q51 0 70.5 25.5t23.5 48.5h152q-16 -100 -87 -154.5t-155 -54.5q-45 0 -83 13t-75 32q-37 16 -69.5 30.5t-71.5 14.5q-51 0 -70.5 -25.5t-23.5 -48.5h-152zM330 285q0 -59 38 -100.5t124 -41.5q45 0 96 12.5t94 46.5t70.5 96t27.5 165v37q-20 -14 -54 -23.5t-122 -19.5 q-63 -8 -113.5 -17.5t-86 -27t-55 -47t-19.5 -80.5z"/>
<glyph unicode="Ặ" horiz-adv-x="1327" d="M-8 0l540 1434h263l540 -1434h-280l-105 301h-573l-105 -301h-280zM237 1870h211q8 -82 70.5 -124t148.5 -42t148.5 42t71.5 124h211q-12 -66 -45 -123t-86.5 -99t-129 -67t-170.5 -25q-96 0 -170.5 25t-128 67t-86 99t-45.5 123zM446 518h435l-217 637zM540 -162h246 v-217h-246v217z"/>
<glyph unicode="ặ" horiz-adv-x="1181" d="M76 276q0 82 30.5 135.5t71.5 87t80 49t57 19.5q59 16 118 22.5t124 16.5q25 4 50.5 7t49.5 8q33 4 55.5 8t38 14t22.5 30.5t7 59.5q0 61 -20.5 97t-51 54.5t-65.5 23.5t-65 5q-68 0 -115 -16t-76 -44t-41 -62.5t-10 -71.5h-234q-2 72 25 137.5t84 115.5t147.5 79.5 t219.5 29.5q158 0 247.5 -40t134 -98t55.5 -121.5t11 -108.5v-416q0 -37 2 -62.5t11.5 -41t26.5 -20.5t50 -3v-170q-47 -4 -69.5 -5t-38.5 -1q-25 0 -55.5 3t-61.5 16.5t-54.5 41t-31.5 74.5q-68 -86 -155 -120t-191 -34q-135 0 -212 35t-115 83t-47 99.5t-9 83.5zM184 1434 h209q4 -72 60.5 -111t134.5 -39t134 39t60 111h209q-10 -43 -31.5 -94.5t-67.5 -95.5t-120 -73.5t-184 -29.5q-111 0 -184.5 29.5t-119.5 73.5t-68.5 95.5t-31.5 94.5zM330 285q0 -59 38 -100.5t124 -41.5q45 0 96 12.5t94 46.5t70.5 96t27.5 165v37q-20 -14 -54 -23.5 t-122 -19.5q-63 -8 -113.5 -17.5t-86 -27t-55 -47t-19.5 -80.5zM446 -162h246v-217h-246v217z"/>
<glyph unicode="Ẹ" horiz-adv-x="1306" d="M174 0v1434h1075v-217h-813v-373h729v-217h-729v-410h836v-217h-1098zM581 -162h246v-217h-246v217z"/>
<glyph unicode="ẹ" horiz-adv-x="1216" d="M88 502q0 131 33 238.5t98.5 183t164.5 116.5t234 41q113 0 194 -27.5t136.5 -73.5t89 -104.5t53 -122t26.5 -125t9 -112.5q0 -16 1 -29.5t1 -29.5h-778q0 -49 13.5 -107.5t47 -107.5t89 -82t137.5 -33q41 0 82 11.5t74.5 33t56 54t29.5 75.5h233q-10 -51 -35.5 -110.5 t-82 -110.5t-147.5 -86t-231 -35q-27 0 -75.5 4t-107 20.5t-120 50.5t-111.5 94t-82 151.5t-32 222.5zM350 625h518q0 35 -9 85t-34.5 95t-75 76.5t-128.5 31.5q-72 0 -124.5 -26.5t-85 -67.5t-48 -92t-13.5 -102zM483 -162h246v-217h-246v217z"/>
<glyph unicode="Ẻ" horiz-adv-x="1306" d="M174 0v1434h1075v-217h-813v-373h729v-217h-729v-410h836v-217h-1098zM428 1800q0 39 10 78t40 70.5t81 51t135 19.5q135 0 195.5 -48t60.5 -120q0 -59 -32 -98t-79 -74q-39 -29 -53 -49t-14 -43v-31h-187v35q0 29 18.5 63.5t74.5 77.5q45 35 65.5 56.5t20.5 54.5 q0 20 -13.5 39.5t-56.5 19.5q-45 0 -65.5 -27.5t-22.5 -74.5h-178z"/>
<glyph unicode="ẻ" horiz-adv-x="1216" d="M88 502q0 131 33 238.5t98.5 183t164.5 116.5t234 41q113 0 194 -27.5t136.5 -73.5t89 -104.5t53 -122t26.5 -125t9 -112.5q0 -16 1 -29.5t1 -29.5h-778q0 -49 13.5 -107.5t47 -107.5t89 -82t137.5 -33q41 0 82 11.5t74.5 33t56 54t29.5 75.5h233q-10 -51 -35.5 -110.5 t-82 -110.5t-147.5 -86t-231 -35q-27 0 -75.5 4t-107 20.5t-120 50.5t-111.5 94t-82 151.5t-32 222.5zM350 625h518q0 35 -9 85t-34.5 95t-75 76.5t-128.5 31.5q-72 0 -124.5 -26.5t-85 -67.5t-48 -92t-13.5 -102zM357 1407q0 39 10 78t40 70.5t81 51t135 19.5 q135 0 195.5 -48t60.5 -120q0 -59 -32 -98t-79 -74q-39 -29 -53 -49t-14 -43v-31h-187v35q0 29 18.5 63.5t74.5 77.5q45 35 65.5 56.5t20.5 54.5q0 20 -13.5 39.5t-56.5 19.5q-45 0 -65.5 -27.5t-22.5 -74.5h-178z"/>
<glyph unicode="Ẽ" horiz-adv-x="1306" d="M174 0v1434h1075v-217h-813v-373h729v-217h-729v-410h836v-217h-1098zM274 1581q6 43 23.5 85t50.5 76t79 55.5t112 21.5q49 0 84.5 -9.5t89.5 -31.5q27 -10 46 -19.5t35.5 -15.5t35 -10t40.5 -4q49 0 75 22.5t30 50.5h164q-8 -39 -24.5 -81t-47.5 -76.5t-78 -57 t-115 -22.5q-47 0 -83.5 11t-90.5 34q-41 16 -78.5 30.5t-78.5 14.5t-71 -19.5t-34 -54.5h-164z"/>
<glyph unicode="ẽ" horiz-adv-x="1216" d="M88 502q0 131 33 238.5t98.5 183t164.5 116.5t234 41q113 0 194 -27.5t136.5 -73.5t89 -104.5t53 -122t26.5 -125t9 -112.5q0 -16 1 -29.5t1 -29.5h-778q0 -49 13.5 -107.5t47 -107.5t89 -82t137.5 -33q41 0 82 11.5t74.5 33t56 54t29.5 75.5h233q-10 -51 -35.5 -110.5 t-82 -110.5t-147.5 -86t-231 -35q-27 0 -75.5 4t-107 20.5t-120 50.5t-111.5 94t-82 151.5t-32 222.5zM223 1241q6 41 25.5 79t50.5 66.5t73 46t93 17.5q47 0 83 -11.5t75 -29.5q45 -20 71.5 -34.5t69.5 -14.5q51 0 70.5 25.5t23.5 48.5h152q-16 -100 -87 -154.5t-155 -54.5 q-45 0 -83 13t-75 32q-37 16 -69.5 30.5t-71.5 14.5q-51 0 -70.5 -25.5t-23.5 -48.5h-152zM350 625h518q0 35 -9 85t-34.5 95t-75 76.5t-128.5 31.5q-72 0 -124.5 -26.5t-85 -67.5t-48 -92t-13.5 -102z"/>
<glyph unicode="Ế" horiz-adv-x="1306" d="M174 0v1434h1075v-217h-813v-373h729v-217h-729v-410h836v-217h-1098zM237 1556l275 287h352l275 -287h-246l-205 193l-205 -193h-246zM1010 1761l159 287h279l-242 -287h-196z"/>
<glyph unicode="ế" horiz-adv-x="1216" d="M88 502q0 131 33 238.5t98.5 183t164.5 116.5t234 41q113 0 194 -27.5t136.5 -73.5t89 -104.5t53 -122t26.5 -125t9 -112.5q0 -16 1 -29.5t1 -29.5h-778q0 -49 13.5 -107.5t47 -107.5t89 -82t137.5 -33q41 0 82 11.5t74.5 33t56 54t29.5 75.5h233q-10 -51 -35.5 -110.5 t-82 -110.5t-147.5 -86t-231 -35q-27 0 -75.5 4t-107 20.5t-120 50.5t-111.5 94t-82 151.5t-32 222.5zM213 1163l246 271h328l246 -271h-226l-184 183l-184 -183h-226zM350 625h518q0 35 -9 85t-34.5 95t-75 76.5t-128.5 31.5q-72 0 -124.5 -26.5t-85 -67.5t-48 -92 t-13.5 -102zM912 1370l143 271h266l-225 -271h-184z"/>
<glyph unicode="Ề" horiz-adv-x="1306" d="M-59 2027h279l159 -287h-196zM174 0v1434h1075v-217h-813v-373h729v-217h-729v-410h836v-217h-1098zM254 1556l275 287h352l275 -287h-246l-205 193l-205 -193h-246z"/>
<glyph unicode="ề" horiz-adv-x="1216" d="M-55 1641h266l144 -271h-185zM88 502q0 131 33 238.5t98.5 183t164.5 116.5t234 41q113 0 194 -27.5t136.5 -73.5t89 -104.5t53 -122t26.5 -125t9 -112.5q0 -16 1 -29.5t1 -29.5h-778q0 -49 13.5 -107.5t47 -107.5t89 -82t137.5 -33q41 0 82 11.5t74.5 33t56 54 t29.5 75.5h233q-10 -51 -35.5 -110.5t-82 -110.5t-147.5 -86t-231 -35q-27 0 -75.5 4t-107 20.5t-120 50.5t-111.5 94t-82 151.5t-32 222.5zM213 1163l246 271h328l246 -271h-226l-184 183l-184 -183h-226zM350 625h518q0 35 -9 85t-34.5 95t-75 76.5t-128.5 31.5 q-72 0 -124.5 -26.5t-85 -67.5t-48 -92t-13.5 -102z"/>
<glyph unicode="Ể" horiz-adv-x="1306" d="M174 0v1434h1075v-217h-813v-373h729v-217h-729v-410h836v-217h-1098zM237 1556l275 287h352l275 -287h-246l-205 193l-205 -193h-246zM887 1985q0 39 10 78t40 70.5t81 51t135 19.5q135 0 195.5 -48t60.5 -120q0 -59 -32 -98t-79 -74q-39 -29 -53 -49t-14 -43v-31h-187 v35q0 29 18.5 63.5t74.5 77.5q45 35 65.5 56.5t20.5 54.5q0 20 -13.5 39.5t-56.5 19.5q-45 0 -65.5 -27.5t-22.5 -74.5h-178z"/>
<glyph unicode="ể" horiz-adv-x="1216" d="M88 502q0 131 33 238.5t98.5 183t164.5 116.5t234 41q113 0 194 -27.5t136.5 -73.5t89 -104.5t53 -122t26.5 -125t9 -112.5q0 -16 1 -29.5t1 -29.5h-778q0 -49 13.5 -107.5t47 -107.5t89 -82t137.5 -33q41 0 82 11.5t74.5 33t56 54t29.5 75.5h233q-10 -51 -35.5 -110.5 t-82 -110.5t-147.5 -86t-231 -35q-27 0 -75.5 4t-107 20.5t-120 50.5t-111.5 94t-82 151.5t-32 222.5zM198 1163l246 271h328l246 -271h-226l-184 183l-184 -183h-226zM350 625h518q0 35 -9 85t-34.5 95t-75 76.5t-128.5 31.5q-72 0 -124.5 -26.5t-85 -67.5t-48 -92 t-13.5 -102zM748 1606q0 39 10 78t40 70.5t81 51t135 19.5q135 0 195.5 -48t60.5 -120q0 -59 -32 -98t-79 -74q-39 -29 -53 -49t-14 -43v-31h-187v35q0 29 18.5 63.5t74.5 77.5q45 35 65.5 56.5t20.5 54.5q0 20 -13.5 39.5t-56.5 19.5q-45 0 -65.5 -27.5t-22.5 -74.5h-178z "/>
<glyph unicode="Ễ" horiz-adv-x="1306" d="M174 0v1434h1075v-217h-813v-373h729v-217h-729v-410h836v-217h-1098zM237 1556l275 287h352l275 -287h-246l-205 193l-205 -193h-246zM237 1917q6 43 23.5 85t50.5 76t79 55.5t112 21.5q49 0 84.5 -9.5t89.5 -31.5q27 -10 46 -19.5t35.5 -15.5t35 -10t40.5 -4 q49 0 75 22.5t30 50.5h164q-8 -39 -24.5 -81t-47.5 -76.5t-78 -57t-115 -22.5q-47 0 -83.5 11t-90.5 34q-41 16 -78.5 30.5t-78.5 14.5t-71 -19.5t-34 -54.5h-164z"/>
<glyph unicode="ễ" horiz-adv-x="1216" d="M88 502q0 131 33 238.5t98.5 183t164.5 116.5t234 41q113 0 194 -27.5t136.5 -73.5t89 -104.5t53 -122t26.5 -125t9 -112.5q0 -16 1 -29.5t1 -29.5h-778q0 -49 13.5 -107.5t47 -107.5t89 -82t137.5 -33q41 0 82 11.5t74.5 33t56 54t29.5 75.5h233q-10 -51 -35.5 -110.5 t-82 -110.5t-147.5 -86t-231 -35q-27 0 -75.5 4t-107 20.5t-120 50.5t-111.5 94t-82 151.5t-32 222.5zM198 1163l246 271h328l246 -271h-226l-184 183l-184 -183h-226zM219 1522q6 41 25.5 79t50.5 66.5t73 46t93 17.5q47 0 83 -11.5t75 -29.5q45 -20 71.5 -34.5t69.5 -14.5 q51 0 70.5 25.5t23.5 48.5h152q-16 -100 -87 -154.5t-155 -54.5q-45 0 -83 13t-75 32q-37 16 -69.5 30.5t-71.5 14.5q-51 0 -70.5 -25.5t-23.5 -48.5h-152zM350 625h518q0 35 -9 85t-34.5 95t-75 76.5t-128.5 31.5q-72 0 -124.5 -26.5t-85 -67.5t-48 -92t-13.5 -102z"/>
<glyph unicode="Ệ" horiz-adv-x="1306" d="M174 0v1434h1075v-217h-813v-373h729v-217h-729v-410h836v-217h-1098zM235 1556l275 287h352l275 -287h-246l-205 193l-205 -193h-246zM587 -162h246v-217h-246v217z"/>
<glyph unicode="ệ" horiz-adv-x="1216" d="M88 502q0 131 33 238.5t98.5 183t164.5 116.5t234 41q113 0 194 -27.5t136.5 -73.5t89 -104.5t53 -122t26.5 -125t9 -112.5q0 -16 1 -29.5t1 -29.5h-778q0 -49 13.5 -107.5t47 -107.5t89 -82t137.5 -33q41 0 82 11.5t74.5 33t56 54t29.5 75.5h233q-10 -51 -35.5 -110.5 t-82 -110.5t-147.5 -86t-231 -35q-27 0 -75.5 4t-107 20.5t-120 50.5t-111.5 94t-82 151.5t-32 222.5zM204 1163l246 271h328l246 -271h-226l-184 183l-184 -183h-226zM350 625h518q0 35 -9 85t-34.5 95t-75 76.5t-128.5 31.5q-72 0 -124.5 -26.5t-85 -67.5t-48 -92 t-13.5 -102zM485 -162h246v-217h-246v217z"/>
<glyph unicode="Ỉ" horiz-adv-x="610" d="M58 1800q0 39 10 78t40 70.5t81 51t135 19.5q135 0 195.5 -48t60.5 -120q0 -59 -32 -98t-79 -74q-39 -29 -53 -49t-14 -43v-31h-187v35q0 29 18.5 63.5t74.5 77.5q45 35 65.5 56.5t20.5 54.5q0 20 -13.5 39.5t-56.5 19.5q-45 0 -65.5 -27.5t-22.5 -74.5h-178zM174 0v1434 h262v-1434h-262z"/>
<glyph unicode="ỉ" horiz-adv-x="540" d="M11 1407q0 39 10 78t40 70.5t81 51t135 19.5q135 0 195.5 -48t60.5 -120q0 -59 -32 -98t-79 -74q-39 -29 -53 -49t-14 -43v-31h-187v35q0 29 18.5 63.5t74.5 77.5q45 35 65.5 56.5t20.5 54.5q0 20 -13.5 39.5t-56.5 19.5q-45 0 -65.5 -27.5t-22.5 -74.5h-178zM147 0v1040 h246v-1040h-246z"/>
<glyph unicode="Ị" horiz-adv-x="610" d="M174 0v1434h262v-1434h-262zM180 -162h246v-217h-246v217z"/>
<glyph unicode="ị" horiz-adv-x="540" d="M147 0v1040h246v-1040h-246zM147 -162h246v-217h-246v217zM147 1217v217h246v-217h-246z"/>
<glyph unicode="Ọ" horiz-adv-x="1589" d="M92 717q0 186 43 314t110.5 213t150.5 132t161 68.5t142.5 27t95.5 5.5t95 -5.5t142 -27t161 -68.5t150.5 -132t110.5 -213t43 -314t-43 -314.5t-110.5 -213.5t-150.5 -132t-161 -68.5t-142.5 -26.5t-94.5 -5q-31 0 -95.5 5t-142.5 26.5t-161 68.5t-150.5 132t-110.5 213 t-43 315zM373 717q0 -84 16.5 -178.5t62.5 -176t128 -135t215 -53.5t215 53.5t128 135t62.5 176t16.5 178.5q0 82 -16.5 177t-62.5 177t-128 135.5t-215 53.5t-215 -53.5t-128 -135.5t-62.5 -177t-16.5 -177zM671 -162h246v-217h-246v217z"/>
<glyph unicode="ọ" d="M88 520q0 49 9 110.5t32 124t61.5 121t98 104.5t142.5 73.5t194 27.5t193.5 -27.5t142 -73.5t98.5 -104.5t61.5 -121t31.5 -124t9 -110.5t-9 -110.5t-31.5 -124t-61.5 -121t-98.5 -104.5t-142.5 -73.5t-193 -27.5q-111 0 -194 27.5t-142.5 73.5t-98 104.5t-61.5 121 t-32 123t-9 111.5zM350 520q0 -133 31 -212t74 -118.5t90 -51t80 -11.5t80 11.5t90 51t73.5 118.5t30.5 212t-30.5 212t-73.5 119t-90 51t-80 11t-80 -11t-90 -51t-74 -119t-31 -212zM499 -162h246v-217h-246v217z"/>
<glyph unicode="Ỏ" horiz-adv-x="1589" d="M92 717q0 186 43 314t110.5 213t150.5 132t161 68.5t142.5 27t95.5 5.5t95 -5.5t142 -27t161 -68.5t150.5 -132t110.5 -213t43 -314t-43 -314.5t-110.5 -213.5t-150.5 -132t-161 -68.5t-142.5 -26.5t-94.5 -5q-31 0 -95.5 5t-142.5 26.5t-161 68.5t-150.5 132t-110.5 213 t-43 315zM373 717q0 -84 16.5 -178.5t62.5 -176t128 -135t215 -53.5t215 53.5t128 135t62.5 176t16.5 178.5q0 82 -16.5 177t-62.5 177t-128 135.5t-215 53.5t-215 -53.5t-128 -135.5t-62.5 -177t-16.5 -177zM506 1800q0 39 10 78t40 70.5t81 51t135 19.5q135 0 195.5 -48 t60.5 -120q0 -59 -32 -98t-79 -74q-39 -29 -53 -49t-14 -43v-31h-187v35q0 29 18.5 63.5t74.5 77.5q45 35 65.5 56.5t20.5 54.5q0 20 -13.5 39.5t-56.5 19.5q-45 0 -65.5 -27.5t-22.5 -74.5h-178zM533 1800q0 39 10 78t40 70.5t81 51t135 19.5q135 0 195.5 -48t60.5 -120 q0 -59 -32 -98t-79 -74q-39 -29 -53 -49t-14 -43v-31h-187v35q0 29 18.5 63.5t74.5 77.5q45 35 65.5 56.5t20.5 54.5q0 20 -13.5 39.5t-56.5 19.5q-45 0 -65.5 -27.5t-22.5 -74.5h-178z"/>
<glyph unicode="ỏ" d="M88 520q0 49 9 110.5t32 124t61.5 121t98 104.5t142.5 73.5t194 27.5t193.5 -27.5t142 -73.5t98.5 -104.5t61.5 -121t31.5 -124t9 -110.5t-9 -110.5t-31.5 -124t-61.5 -121t-98.5 -104.5t-142.5 -73.5t-193 -27.5q-111 0 -194 27.5t-142.5 73.5t-98 104.5t-61.5 121 t-32 123t-9 111.5zM350 520q0 -133 31 -212t74 -118.5t90 -51t80 -11.5t80 11.5t90 51t73.5 118.5t30.5 212t-30.5 212t-73.5 119t-90 51t-80 11t-80 -11t-90 -51t-74 -119t-31 -212zM361 1407q0 39 10 78t40 70.5t81 51t135 19.5q135 0 195.5 -48t60.5 -120q0 -59 -32 -98 t-79 -74q-39 -29 -53 -49t-14 -43v-31h-187v35q0 29 18.5 63.5t74.5 77.5q45 35 65.5 56.5t20.5 54.5q0 20 -13.5 39.5t-56.5 19.5q-45 0 -65.5 -27.5t-22.5 -74.5h-178z"/>
<glyph unicode="Ố" horiz-adv-x="1589" d="M92 717q0 186 43 314t110.5 213t150.5 132t161 68.5t142.5 27t95.5 5.5t95 -5.5t142 -27t161 -68.5t150.5 -132t110.5 -213t43 -314t-43 -314.5t-110.5 -213.5t-150.5 -132t-161 -68.5t-142.5 -26.5t-94.5 -5q-31 0 -95.5 5t-142.5 26.5t-161 68.5t-150.5 132t-110.5 213 t-43 315zM346 1556l275 287h352l275 -287h-246l-205 193l-205 -193h-246zM373 717q0 -84 16.5 -178.5t62.5 -176t128 -135t215 -53.5t215 53.5t128 135t62.5 176t16.5 178.5q0 82 -16.5 177t-62.5 177t-128 135.5t-215 53.5t-215 -53.5t-128 -135.5t-62.5 -177t-16.5 -177z M1135 1761l159 287h279l-242 -287h-196z"/>
<glyph unicode="ố" d="M88 520q0 49 9 110.5t32 124t61.5 121t98 104.5t142.5 73.5t194 27.5t193.5 -27.5t142 -73.5t98.5 -104.5t61.5 -121t31.5 -124t9 -110.5t-9 -110.5t-31.5 -124t-61.5 -121t-98.5 -104.5t-142.5 -73.5t-193 -27.5q-111 0 -194 27.5t-142.5 73.5t-98 104.5t-61.5 121 t-32 123t-9 111.5zM215 1163l246 271h328l246 -271h-226l-184 183l-184 -183h-226zM350 520q0 -133 31 -212t74 -118.5t90 -51t80 -11.5t80 11.5t90 51t73.5 118.5t30.5 212t-30.5 212t-73.5 119t-90 51t-80 11t-80 -11t-90 -51t-74 -119t-31 -212zM914 1370l143 271h266 l-225 -271h-184z"/>
<glyph unicode="Ồ" horiz-adv-x="1589" d="M20 2027h279l159 -287h-196zM92 717q0 186 43 314t110.5 213t150.5 132t161 68.5t142.5 27t95.5 5.5t95 -5.5t142 -27t161 -68.5t150.5 -132t110.5 -213t43 -314t-43 -314.5t-110.5 -213.5t-150.5 -132t-161 -68.5t-142.5 -26.5t-94.5 -5q-31 0 -95.5 5t-142.5 26.5 t-161 68.5t-150.5 132t-110.5 213t-43 315zM340 1556l275 287h352l275 -287h-246l-205 193l-205 -193h-246zM373 717q0 -84 16.5 -178.5t62.5 -176t128 -135t215 -53.5t215 53.5t128 135t62.5 176t16.5 178.5q0 82 -16.5 177t-62.5 177t-128 135.5t-215 53.5t-215 -53.5 t-128 -135.5t-62.5 -177t-16.5 -177z"/>
<glyph unicode="ồ" d="M-47 1641h266l144 -271h-185zM88 520q0 49 9 110.5t32 124t61.5 121t98 104.5t142.5 73.5t194 27.5t193.5 -27.5t142 -73.5t98.5 -104.5t61.5 -121t31.5 -124t9 -110.5t-9 -110.5t-31.5 -124t-61.5 -121t-98.5 -104.5t-142.5 -73.5t-193 -27.5q-111 0 -194 27.5 t-142.5 73.5t-98 104.5t-61.5 121t-32 123t-9 111.5zM219 1163l246 271h328l246 -271h-226l-184 183l-184 -183h-226zM350 520q0 -133 31 -212t74 -118.5t90 -51t80 -11.5t80 11.5t90 51t73.5 118.5t30.5 212t-30.5 212t-73.5 119t-90 51t-80 11t-80 -11t-90 -51t-74 -119 t-31 -212z"/>
<glyph unicode="Ổ" horiz-adv-x="1589" d="M92 717q0 186 43 314t110.5 213t150.5 132t161 68.5t142.5 27t95.5 5.5t95 -5.5t142 -27t161 -68.5t150.5 -132t110.5 -213t43 -314t-43 -314.5t-110.5 -213.5t-150.5 -132t-161 -68.5t-142.5 -26.5t-94.5 -5q-31 0 -95.5 5t-142.5 26.5t-161 68.5t-150.5 132t-110.5 213 t-43 315zM346 1556l275 287h352l275 -287h-246l-205 193l-205 -193h-246zM373 717q0 -84 16.5 -178.5t62.5 -176t128 -135t215 -53.5t215 53.5t128 135t62.5 176t16.5 178.5q0 82 -16.5 177t-62.5 177t-128 135.5t-215 53.5t-215 -53.5t-128 -135.5t-62.5 -177t-16.5 -177z M1004 1985q0 39 10 78t40 70.5t81 51t135 19.5q135 0 195.5 -48t60.5 -120q0 -59 -32 -98t-79 -74q-39 -29 -53 -49t-14 -43v-31h-187v35q0 29 18.5 63.5t74.5 77.5q45 35 65.5 56.5t20.5 54.5q0 20 -13.5 39.5t-56.5 19.5q-45 0 -65.5 -27.5t-22.5 -74.5h-178z"/>
<glyph unicode="ổ" d="M88 520q0 49 9 110.5t32 124t61.5 121t98 104.5t142.5 73.5t194 27.5t193.5 -27.5t142 -73.5t98.5 -104.5t61.5 -121t31.5 -124t9 -110.5t-9 -110.5t-31.5 -124t-61.5 -121t-98.5 -104.5t-142.5 -73.5t-193 -27.5q-111 0 -194 27.5t-142.5 73.5t-98 104.5t-61.5 121 t-32 123t-9 111.5zM223 1163l246 271h328l246 -271h-226l-184 183l-184 -183h-226zM350 520q0 -133 31 -212t74 -118.5t90 -51t80 -11.5t80 11.5t90 51t73.5 118.5t30.5 212t-30.5 212t-73.5 119t-90 51t-80 11t-80 -11t-90 -51t-74 -119t-31 -212zM774 1606q0 39 10 78 t40 70.5t81 51t135 19.5q135 0 195.5 -48t60.5 -120q0 -59 -32 -98t-79 -74q-39 -29 -53 -49t-14 -43v-31h-187v35q0 29 18.5 63.5t74.5 77.5q45 35 65.5 56.5t20.5 54.5q0 20 -13.5 39.5t-56.5 19.5q-45 0 -65.5 -27.5t-22.5 -74.5h-178z"/>
<glyph unicode="Ỗ" horiz-adv-x="1589" d="M92 717q0 186 43 314t110.5 213t150.5 132t161 68.5t142.5 27t95.5 5.5t95 -5.5t142 -27t161 -68.5t150.5 -132t110.5 -213t43 -314t-43 -314.5t-110.5 -213.5t-150.5 -132t-161 -68.5t-142.5 -26.5t-94.5 -5q-31 0 -95.5 5t-142.5 26.5t-161 68.5t-150.5 132t-110.5 213 t-43 315zM348 1556l275 287h352l275 -287h-246l-205 193l-205 -193h-246zM373 717q0 -84 16.5 -178.5t62.5 -176t128 -135t215 -53.5t215 53.5t128 135t62.5 176t16.5 178.5q0 82 -16.5 177t-62.5 177t-128 135.5t-215 53.5t-215 -53.5t-128 -135.5t-62.5 -177t-16.5 -177z M381 1917q6 43 23.5 85t50.5 76t79 55.5t112 21.5q49 0 84.5 -9.5t89.5 -31.5q27 -10 46 -19.5t35.5 -15.5t35 -10t40.5 -4q49 0 75 22.5t30 50.5h164q-8 -39 -24.5 -81t-47.5 -76.5t-78 -57t-115 -22.5q-47 0 -83.5 11t-90.5 34q-41 16 -78.5 30.5t-78.5 14.5t-71 -19.5 t-34 -54.5h-164z"/>
<glyph unicode="ỗ" d="M88 520q0 49 9 110.5t32 124t61.5 121t98 104.5t142.5 73.5t194 27.5t193.5 -27.5t142 -73.5t98.5 -104.5t61.5 -121t31.5 -124t9 -110.5t-9 -110.5t-31.5 -124t-61.5 -121t-98.5 -104.5t-142.5 -73.5t-193 -27.5q-111 0 -194 27.5t-142.5 73.5t-98 104.5t-61.5 121 t-32 123t-9 111.5zM223 1163l246 271h328l246 -271h-226l-184 183l-184 -183h-226zM245 1522q6 41 25.5 79t50.5 66.5t73 46t93 17.5q47 0 83 -11.5t75 -29.5q45 -20 71.5 -34.5t69.5 -14.5q51 0 70.5 25.5t23.5 48.5h152q-16 -100 -87 -154.5t-155 -54.5q-45 0 -83 13 t-75 32q-37 16 -69.5 30.5t-71.5 14.5q-51 0 -70.5 -25.5t-23.5 -48.5h-152zM350 520q0 -133 31 -212t74 -118.5t90 -51t80 -11.5t80 11.5t90 51t73.5 118.5t30.5 212t-30.5 212t-73.5 119t-90 51t-80 11t-80 -11t-90 -51t-74 -119t-31 -212z"/>
<glyph unicode="Ộ" horiz-adv-x="1589" d="M92 717q0 186 43 314t110.5 213t150.5 132t161 68.5t142.5 27t95.5 5.5t95 -5.5t142 -27t161 -68.5t150.5 -132t110.5 -213t43 -314t-43 -314.5t-110.5 -213.5t-150.5 -132t-161 -68.5t-142.5 -26.5t-94.5 -5q-31 0 -95.5 5t-142.5 26.5t-161 68.5t-150.5 132t-110.5 213 t-43 315zM352 1556l275 287h352l275 -287h-246l-205 193l-205 -193h-246zM373 717q0 -84 16.5 -178.5t62.5 -176t128 -135t215 -53.5t215 53.5t128 135t62.5 176t16.5 178.5q0 82 -16.5 177t-62.5 177t-128 135.5t-215 53.5t-215 -53.5t-128 -135.5t-62.5 -177t-16.5 -177z M673 -162h246v-217h-246v217z"/>
<glyph unicode="ộ" d="M88 520q0 49 9 110.5t32 124t61.5 121t98 104.5t142.5 73.5t194 27.5t193.5 -27.5t142 -73.5t98.5 -104.5t61.5 -121t31.5 -124t9 -110.5t-9 -110.5t-31.5 -124t-61.5 -121t-98.5 -104.5t-142.5 -73.5t-193 -27.5q-111 0 -194 27.5t-142.5 73.5t-98 104.5t-61.5 121 t-32 123t-9 111.5zM213 1163l246 271h328l246 -271h-226l-184 183l-184 -183h-226zM350 520q0 -133 31 -212t74 -118.5t90 -51t80 -11.5t80 11.5t90 51t73.5 118.5t30.5 212t-30.5 212t-73.5 119t-90 51t-80 11t-80 -11t-90 -51t-74 -119t-31 -212zM499 -162h246v-217h-246 v217z"/>
<glyph unicode="Ớ" horiz-adv-x="1607" d="M92 717q0 186 43 314t110.5 213t150.5 132t161 68.5t142.5 27t95.5 5.5q20 0 59 -2t87 -10.5t103.5 -25t110.5 -44.5q45 -14 96 -15q92 0 127 52.5t35 123.5q0 27 -7 65t-17 73h247q12 -29 18.5 -72t6.5 -74q0 -59 -22.5 -111.5t-64.5 -91t-100.5 -62t-130.5 -23.5h-14 q74 -86 121 -217.5t47 -325.5q0 -186 -43 -314.5t-110.5 -213.5t-150.5 -132t-161 -68.5t-142.5 -26.5t-94.5 -5q-31 0 -95.5 5t-142.5 26.5t-161 68.5t-150.5 132t-110.5 213.5t-43 314.5zM373 717q0 -84 16.5 -178.5t62.5 -176t128 -135t215 -53.5t215 53.5t128 135 t62.5 176t16.5 178.5q0 82 -16.5 177t-62.5 177t-128 135.5t-215 53.5t-215 -53.5t-128 -135.5t-62.5 -177t-16.5 -177zM668 1556l159 287h279l-242 -287h-196z"/>
<glyph unicode="ớ" horiz-adv-x="1273" d="M88 520q0 49 9 110.5t32 124t61.5 121t98 104.5t142.5 73.5t194 27.5q82 0 146.5 -15t117.5 -42q8 -2 15 -2h14q88 0 121.5 53t33.5 125q0 23 -5 55.5t-13 63.5h241q10 -29 14.5 -64.5t4.5 -62.5q0 -55 -19.5 -104.5t-56.5 -88t-89 -62.5t-116 -30q37 -45 61.5 -96 t39 -102.5t20.5 -99.5t6 -89q0 -49 -9 -110.5t-31.5 -124t-61.5 -121t-98.5 -104.5t-142.5 -73.5t-193 -27.5q-111 0 -194 27.5t-142.5 73.5t-98 104.5t-61.5 121t-32 123t-9 111.5zM350 520q0 -133 31 -212t74 -118.5t90 -51t80 -11.5t80 11.5t90 51t73.5 118.5t30.5 212 t-30.5 212t-73.5 119t-90.5 51t-79.5 11q-33 0 -80 -11t-90 -51t-74 -119t-31 -212zM504 1163l143 271h266l-225 -271h-184z"/>
<glyph unicode="Ờ" horiz-adv-x="1607" d="M92 717q0 186 43 314t110.5 213t150.5 132t161 68.5t142.5 27t95.5 5.5q20 0 59 -2t87 -10.5t103.5 -25t110.5 -44.5q45 -14 96 -15q92 0 127 52.5t35 123.5q0 27 -7 65t-17 73h247q12 -29 18.5 -72t6.5 -74q0 -59 -22.5 -111.5t-64.5 -91t-100.5 -62t-130.5 -23.5h-14 q74 -86 121 -217.5t47 -325.5q0 -186 -43 -314.5t-110.5 -213.5t-150.5 -132t-161 -68.5t-142.5 -26.5t-94.5 -5q-31 0 -95.5 5t-142.5 26.5t-161 68.5t-150.5 132t-110.5 213.5t-43 314.5zM373 717q0 -84 16.5 -178.5t62.5 -176t128 -135t215 -53.5t215 53.5t128 135 t62.5 176t16.5 178.5q0 82 -16.5 177t-62.5 177t-128 135.5t-215 53.5t-215 -53.5t-128 -135.5t-62.5 -177t-16.5 -177zM463 1843h279l159 -287h-196z"/>
<glyph unicode="ờ" horiz-adv-x="1273" d="M88 520q0 49 9 110.5t32 124t61.5 121t98 104.5t142.5 73.5t194 27.5q82 0 146.5 -15t117.5 -42q8 -2 15 -2h14q88 0 121.5 53t33.5 125q0 23 -5 55.5t-13 63.5h241q10 -29 14.5 -64.5t4.5 -62.5q0 -55 -19.5 -104.5t-56.5 -88t-89 -62.5t-116 -30q37 -45 61.5 -96 t39 -102.5t20.5 -99.5t6 -89q0 -49 -9 -110.5t-31.5 -124t-61.5 -121t-98.5 -104.5t-142.5 -73.5t-193 -27.5q-111 0 -194 27.5t-142.5 73.5t-98 104.5t-61.5 121t-32 123t-9 111.5zM307 1434h266l144 -271h-185zM350 520q0 -133 31 -212t74 -118.5t90 -51t80 -11.5t80 11.5 t90 51t73.5 118.5t30.5 212t-30.5 212t-73.5 119t-90.5 51t-79.5 11q-33 0 -80 -11t-90 -51t-74 -119t-31 -212z"/>
<glyph unicode="Ở" horiz-adv-x="1607" d="M92 717q0 186 43 314t110.5 213t150.5 132t161 68.5t142.5 27t95.5 5.5q20 0 59 -2t87 -10.5t103.5 -25t110.5 -44.5q45 -14 96 -15q92 0 127 52.5t35 123.5q0 27 -7 65t-17 73h247q12 -29 18.5 -72t6.5 -74q0 -59 -22.5 -111.5t-64.5 -91t-100.5 -62t-130.5 -23.5h-14 q74 -86 121 -217.5t47 -325.5q0 -186 -43 -314.5t-110.5 -213.5t-150.5 -132t-161 -68.5t-142.5 -26.5t-94.5 -5q-31 0 -95.5 5t-142.5 26.5t-161 68.5t-150.5 132t-110.5 213.5t-43 314.5zM373 717q0 -84 16.5 -178.5t62.5 -176t128 -135t215 -53.5t215 53.5t128 135 t62.5 176t16.5 178.5q0 82 -16.5 177t-62.5 177t-128 135.5t-215 53.5t-215 -53.5t-128 -135.5t-62.5 -177t-16.5 -177zM533 1800q0 39 10 78t40 70.5t81 51t135 19.5q135 0 195.5 -48t60.5 -120q0 -59 -32 -98t-79 -74q-39 -29 -53 -49t-14 -43v-31h-187v35q0 29 18.5 63.5 t74.5 77.5q45 35 65.5 56.5t20.5 54.5q0 20 -13.5 39.5t-56.5 19.5q-45 0 -65.5 -27.5t-22.5 -74.5h-178z"/>
</font>
</defs>
</svg>
